<svg width="24" height="24" viewBox="0 0 24 24" fill="none" xmlns="http://www.w3.org/2000/svg">
<path d="M9.59844 4.19961C9.59844 3.86824 9.86707 3.59961 10.1984 3.59961H11.3984C11.7298 3.59961 11.9984 3.86824 11.9984 4.19961V5.39961C11.9984 5.73098 11.7298 5.99961 11.3984 5.99961H9.59844V4.19961Z" fill="#212224"/>
<path d="M7.19844 8.39961V6.59961C7.19844 6.26824 7.46707 5.99961 7.79844 5.99961H9.59844V7.79961C9.59844 8.13098 9.32981 8.39961 8.99844 8.39961H7.19844Z" fill="#212224"/>
<path d="M7.79844 10.7996C7.46707 10.7996 7.19844 10.531 7.19844 10.1996V8.39961H5.39844C5.06707 8.39961 4.79844 8.66824 4.79844 8.99961V10.1996C4.79844 10.531 4.52981 10.7996 4.19844 10.7996H2.99844C2.66707 10.7996 2.39844 11.0682 2.39844 11.3996V12.5996C2.39844 12.931 2.66707 13.1996 2.99844 13.1996H4.19844C4.52981 13.1996 4.79844 13.4682 4.79844 13.7996V14.9996C4.79844 15.331 5.06707 15.5996 5.39844 15.5996H7.19844V17.3996C7.19844 17.731 7.46707 17.9996 7.79844 17.9996H9.59844V19.7996C9.59844 20.131 9.86707 20.3996 10.1984 20.3996H11.3984C11.7298 20.3996 11.9984 20.131 11.9984 19.7996V18.5996C11.9984 18.2682 11.7298 17.9996 11.3984 17.9996H9.59844V16.1996C9.59844 15.8682 9.32981 15.5996 8.99844 15.5996H7.19844V13.7996C7.19844 13.4682 7.46707 13.1996 7.79844 13.1996H20.9984C21.3298 13.1996 21.5984 12.931 21.5984 12.5996V11.3996C21.5984 11.0682 21.3298 10.7996 20.9984 10.7996H7.79844Z" fill="#212224"/>
</svg>
