<svg width="28" height="28" viewBox="0 0 28 28" fill="none" xmlns="http://www.w3.org/2000/svg">
<path d="M21.7016 5.59961C22.0882 5.59961 22.4016 5.91301 22.4016 6.29961V18.8996C22.4016 19.2862 22.0882 19.5996 21.7016 19.5996H20.3016C19.915 19.5996 19.6016 19.2862 19.6016 18.8996V11.8996C19.6016 11.513 19.2882 11.1996 18.9016 11.1996H16.8016V9.09961C16.8016 8.71301 16.4882 8.39961 16.1016 8.39961H9.10156C8.71496 8.39961 8.40156 8.08621 8.40156 7.69961V6.29961C8.40156 5.91301 8.71496 5.59961 9.10156 5.59961H21.7016Z" fill="white"/>
<path d="M14.0016 13.9996V11.8996C14.0016 11.513 14.315 11.1996 14.7016 11.1996H16.8016V13.2996C16.8016 13.6862 16.4882 13.9996 16.1016 13.9996H14.0016Z" fill="white"/>
<path d="M11.2016 16.7996V14.6996C11.2016 14.313 11.515 13.9996 11.9016 13.9996H14.0016V16.0996C14.0016 16.4862 13.6882 16.7996 13.3016 16.7996H11.2016Z" fill="white"/>
<path d="M8.40156 19.5996V17.4996C8.40156 17.113 8.71496 16.7996 9.10156 16.7996H11.2016V18.8996C11.2016 19.2862 10.8882 19.5996 10.5016 19.5996H8.40156Z" fill="white"/>
<path d="M6.30156 22.3996C5.91496 22.3996 5.60156 22.0862 5.60156 21.6996V20.2996C5.60156 19.913 5.91496 19.5996 6.30156 19.5996H8.40156V21.6996C8.40156 22.0862 8.08816 22.3996 7.70156 22.3996H6.30156Z" fill="white"/>
</svg>
