<svg width="56" height="56" viewBox="0 0 56 56" fill="none" xmlns="http://www.w3.org/2000/svg">
<rect width="56" height="56" rx="8" fill="#212224"/>
<path d="M14 14.7C14 14.3134 14.3134 14 14.7 14H24.5C24.8866 14 25.2 14.3134 25.2 14.7V16.1C25.2 16.4866 24.8866 16.8 24.5 16.8H20.3C19.9134 16.8 19.6 17.1134 19.6 17.5V19.6H17.5C17.1134 19.6 16.8 19.9134 16.8 20.3L16.8 24.5C16.8 24.8866 16.4866 25.2 16.1 25.2H14.7C14.3134 25.2 14 24.8866 14 24.5V14.7Z" fill="white"/>
<path d="M22.4 22.4H20.3C19.9134 22.4 19.6 22.0866 19.6 21.7L19.6 19.6H21.7C22.0866 19.6 22.4 19.9134 22.4 20.3V22.4Z" fill="white"/>
<path d="M22.4 22.4H24.5C24.8866 22.4 25.2 22.7134 25.2 23.1V24.5C25.2 24.8866 24.8866 25.2 24.5 25.2H23.1C22.7134 25.2 22.4 24.8866 22.4 24.5V22.4Z" fill="white"/>
<path d="M14.7 42C14.3134 42 14 41.6866 14 41.3V31.5C14 31.1134 14.3134 30.8 14.7 30.8H16.1C16.4866 30.8 16.8 31.1134 16.8 31.5L16.8 35.7C16.8 36.0866 17.1134 36.4 17.5 36.4H19.6V38.5C19.6 38.8866 19.9134 39.2 20.3 39.2H24.5C24.8866 39.2 25.2 39.5134 25.2 39.9V41.3C25.2 41.6866 24.8866 42 24.5 42H14.7Z" fill="white"/>
<path d="M22.4 33.6V35.7C22.4 36.0866 22.0866 36.4 21.7 36.4H19.6L19.6 34.3C19.6 33.9134 19.9134 33.6 20.3 33.6H22.4Z" fill="white"/>
<path d="M22.4 33.6V31.5C22.4 31.1134 22.7134 30.8 23.1 30.8H24.5C24.8866 30.8 25.2 31.1134 25.2 31.5V32.9C25.2 33.2866 24.8866 33.6 24.5 33.6H22.4Z" fill="white"/>
<path d="M41.3 14C41.6866 14 42 14.3134 42 14.7V24.5C42 24.8866 41.6866 25.2 41.3 25.2H39.9C39.5134 25.2 39.2 24.8866 39.2 24.5V20.3C39.2 19.9134 38.8866 19.6 38.5 19.6H36.4V17.5C36.4 17.1134 36.0866 16.8 35.7 16.8H31.5C31.1134 16.8 30.8 16.4866 30.8 16.1V14.7C30.8 14.3134 31.1134 14 31.5 14H41.3Z" fill="white"/>
<path d="M33.6 22.4V20.3C33.6 19.9134 33.9134 19.6 34.3 19.6H36.4V21.7C36.4 22.0866 36.0866 22.4 35.7 22.4H33.6Z" fill="white"/>
<path d="M33.6 22.4V24.5C33.6 24.8866 33.2866 25.2 32.9 25.2H31.5C31.1134 25.2 30.8 24.8866 30.8 24.5V23.1C30.8 22.7134 31.1134 22.4 31.5 22.4H33.6Z" fill="white"/>
<path d="M41.3 42C41.6866 42 42 41.6866 42 41.3V31.5C42 31.1134 41.6866 30.8 41.3 30.8H39.9C39.5134 30.8 39.2 31.1134 39.2 31.5V35.7C39.2 36.0866 38.8866 36.4 38.5 36.4H36.4V34.3C36.4 33.9134 36.0866 33.6 35.7 33.6H33.6V31.5C33.6 31.1134 33.2866 30.8 32.9 30.8H31.5C31.1134 30.8 30.8 31.1134 30.8 31.5V32.9C30.8 33.2866 31.1134 33.6 31.5 33.6H33.6V35.7C33.6 36.0866 33.9134 36.4 34.3 36.4H36.4V38.5C36.4 38.8866 36.0866 39.2 35.7 39.2H31.5C31.1134 39.2 30.8 39.5134 30.8 39.9V41.3C30.8 41.6866 31.1134 42 31.5 42H41.3Z" fill="white"/>
</svg>
