<svg width="40" height="40" viewBox="0 0 40 40" fill="none" xmlns="http://www.w3.org/2000/svg">
<rect width="40" height="40" rx="20" fill="#212224"/>
<g clip-path="url(#clip0_5081_22103)">
<g clip-path="url(#clip1_5081_22103)">
<g clip-path="url(#clip2_5081_22103)">
<path d="M19.8931 16.9297C18.2564 16.9297 16.9297 18.2564 16.9297 19.8931C16.9297 21.5298 18.2564 22.8565 19.8931 22.8565C21.5298 22.8565 22.8565 21.5298 22.8565 19.8931C22.8565 18.2564 21.5298 16.9297 19.8931 16.9297Z" fill="white"/>
<path d="M28.946 16.292C28.802 13.022 26.984 11.204 23.714 11.054C22.748 11 22.442 11 20 11C17.558 11 17.252 11 16.292 11.054C13.022 11.204 11.204 13.016 11.054 16.286C11 17.252 11 17.558 11 20C11 22.442 11 22.748 11.054 23.708C11.204 26.978 13.016 28.796 16.286 28.946C17.252 29 17.558 29 20 29C22.442 29 22.748 29 23.714 28.946C26.978 28.796 28.796 26.984 28.946 23.708C29 22.748 29 22.442 29 20C29 17.558 29 17.252 28.946 16.292ZM20 24.62C17.4484 24.62 15.38 22.5516 15.38 20C15.38 17.4484 17.4484 15.38 20 15.38C22.5516 15.38 24.62 17.4484 24.62 20C24.62 22.5516 22.5516 24.62 20 24.62ZM24.8 16.274C24.2036 16.274 23.72 15.7904 23.72 15.194C23.72 14.5976 24.2036 14.114 24.8 14.114C25.3964 14.114 25.88 14.5976 25.88 15.194C25.8816 15.4809 25.7684 15.7567 25.5656 15.9596C25.3627 16.1624 25.0869 16.2756 24.8 16.274Z" fill="white"/>
</g>
</g>
</g>
<defs>
<clipPath id="clip0_5081_22103">
<rect width="18" height="18" fill="white" transform="translate(11 11)"/>
</clipPath>
<clipPath id="clip1_5081_22103">
<rect width="18" height="18" fill="white" transform="translate(11 11)"/>
</clipPath>
<clipPath id="clip2_5081_22103">
<rect width="18" height="18" fill="white" transform="translate(11 11)"/>
</clipPath>
</defs>
</svg>
