<svg width="40" height="40" viewBox="0 0 40 40" fill="none" xmlns="http://www.w3.org/2000/svg">
<rect width="40" height="40" rx="20" fill="#212224"/>
<g clip-path="url(#clip0_5081_22114)">
<g clip-path="url(#clip1_5081_22114)">
<g clip-path="url(#clip2_5081_22114)">
<path fill-rule="evenodd" clip-rule="evenodd" d="M20 10C25.5228 10 30 14.4771 30 20C30 25.5228 25.5228 30 20 30C14.4771 30 10 25.5228 10 20C10 14.4771 14.4771 10 20 10ZM23.9286 25.421H16.4036V25.7143H23.9286V25.421ZM23.3384 13.2499C21.5859 14.4099 20.3874 16.6226 20.3874 16.6226C19.8488 17.491 18.9675 19.0034 18.0838 20.5407L17.9182 20.8291C17.2838 21.9346 16.6592 23.033 16.1709 23.8944C15.826 23.8944 15.3708 23.5147 15.3708 23.5147C15.5404 23.9546 16 24.1917 16 24.1917C15.5294 25.0232 15.2232 25.5676 15.2232 25.5676L16.2561 25.1277C16.3729 24.8363 16.4952 24.5509 16.6225 24.2726C20.8872 24.1451 22.2012 21.6719 22.2995 21.4743L22.3052 21.4625C23.1383 19.93 22.1366 19.5915 22.0211 19.5583L22.0132 19.5561C22.0114 19.5556 22.0104 19.5554 22.0104 19.5554C20.5463 19.1543 18.1133 21.5601 18.1133 21.5601C19.3881 19.5777 20.6449 18.2752 20.9213 17.9979L20.9521 17.9672C20.9548 17.9644 20.9574 17.9619 20.9597 17.9596L20.9709 17.9486C20.9751 17.9445 20.9773 17.9424 20.9773 17.9424C21.7993 17.1303 21.5219 16.7289 21.4397 16.6413L21.4307 16.6321C21.4242 16.6258 21.4202 16.6226 21.4202 16.6226C23.6962 15.2155 23.7802 13.8802 23.7813 13.7084V13.6982C23.7812 13.6968 23.7812 13.6956 23.7812 13.6945L23.781 13.6904C23.781 13.029 23.3384 13.2499 23.3384 13.2499ZM21.7153 20.5462L21.7152 20.5544C21.7144 20.5895 21.7081 20.7322 21.6609 20.8972C21.4482 21.6432 20.3508 23.7172 16.7712 23.9546C16.7712 23.9546 18.0558 21.6075 20.6825 20.142C20.6825 20.142 21.7153 19.5472 21.7153 20.5462ZM20.8301 16.7693C21.2465 16.9323 20.8777 17.3093 20.8341 17.3519L20.8301 17.3558C20.7645 17.4268 20.6764 17.5173 20.5811 17.613L20.5085 17.6856C20.2393 17.9539 19.9448 18.2357 19.9448 18.2357C20.3551 17.4243 20.8301 16.7693 20.8301 16.7693ZM23.1908 13.8365C23.1908 13.8365 23.1863 13.8512 23.1762 13.879L23.1662 13.906C23.0523 14.2067 22.5156 15.4277 20.9773 16.476C20.9773 16.476 22.0971 14.7964 23.1908 13.8365Z" fill="white"/>
</g>
</g>
</g>
<defs>
<clipPath id="clip0_5081_22114">
<rect width="20" height="20" fill="white" transform="translate(10 10)"/>
</clipPath>
<clipPath id="clip1_5081_22114">
<rect width="20" height="20" fill="white" transform="translate(10 10)"/>
</clipPath>
<clipPath id="clip2_5081_22114">
<rect width="20" height="20" fill="white" transform="translate(10 10)"/>
</clipPath>
</defs>
</svg>
