<svg width="86" height="87" viewBox="0 0 86 87" fill="none" xmlns="http://www.w3.org/2000/svg">
<path d="M69.489 13.9056C68.473 10.5416 64.965 8.59757 61.573 9.51757C60.585 6.25357 57.257 4.32958 53.961 5.05758C52.797 1.88958 49.373 0.109573 46.077 1.05357L17.865 9.14157C14.569 10.0856 12.609 13.4096 13.301 16.7136C10.121 17.8416 8.317 21.2376 9.209 24.5296C5.845 25.5456 3.901 29.0536 4.821 32.4456C1.429 33.4736 -0.52701 37.0336 0.45299 40.4536L8.721 69.2896C9.701 72.7096 13.245 74.6936 16.669 73.7696C17.685 77.1336 21.193 79.0776 24.585 78.1576C25.573 81.4216 28.901 83.3456 32.197 82.6176C33.361 85.7856 36.785 87.5656 40.081 86.6216L68.293 78.5336C71.589 77.5896 73.549 74.2656 72.857 70.9616C76.037 69.8336 77.841 66.4376 76.949 63.1456C80.313 62.1296 82.257 58.6216 81.337 55.2296C84.729 54.2016 86.685 50.6416 85.705 47.2216L77.437 18.3856C76.457 14.9656 72.913 12.9816 69.489 13.9056Z" fill="#FFB13B"/>
<path d="M20.6039 15.5375L47.1348 7.9299C47.9845 7.68624 48.8701 8.17715 49.1138 9.0269L50.3266 13.2565L20.7197 21.7461L19.5069 17.5165C19.2633 16.6668 19.7542 15.7812 20.6039 15.5375Z" fill="#212224"/>
<path d="M14.7753 66.3116L7.1677 39.7808C6.92403 38.931 7.41494 38.0454 8.2647 37.8017L12.4942 36.5889L20.9839 66.1958L16.7543 67.4086C15.9046 67.6523 15.019 67.1613 14.7753 66.3116Z" fill="#212224"/>
<path d="M71.3824 21.37L78.99 47.9009C79.2337 48.7506 78.7428 49.6362 77.893 49.8799L73.6635 51.0927L65.1738 21.4859L69.4034 20.2731C70.2531 20.0294 71.1388 20.5203 71.3824 21.37Z" fill="#212224"/>
<path d="M16.4926 22.9613L20.7222 21.7485L21.935 25.9781C22.1786 26.8278 21.6877 27.7134 20.838 27.9571L16.6084 29.1699L15.3956 24.9404C15.1519 24.0906 15.6429 23.205 16.4926 22.9613Z" fill="#212224"/>
<path d="M12.3823 30.3832L16.6118 29.1704L17.8246 33.3999C18.0683 34.2497 17.5774 35.1353 16.7276 35.379L12.4981 36.5918L11.2853 32.3622C11.0416 31.5125 11.5325 30.6269 12.3823 30.3832Z" fill="#212224"/>
<path d="M57.7495 17.375L53.52 18.5878C52.6702 18.8315 51.7846 18.3406 51.5409 17.4908L50.3281 13.2613L54.5577 12.0485C55.4074 11.8048 56.293 12.2957 56.5367 13.1454L57.7495 17.375Z" fill="#212224"/>
<path d="M65.1704 21.4844L60.9409 22.6972C60.0911 22.9408 59.2055 22.4499 58.9618 21.6002L57.749 17.3706L61.9786 16.1578C62.8283 15.9142 63.7139 16.4051 63.9576 17.2548L65.1704 21.4844Z" fill="#212224"/>
<path d="M65.5484 72.1422L39.0176 79.7498C38.1678 79.9934 37.2822 79.5025 37.0385 78.6528L35.8257 74.4232L65.4326 65.9336L66.6454 70.1632C66.8891 71.0129 66.3982 71.8985 65.5484 72.1422Z" fill="#212224"/>
<path d="M69.6661 64.7203L65.4365 65.9331L64.2237 61.7036C63.9801 60.8538 64.471 59.9682 65.3207 59.7245L69.5503 58.5117L70.7631 62.7413C71.0067 63.591 70.5158 64.4767 69.6661 64.7203Z" fill="#212224"/>
<path d="M73.7755 57.3023L69.5459 58.5152L68.3331 54.2856C68.0894 53.4358 68.5803 52.5502 69.4301 52.3066L73.6597 51.0938L74.8725 55.3233C75.1161 56.1731 74.6252 57.0587 73.7755 57.3023Z" fill="#212224"/>
<path d="M28.4082 70.3145L32.6378 69.1016C33.4875 68.858 34.3731 69.3489 34.6168 70.1986L35.8296 74.4282L31.6 75.641C30.7503 75.8847 29.8647 75.3938 29.621 74.544L28.4082 70.3145Z" fill="#212224"/>
<path d="M20.981 66.1992L25.2105 64.9864C26.0603 64.7428 26.9459 65.2337 27.1895 66.0834L28.4024 70.313L24.1728 71.5258C23.323 71.7694 22.4374 71.2785 22.1938 70.4288L20.981 66.1992Z" fill="#212224"/>
<path d="M27.377 44.4495L31.061 43.3935C31.549 43.2535 31.829 42.7455 31.689 42.2575L30.381 37.6895L25.813 38.9975C25.325 39.1375 25.045 39.6455 25.185 40.1335L26.241 43.8175C26.381 44.3055 26.889 44.5855 27.377 44.4455V44.4495Z" fill="#212224"/>
<path d="M43.5048 48.8061L42.4488 45.1221C42.3088 44.6341 42.5928 44.1261 43.0768 43.9861L45.6128 43.2581C46.1008 43.1181 46.3808 42.6101 46.2408 42.1221L44.1168 34.7061C43.9768 34.2181 43.4688 33.9381 42.9808 34.0781L40.4448 34.8061C39.9568 34.9461 39.4488 34.6621 39.3088 34.1781L38.2528 30.4941C38.1128 30.0061 37.6048 29.7261 37.1168 29.8661L29.7008 31.9901C29.2128 32.1301 28.9328 32.6381 29.0728 33.1261L30.3808 37.6941L37.5288 35.6461C38.0168 35.5061 38.5248 35.7901 38.6648 36.2741L40.7888 43.6901C40.9288 44.1781 40.6448 44.6861 40.1608 44.8261L35.0768 46.2821C34.5888 46.4221 34.3088 46.9301 34.4488 47.4181L35.5048 51.1021C35.6448 51.5901 35.3608 52.0981 34.8768 52.2381L32.5888 52.8941C32.1008 53.0341 31.8208 53.5421 31.9608 54.0301L32.7688 56.8541C32.9088 57.3421 32.6248 57.8501 32.1408 57.9901L29.0288 58.8821C28.5408 59.0221 28.2608 59.5301 28.4008 60.0181L29.4568 63.7021C29.5968 64.1901 30.1048 64.4701 30.5928 64.3301L50.0528 58.7501C50.5408 58.6101 50.8208 58.1021 50.6808 57.6141L49.6248 53.9301C49.4848 53.4421 48.9768 53.1621 48.4888 53.3021L39.3528 55.9221C38.8648 56.0621 38.3568 55.7781 38.2168 55.2941L37.4088 52.4701C37.2688 51.9821 37.5528 51.4741 38.0368 51.3341L42.8688 49.9501C43.3568 49.8101 43.6368 49.3021 43.4968 48.8141L43.5048 48.8061Z" fill="#212224"/>
<path d="M44.9411 26.0974L45.2531 26.9694C45.6731 26.2334 46.2171 25.6974 46.8771 25.3694C47.0091 25.3054 47.1451 25.2574 47.2891 25.2134C47.6371 25.1134 48.0051 25.1014 48.3891 25.1814C48.7771 25.2694 49.1131 25.4694 49.4011 25.7894C49.6891 26.1094 49.9091 26.5294 50.0571 27.0454L51.2251 31.1134L49.8331 31.5134L48.7171 27.6254C48.4571 26.7214 47.9971 26.3654 47.3371 26.5534C46.6771 26.7414 46.0931 27.2774 45.5891 28.1534L46.8011 32.3814L45.4091 32.7814L43.6011 26.4774L44.9331 26.0934L44.9411 26.0974Z" fill="black"/>
<path d="M52.9252 29.9407C52.2652 29.5087 51.7892 28.7727 51.4892 27.7327C51.2972 27.0647 51.2452 26.4367 51.3372 25.8527C51.4292 25.2687 51.6452 24.7727 51.9892 24.3647C52.3332 23.9567 52.7692 23.6767 53.3012 23.5247C54.1692 23.2767 54.9012 23.4127 55.5012 23.9287L55.0892 22.8367L54.4052 20.4527L55.7972 20.0527L58.3812 29.0567L57.0692 29.4327L56.8012 28.7567C56.6732 29.1127 56.4732 29.4167 56.2052 29.6687C55.9372 29.9207 55.6012 30.1007 55.2092 30.2127C54.3412 30.4607 53.5812 30.3687 52.9212 29.9367L52.9252 29.9407ZM56.0092 28.2607C56.2372 27.8767 56.3252 27.4407 56.2772 26.9607L55.7892 25.2607C55.5412 24.9687 55.2332 24.7647 54.8652 24.6447C54.4972 24.5247 54.1412 24.5127 53.8012 24.6087C53.5052 24.6927 53.2652 24.8647 53.0772 25.1167C52.8892 25.3727 52.7812 25.6927 52.7412 26.0767C52.7052 26.4607 52.7492 26.8767 52.8772 27.3287C53.0692 27.9967 53.3572 28.4807 53.7412 28.7767C54.1252 29.0727 54.5612 29.1527 55.0492 29.0127C55.4612 28.8967 55.7772 28.6447 56.0052 28.2567L56.0092 28.2607Z" fill="black"/>
</svg>
