<svg width="48" height="48" viewBox="0 0 48 48" fill="none" xmlns="http://www.w3.org/2000/svg">
<path d="M17 16C15.8954 16 15 16.8954 15 18V20C15 21.1046 15.8954 22 17 22H25C26.1046 22 27 22.8954 27 24V25C27 26.1046 26.1046 27 25 27C23.8954 27 23 27.8954 23 29V33H19C17.8954 33 17 33.8954 17 35V37C17 38.1046 17.8954 39 19 39H21C22.1046 39 23 38.1046 23 37V33H27C28.1046 33 29 32.1046 29 31V29C29 27.8954 29.8954 27 31 27C32.1046 27 33 26.1046 33 25V18C33 16.8954 32.1046 16 31 16H17Z" fill="#FF7710"/>
<path fill-rule="evenodd" clip-rule="evenodd" d="M14 2C14 0.895431 13.1046 0 12 0H10C8.89543 0 8 0.89543 8 2V4C8 5.10457 7.10457 6 6 6H2C0.895431 6 0 6.89543 0 8V20.5C0 21.3284 0.671573 22 1.5 22C2.32843 22 3 22.6716 3 23.5V32.5C3 33.3284 2.32843 34 1.5 34C0.671573 34 0 34.6716 0 35.5V46C0 47.1046 0.89543 48 2 48H34C35.1046 48 36 47.1046 36 46C36 44.8954 36.8954 44 38 44H40C41.1046 44 42 43.1046 42 42V38H46C47.1046 38 48 37.1046 48 36V8C48 6.89543 47.1046 6 46 6H42C40.8954 6 40 5.10457 40 4V2C40 0.895431 39.1046 0 38 0H36C34.8954 0 34 0.89543 34 2V4C34 5.10457 33.1046 6 32 6H29C27.8954 6 27 5.10457 27 4V2C27 0.895431 26.1046 0 25 0H23C21.8954 0 21 0.89543 21 2V4C21 5.10457 20.1046 6 19 6H16C14.8954 6 14 5.10457 14 4V2ZM6 40C6 41.1046 6.89543 42 8 42H34C35.1046 42 36 41.1046 36 40C36 38.8954 36.8954 38 38 38H42V14C42 12.8954 41.1046 12 40 12H8C6.89543 12 6 12.8954 6 14V20.5C6 21.3284 6.67157 22 7.5 22C8.32843 22 9 22.6716 9 23.5V32.5C9 33.3284 8.32843 34 7.5 34C6.67157 34 6 34.6716 6 35.5V40Z" fill="#FF7710"/>
</svg>
