<svg width="86" height="87" viewBox="0 0 86 87" fill="none" xmlns="http://www.w3.org/2000/svg">
<path d="M69.9084 13.6784C68.9484 10.2984 65.4764 8.29436 62.0684 9.15436C61.1364 5.87436 57.8404 3.89436 54.5364 4.56236C53.4284 1.37436 50.0324 -0.465639 46.7244 0.422361L18.3764 8.01836C15.0644 8.90636 13.0484 12.1944 13.6804 15.5104C10.4804 16.5824 8.61641 19.9464 9.45241 23.2544C6.07241 24.2144 4.06841 27.6864 4.92841 31.0944C1.51641 32.0624 -0.49961 35.5904 0.42439 39.0264L8.18839 68.0024C9.10839 71.4384 12.6164 73.4864 16.0564 72.6184C17.0164 75.9984 20.4884 78.0024 23.8964 77.1424C24.8284 80.4224 28.1244 82.4024 31.4284 81.7344C32.5364 84.9224 35.9324 86.7624 39.2404 85.8744L67.5884 78.2784C70.9004 77.3904 72.9164 74.1024 72.2844 70.7864C75.4844 69.7144 77.3484 66.3504 76.5124 63.0424C79.8924 62.0824 81.8964 58.6104 81.0364 55.2024C84.4484 54.2344 86.4644 50.7064 85.5404 47.2704L77.7764 18.2944C76.8564 14.8584 73.3484 12.8104 69.9084 13.6784Z" fill="#C6F959"/>
<path d="M21.0025 14.455L47.6621 7.31162C48.5159 7.08283 49.3929 7.58912 49.6217 8.443L50.7605 12.6931L21.0099 20.6647L19.8711 16.4146C19.6423 15.5607 20.1486 14.6838 21.0025 14.455Z" fill="#212224"/>
<path d="M14.2885 65.1244L7.14512 38.4649C6.91632 37.611 7.42261 36.7341 8.27649 36.5053L12.5266 35.3665L20.4982 65.117L16.2481 66.2558C15.3942 66.4846 14.5173 65.9783 14.2885 65.1244Z" fill="#212224"/>
<path d="M71.6685 21.1724L78.8119 47.832C79.0407 48.6859 78.5344 49.5628 77.6805 49.7916L73.4305 50.9304L65.4588 21.1799L69.7089 20.0411C70.5628 19.8123 71.4397 20.3186 71.6685 21.1724Z" fill="#212224"/>
<path d="M16.7608 21.8046L21.0109 20.6658L22.1497 24.9159C22.3785 25.7698 21.8722 26.6467 21.0183 26.8755L16.7682 28.0143L15.6294 23.7642C15.4006 22.9104 15.9069 22.0334 16.7608 21.8046Z" fill="#212224"/>
<path d="M12.5201 29.1562L16.7702 28.0174L17.909 32.2675C18.1378 33.1214 17.6315 33.9983 16.7776 34.2271L12.5275 35.3659L11.3887 31.1158C11.1599 30.2619 11.6662 29.385 12.5201 29.1562Z" fill="#212224"/>
<path d="M58.1099 16.9395L53.8598 18.0783C53.0059 18.3071 52.129 17.8008 51.9002 16.9469L50.7614 12.6968L55.0115 11.558C55.8653 11.3292 56.7423 11.8355 56.9711 12.6894L58.1099 16.9395Z" fill="#212224"/>
<path d="M65.458 21.1816L61.2079 22.3204C60.3541 22.5492 59.4771 22.043 59.2483 21.1891L58.1095 16.939L62.3596 15.8002C63.2135 15.5714 64.0904 16.0777 64.3192 16.9316L65.458 21.1816Z" fill="#212224"/>
<path d="M64.9545 71.836L38.295 78.9794C37.4411 79.2082 36.5642 78.7019 36.3354 77.848L35.1966 73.5979L64.9471 65.6263L66.0859 69.8764C66.3147 70.7303 65.8084 71.6072 64.9545 71.836Z" fill="#212224"/>
<path d="M69.1943 64.4883L64.9442 65.6271L63.8054 61.3771C63.5766 60.5232 64.0829 59.6463 64.9368 59.4175L69.1868 58.2787L70.3256 62.5287C70.5544 63.3826 70.0481 64.2595 69.1943 64.4883Z" fill="#212224"/>
<path d="M73.4374 57.1426L69.1874 58.2814L68.0486 54.0314C67.8198 53.1775 68.326 52.3006 69.1799 52.0718L73.43 50.933L74.5688 55.183C74.7976 56.0369 74.2913 56.9138 73.4374 57.1426Z" fill="#212224"/>
<path d="M27.8457 69.3555L32.0958 68.2167C32.9497 67.9879 33.8266 68.4942 34.0554 69.348L35.1942 73.5981L30.9441 74.7369C30.0902 74.9657 29.2133 74.4594 28.9845 73.6055L27.8457 69.3555Z" fill="#212224"/>
<path d="M20.4976 65.1133L24.7476 63.9745C25.6015 63.7457 26.4784 64.252 26.7072 65.1058L27.846 69.3559L23.596 70.4947C22.7421 70.7235 21.8652 70.2172 21.6364 69.3634L20.4976 65.1133Z" fill="#212224"/>
<path d="M27.0406 42.2589L30.6126 41.3029C31.1046 41.1709 31.3966 40.6669 31.2646 40.1749L30.0686 35.7109L25.6046 36.9069C25.1126 37.0389 24.8206 37.5429 24.9526 38.0349L25.9086 41.6069C26.0406 42.0989 26.5446 42.3909 27.0366 42.2589H27.0406Z" fill="#212224"/>
<path d="M29.6328 55.5064L30.5888 59.0784C30.7208 59.5704 31.2248 59.8624 31.7168 59.7304L36.1808 58.5344L34.9848 54.0704C34.8528 53.5784 34.3488 53.2864 33.8568 53.4184L30.2848 54.3744C29.7928 54.5064 29.5008 55.0104 29.6328 55.5024V55.5064Z" fill="#212224"/>
<path d="M46.5444 39.7033L44.6804 32.7473C44.5484 32.2553 44.0444 31.9633 43.5524 32.0953L41.3884 32.6753C40.8964 32.8073 40.3924 32.5153 40.2604 32.0233L39.3044 28.4513C39.1724 27.9593 38.6684 27.6673 38.1764 27.7993L29.5324 30.1153C29.0404 30.2473 28.7484 30.7513 28.8804 31.2433L30.0764 35.7073L38.2044 33.5313C38.6964 33.3993 39.2004 33.6913 39.3324 34.1833L41.1964 41.1393C41.3284 41.6313 41.0364 42.1353 40.5444 42.2673L36.9724 43.2233C36.4804 43.3553 36.1884 43.8593 36.3204 44.3513L37.2764 47.9233C37.4084 48.4153 37.9124 48.7073 38.4044 48.5753L41.9764 47.6193C42.4684 47.4873 42.9724 47.7793 43.1044 48.2713L44.9684 55.2273C45.1004 55.7193 44.8084 56.2233 44.3164 56.3553L36.1884 58.5313L37.3844 62.9953C37.5164 63.4873 38.0204 63.7793 38.5124 63.6473L47.1564 61.3313C47.6484 61.1993 47.9404 60.6953 47.8084 60.2033L46.8524 56.6313C46.7204 56.1393 47.0124 55.6353 47.5044 55.5033L49.6684 54.9233C50.1604 54.7913 50.4524 54.2873 50.3204 53.7953L48.4564 46.8393C48.3244 46.3473 47.8204 46.0553 47.3284 46.1873L45.1644 46.7673C44.6724 46.8993 44.1684 46.6073 44.0364 46.1153L43.0804 42.5433C42.9484 42.0513 43.2404 41.5473 43.7324 41.4153L45.8964 40.8353C46.3884 40.7033 46.6804 40.1993 46.5484 39.7073L46.5444 39.7033Z" fill="#212224"/>
<path d="M46.6404 24.874L46.9484 25.774C47.1084 25.378 47.3124 25.046 47.5604 24.782C47.8084 24.518 48.0884 24.334 48.3964 24.234C48.8524 24.086 49.2764 24.018 49.6684 24.026L50.0244 25.354C49.4884 25.338 49.0084 25.406 48.5764 25.554C48.2764 25.654 48.0124 25.83 47.7884 26.082C47.5644 26.338 47.3964 26.65 47.2844 27.026L48.5404 31.71L47.0284 32.114L45.1924 25.262L46.6444 24.874H46.6404Z" fill="black"/>
<path d="M52.8164 29.8256C52.1124 29.3456 51.6084 28.5416 51.3044 27.4096C51.1084 26.6816 51.0684 26.0016 51.1764 25.3696C51.2844 24.7376 51.5324 24.2056 51.9124 23.7696C52.2924 23.3376 52.7724 23.0416 53.3484 22.8856C54.2884 22.6336 55.0804 22.7936 55.7204 23.3656L55.2964 22.1776L54.6004 19.5856L56.1124 19.1816L58.7364 28.9736L57.3124 29.3536L57.0364 28.6176C56.8924 29.0016 56.6724 29.3256 56.3724 29.5936C56.0764 29.8576 55.7124 30.0496 55.2844 30.1656C54.3404 30.4176 53.5204 30.3056 52.8164 29.8256ZM56.1844 28.0696C56.4364 27.6576 56.5404 27.1896 56.5004 26.6696L56.0044 24.8216C55.7404 24.5016 55.4124 24.2736 55.0164 24.1376C54.6204 24.0016 54.2364 23.9816 53.8644 24.0816C53.5404 24.1696 53.2764 24.3456 53.0724 24.6176C52.8644 24.8896 52.7404 25.2336 52.6924 25.6496C52.6444 26.0656 52.6844 26.5176 52.8164 27.0056C53.0124 27.7336 53.3124 28.2616 53.7244 28.5896C54.1364 28.9176 54.6044 29.0096 55.1364 28.8696C55.5844 28.7496 55.9324 28.4856 56.1844 28.0696Z" fill="black"/>
</svg>
