<svg width="48" height="48" viewBox="0 0 48 48" fill="none" xmlns="http://www.w3.org/2000/svg">
<path fill-rule="evenodd" clip-rule="evenodd" d="M27 2C27 0.895431 26.1046 0 25 0H23C21.8954 0 21 0.89543 21 2V6H17C15.8954 6 15 6.89543 15 8V12H2C0.895431 12 0 12.8954 0 14V16C0 17.1046 0.89543 18 2 18H3C4.10457 18 5 18.8954 5 20V22C5 23.1046 5.89543 24 7 24C8.10457 24 9 24.8954 9 26V28C9 29.1046 8.10457 30 7 30C5.89543 30 5 30.8954 5 32V38C5 39.1046 4.10457 40 3 40C1.89543 40 1 40.8954 1 42V44C1 45.1046 1.89543 46 3 46H5C6.10457 46 7 45.1046 7 44C7 42.8954 7.89543 42 9 42H17C18.1046 42 19 41.1046 19 40V36H25V40C25 41.1046 25.8954 42 27 42H29C30.1046 42 31 42.8954 31 44V46C31 47.1046 31.8954 48 33 48H35C36.1046 48 37 47.1046 37 46V43.5C37 42.6716 37.6716 42 38.5 42C39.3284 42 40 41.3284 40 40.5V26C40 24.8954 40.8954 24 42 24C43.1046 24 44 23.1046 44 22V20C44 18.8954 44.8954 18 46 18C47.1046 18 48 17.1046 48 16V14C48 12.8954 47.1046 12 46 12H33C31.8954 12 31 11.1046 31 10V8C31 6.89543 30.1046 6 29 6C27.8954 6 27 5.10457 27 4V2ZM25 36V32C25 30.8954 24.1046 30 23 30H21C19.8954 30 19 30.8954 19 32V36H13C11.8954 36 11 35.1046 11 34V32C11 30.8954 11.8954 30 13 30C14.1046 30 15 29.1046 15 28V26C15 24.8954 14.1046 24 13 24C11.8954 24 11 23.1046 11 22V19C11 18.4477 11.4477 18 12 18H13C14.1046 18 15 17.1046 15 16V12H19C20.1046 12 21 11.1046 21 10V6H23C24.1046 6 25 6.89543 25 8V10C25 11.1046 25.8954 12 27 12H28C29.1046 12 30 12.8954 30 14V16C30 17.1046 30.8954 18 32 18H36C37.1046 18 38 18.8954 38 20V22C38 23.1046 37.1046 24 36 24C34.8954 24 34 24.8954 34 26V34C34 35.1046 33.1046 36 32 36H25Z" fill="#FF7710"/>
</svg>
