<svg width="88" height="88" viewBox="0 0 88 88" fill="none" xmlns="http://www.w3.org/2000/svg">
<path d="M70.9084 14.6784C69.9484 11.2984 66.4764 9.29436 63.0684 10.1544C62.1364 6.87436 58.8404 4.89436 55.5364 5.56236C54.4284 2.37436 51.0324 0.534361 47.7244 1.42236L19.3764 9.01836C16.0644 9.90636 14.0484 13.1944 14.6804 16.5104C11.4804 17.5824 9.61639 20.9464 10.4524 24.2544C7.07239 25.2144 5.06839 28.6864 5.92839 32.0944C2.51639 33.0624 0.500391 36.5904 1.42439 40.0264L9.18839 69.0024C10.1084 72.4384 13.6164 74.4864 17.0564 73.6184C18.0164 76.9984 21.4884 79.0024 24.8964 78.1424C25.8284 81.4224 29.1244 83.4024 32.4284 82.7344C33.5364 85.9224 36.9324 87.7624 40.2404 86.8744L68.5884 79.2784C71.9004 78.3904 73.9164 75.1024 73.2844 71.7864C76.4844 70.7144 78.3484 67.3504 77.5124 64.0424C80.8924 63.0824 82.8964 59.6104 82.0364 56.2024C85.4484 55.2344 87.4644 51.7064 86.5404 48.2704L78.7764 19.2944C77.8564 15.8584 74.3484 13.8104 70.9084 14.6784Z" fill="#FF7710"/>
<path d="M22.003 15.455L48.6626 8.31162C49.5164 8.08283 50.3934 8.58912 50.6221 9.443L51.7609 13.6931L22.0104 21.6647L20.8716 17.4146C20.6428 16.5607 21.1491 15.6838 22.003 15.455Z" fill="#212224"/>
<path d="M15.2895 66.1225L8.1461 39.4629C7.9173 38.6091 8.42359 37.7321 9.27747 37.5033L13.5275 36.3645L21.4992 66.1151L17.2491 67.2539C16.3952 67.4827 15.5183 66.9764 15.2895 66.1225Z" fill="#212224"/>
<path d="M72.6675 22.1724L79.8109 48.832C80.0397 49.6859 79.5334 50.5628 78.6796 50.7916L74.4295 51.9304L66.4579 22.1799L70.7079 21.0411C71.5618 20.8123 72.4387 21.3186 72.6675 22.1724Z" fill="#212224"/>
<path d="M17.7574 22.8007L22.0075 21.6619L23.1463 25.912C23.3751 26.7659 22.8688 27.6428 22.0149 27.8716L17.7648 29.0104L16.626 24.7603C16.3972 23.9064 16.9035 23.0295 17.7574 22.8007Z" fill="#212224"/>
<path d="M13.5206 30.1562L17.7707 29.0174L18.9095 33.2675C19.1383 34.1214 18.632 34.9983 17.7781 35.2271L13.528 36.3659L12.3892 32.1158C12.1604 31.2619 12.6667 30.385 13.5206 30.1562Z" fill="#212224"/>
<path d="M59.1094 17.9375L54.8593 19.0763C54.0054 19.3051 53.1285 18.7988 52.8997 17.9449L51.7609 13.6949L56.011 12.5561C56.8649 12.3273 57.7418 12.8335 57.9706 13.6874L59.1094 17.9375Z" fill="#212224"/>
<path d="M66.4575 22.1797L62.2074 23.3185C61.3536 23.5473 60.4767 23.041 60.2479 22.1871L59.1091 17.937L63.3591 16.7982C64.213 16.5694 65.0899 17.0757 65.3187 17.9296L66.4575 22.1797Z" fill="#212224"/>
<path d="M65.954 72.8379L39.2945 79.9813C38.4406 80.2101 37.5637 79.7039 37.3349 78.85L36.1961 74.5999L65.9466 66.6283L67.0854 70.8783C67.3142 71.7322 66.8079 72.6091 65.954 72.8379Z" fill="#212224"/>
<path d="M70.1933 65.4864L65.9432 66.6252L64.8044 62.3751C64.5756 61.5212 65.0819 60.6443 65.9358 60.4155L70.1859 59.2767L71.3247 63.5268C71.5535 64.3807 71.0472 65.2576 70.1933 65.4864Z" fill="#212224"/>
<path d="M74.4369 58.1407L70.1869 59.2795L69.0481 55.0294C68.8193 54.1755 69.3256 53.2986 70.1794 53.0698L74.4295 51.931L75.5683 56.1811C75.7971 57.035 75.2908 57.9119 74.4369 58.1407Z" fill="#212224"/>
<path d="M28.8462 70.3555L33.0963 69.2167C33.9501 68.9879 34.8271 69.4942 35.0559 70.348L36.1947 74.5981L31.9446 75.7369C31.0907 75.9657 30.2138 75.4594 29.985 74.6055L28.8462 70.3555Z" fill="#212224"/>
<path d="M21.498 66.1133L25.7481 64.9745C26.602 64.7457 27.4789 65.252 27.7077 66.1058L28.8465 70.3559L24.5964 71.4947C23.7426 71.7235 22.8656 71.2172 22.6369 70.3634L21.498 66.1133Z" fill="#212224"/>
<path d="M46.1406 54.3262L39.5246 29.6382C39.3766 29.0782 38.8006 28.7462 38.2406 28.8982L34.0766 30.0142C33.5166 30.1622 33.1846 30.7382 33.3366 31.2982L34.2766 34.8102C34.4246 35.3702 34.0926 35.9462 33.5366 36.0942L29.3726 37.2102C28.8126 37.3582 28.4806 37.9342 28.6326 38.4942L29.7486 42.6582C29.8966 43.2182 30.4726 43.5502 31.0326 43.3982L35.1966 42.2822C35.7566 42.1342 36.3326 42.4662 36.4806 43.0222L39.9526 55.9822C40.1006 56.5422 39.7686 57.1182 39.2126 57.2662L35.3766 58.2942C34.8166 58.4422 34.4846 59.0182 34.6366 59.5782L35.7526 63.7422C35.9006 64.3022 36.4766 64.6342 37.0366 64.4822L52.6046 60.3102C53.1646 60.1622 53.4966 59.5862 53.3446 59.0262L52.2286 54.8622C52.0806 54.3022 51.5046 53.9702 50.9446 54.1222L47.4326 55.0622C46.8726 55.2102 46.2966 54.8782 46.1486 54.3222L46.1406 54.3262Z" fill="#212224"/>
<path d="M46.9845 31.6463C46.4085 31.5623 45.9365 31.3543 45.5685 31.0303C45.2005 30.7063 44.9685 30.2823 44.8765 29.7663L46.4885 29.3343C46.4885 29.3343 46.4965 29.4103 46.5205 29.5063C46.6165 29.8663 46.8645 30.1063 47.2645 30.2263C47.6645 30.3463 48.1445 30.3303 48.7005 30.1783C49.0525 30.0823 49.3125 29.9263 49.4845 29.6983C49.6525 29.4743 49.7045 29.2303 49.6365 28.9743C49.5765 28.7503 49.4005 28.5863 49.1045 28.4823C48.8005 28.3783 48.2965 28.3063 47.5965 28.2663C46.7245 28.1783 46.1445 28.1063 45.8565 28.0583C45.4605 27.9903 45.1445 27.8543 44.9125 27.6503C44.6805 27.4463 44.5125 27.1543 44.4085 26.7783C44.2965 26.3663 44.3205 25.9743 44.4805 25.6063C44.6405 25.2383 44.9125 24.9103 45.2965 24.6303C45.6805 24.3463 46.1485 24.1343 46.6965 23.9863C47.4965 23.7743 48.2085 23.7823 48.8365 24.0183C49.4645 24.2543 49.9045 24.6823 50.1565 25.3063L48.5965 25.7223C48.4645 25.4343 48.2685 25.2503 48.0085 25.1703C47.7485 25.0863 47.3925 25.1063 46.9485 25.2263C46.5885 25.3223 46.3165 25.4663 46.1325 25.6583C45.9485 25.8503 45.8845 26.0543 45.9445 26.2663C46.0045 26.4783 46.1645 26.6183 46.4325 26.7023C46.6925 26.7783 47.1805 26.8543 47.9005 26.9303C48.6965 27.0103 49.2925 27.0943 49.6925 27.1823C50.1125 27.2743 50.4445 27.4263 50.6885 27.6463C50.9325 27.8663 51.1045 28.1703 51.2085 28.5583C51.3405 29.0583 51.3165 29.5063 51.1285 29.9063C50.9365 30.2903 50.6485 30.6143 50.2645 30.8823C49.8805 31.1503 49.4285 31.3543 48.9045 31.4943C48.2005 31.6823 47.5605 31.7343 46.9845 31.6503V31.6463Z" fill="black"/>
<path d="M54.4205 29.6104C54.0725 29.5464 53.7845 29.3544 53.5525 29.0264C53.3245 28.7024 53.1165 28.2024 52.9405 27.5344L52.0245 24.1224L50.9285 24.4144L50.5845 23.1264L51.6805 22.8344L51.2085 21.0704L52.7805 20.6504L53.2525 22.4144L54.9645 21.9544L55.3085 23.2424L53.5965 23.7024L54.5405 27.2184C54.6165 27.5024 54.7005 27.7104 54.7885 27.8424C54.8885 27.9744 55.0325 28.0424 55.2245 28.0584C55.4165 28.0704 55.6925 28.0304 56.0525 27.9344C56.3285 27.8624 56.4925 27.8104 56.5525 27.7864L56.8925 29.0624C56.4685 29.2584 56.0885 29.4024 55.7645 29.4904C55.2245 29.6344 54.7725 29.6784 54.4165 29.6184L54.4205 29.6104Z" fill="black"/>
</svg>
