<svg width="24" height="24" viewBox="0 0 24 24" fill="none" xmlns="http://www.w3.org/2000/svg">
<path d="M23 0C23.5523 0 24 0.447715 24 1V19C24 19.5523 23.5523 20 23 20H21C20.4477 20 20 19.5523 20 19V9C20 8.44772 19.5523 8 19 8H16V5C16 4.44772 15.5523 4 15 4H5C4.44772 4 4 3.55228 4 3V1C4 0.447715 4.44772 0 5 0H23Z" fill="#FF7710"/>
<path d="M12 12V9C12 8.44772 12.4477 8 13 8H16V11C16 11.5523 15.5523 12 15 12H12Z" fill="#FF7710"/>
<path d="M8 16V13C8 12.4477 8.44772 12 9 12H12V15C12 15.5523 11.5523 16 11 16H8Z" fill="#FF7710"/>
<path d="M4 20V17C4 16.4477 4.44772 16 5 16H8V19C8 19.5523 7.55228 20 7 20H4Z" fill="#FF7710"/>
<path d="M1 24C0.447715 24 0 23.5523 0 23V21C0 20.4477 0.447715 20 1 20H4V23C4 23.5523 3.55228 24 3 24H1Z" fill="#FF7710"/>
</svg>
