<svg width="48" height="48" viewBox="0 0 48 48" fill="none" xmlns="http://www.w3.org/2000/svg">
<path d="M27 2C27 0.89543 26.1046 0 25 0H23C21.8954 0 21 0.895431 21 2L21 4C21 5.10457 21.8954 6 23 6H25C26.1046 6 27 5.10457 27 4L27 2Z" fill="#FF7710"/>
<path d="M27 10C27 8.89543 26.1046 8 25 8L23 8C21.8954 8 21 8.89543 21 10L21 14C21 15.1046 20.1046 16 19 16C17.8954 16 17 16.8954 17 18V19C17 20.1046 16.1046 21 15 21L10 21C8.89543 21 8 21.8954 8 23V25C8 26.1046 8.89543 27 10 27L15 27C16.1046 27 17 27.8954 17 29C17 30.1046 17.8954 31 19 31C20.1046 31 21 31.8954 21 33L21 38C21 39.1046 21.8954 40 23 40H25C26.1046 40 27 39.1046 27 38L27 33C27 31.8954 27.8954 31 29 31C30.1046 31 31 30.1046 31 29C31 27.8954 31.8954 27 33 27L38 27C39.1046 27 40 26.1046 40 25V23C40 21.8954 39.1046 21 38 21L33 21C31.8954 21 31 20.1046 31 19L31 18C31 16.8954 30.1046 16 29 16C27.8954 16 27 15.1046 27 14L27 10Z" fill="#FF7710"/>
<path d="M42 23C42 21.8954 42.8954 21 44 21L46 21C47.1046 21 48 21.8954 48 23V25C48 26.1046 47.1046 27 46 27L44 27C42.8954 27 42 26.1046 42 25V23Z" fill="#FF7710"/>
<path d="M6 23C6 21.8954 5.10457 21 4 21L2 21C0.89543 21 0 21.8954 0 23V25C0 26.1046 0.895431 27 2 27L4 27C5.10457 27 6 26.1046 6 25V23Z" fill="#FF7710"/>
<path d="M10 10L14 10C15.1046 10 16 10.8954 16 12L16 14C16 15.1046 15.1046 16 14 16L12 16C10.8954 16 10 15.1046 10 14V10Z" fill="#FF7710"/>
<path d="M10 10V6C10 4.89543 9.10457 4 8 4H6C4.89543 4 4 4.89543 4 6V8C4 9.10457 4.89543 10 6 10H10Z" fill="#FF7710"/>
<path d="M44 40C44 38.8954 43.1046 38 42 38H38V42C38 43.1046 38.8954 44 40 44H42C43.1046 44 44 43.1046 44 42V40Z" fill="#FF7710"/>
<path d="M38 38H34C32.8954 38 32 37.1046 32 36V34C32 32.8954 32.8954 32 34 32H36C37.1046 32 38 32.8954 38 34V38Z" fill="#FF7710"/>
<path d="M32 12C32 10.8954 32.8954 10 34 10L38 10V6C38 4.89543 38.8954 4 40 4H42C43.1046 4 44 4.89543 44 6V8C44 9.10457 43.1046 10 42 10H38V14C38 15.1046 37.1046 16 36 16L34 16C32.8954 16 32 15.1046 32 14V12Z" fill="#FF7710"/>
<path d="M10 34C10 32.8954 10.8954 32 12 32H14C15.1046 32 16 32.8954 16 34L16 36C16 37.1046 15.1046 38 14 38H10V42C10 43.1046 9.10457 44 8 44H6C4.89543 44 4 43.1046 4 42V40C4 38.8954 4.89543 38 6 38H10V34Z" fill="#FF7710"/>
<path d="M21 44C21 42.8954 21.8954 42 23 42H25C26.1046 42 27 42.8954 27 44L27 46C27 47.1046 26.1046 48 25 48H23C21.8954 48 21 47.1046 21 46L21 44Z" fill="#FF7710"/>
</svg>
