<svg xmlns="http://www.w3.org/2000/svg" width="96" height="41" viewBox="0 0 96 41" fill="none">
  <path d="M39.77 20.4937C39.77 25.9292 37.675 31.1421 33.9458 34.9855C30.2167 38.829 25.1588 40.9883 19.885 40.9883C14.6112 40.9883 9.55334 38.829 5.82418 34.9855C2.09502 31.1421 0 25.9292 0 20.4937C0 15.0582 2.09502 9.84528 5.82418 6.00179C9.55334 2.15831 14.6112 -0.00094223 19.885 -0.00094223C25.1588 -0.00094223 30.2167 2.15831 33.9458 6.00179C37.675 9.84528 39.77 15.0582 39.77 20.4937Z" fill="white"/>
  <path d="M29.2379 19.0613C28.5036 18.5364 27.6732 18.1713 26.7974 17.9883C25.9216 17.8053 25.0188 17.8081 24.1441 17.9967C23.2694 18.1853 22.4412 18.5556 21.71 19.0851C20.9788 19.6145 20.36 20.2921 19.8913 21.0763C19.3017 22.0282 18.491 22.8136 17.5326 23.3611C16.5741 23.9086 15.4983 24.2011 14.4026 24.2119C12.9536 24.2142 11.5439 23.7263 10.39 22.8231C9.23601 21.9199 8.40155 20.6513 8.0147 19.2121L7.99379 19.1475L7.97288 19.0613C7.72379 18.1872 7.61086 17.278 7.63833 16.3675C7.63833 10.301 13.6812 3.54486 22.3796 3.54486C31.2975 3.54486 36.389 10.538 37.7063 14.4279L37.6435 14.2232C36.1921 9.90589 33.3054 6.25713 29.4944 3.92286C25.6833 1.58858 21.1939 0.719357 16.8208 1.46905C12.4477 2.21874 8.47294 4.539 5.60028 8.01907C2.72762 11.4991 1.14231 15.9145 1.125 20.4836C1.125 30.0305 7.8056 38.209 17.0685 38.209C24.4601 38.209 29.4261 33.942 31.7052 28.0587C32.9598 24.8368 32.0711 21.0547 29.2379 19.0613Z" fill="#0C426E"/>
  <path d="M37.8236 14.8016C36.7258 11.0087 31.5925 3.54145 22.3819 3.54145C13.6835 3.54145 7.64062 10.2976 7.64062 16.364C7.64062 17.4955 7.70335 18.0019 7.97518 19.0579C7.86366 18.6071 7.80746 18.1438 7.8079 17.6786C7.8079 11.3535 13.9449 6.97877 20.2595 6.97877C24.3615 6.98162 28.2944 8.66306 31.1939 11.6535C34.0934 14.6439 35.7222 18.6985 35.7222 22.9262C35.7222 29.8332 31.8748 35.8027 26.271 38.6797C30.8033 36.99 34.5311 33.5679 36.6818 29.1225C38.8326 24.6771 39.2414 19.5493 37.8236 14.8016Z" fill="#E6223A"/>
  <path d="M49.9607 28.0312L48.6053 25.1231V28.0312H48.0078V24.4634H48.8941L50.2491 27.3811V24.4634H50.8474V28.0312H49.9607Z" fill="#212224"/>
  <path d="M52.5001 27.6326C52.651 27.6326 52.8011 27.5961 52.9478 27.5235C53.096 27.45 53.2021 27.3648 53.2676 27.2697V26.8348H52.7479C52.4522 26.8348 52.2458 26.8721 52.129 26.9474C52.016 27.0327 51.9589 27.1346 51.9589 27.2545C51.9589 27.3629 52.0072 27.4534 52.1037 27.5257C52.1994 27.5965 52.332 27.6326 52.5001 27.6326ZM52.661 26.379H53.2676C53.2676 26.2113 53.2021 26.0865 53.0727 26.0028C52.9421 25.9191 52.7529 25.8776 52.5051 25.8776H52.4898C52.2565 25.8776 52.0087 25.9313 51.7483 26.0412L51.5985 25.5862C51.8697 25.469 52.1688 25.41 52.4951 25.4058H52.5051C52.9386 25.4058 53.2703 25.4892 53.502 25.6547C53.7349 25.8202 53.8498 26.0842 53.8498 26.4456V28.0325H53.2944V27.7506C53.179 27.8626 53.0411 27.9491 52.8896 28.0043C52.734 28.0632 52.5689 28.0935 52.4024 28.0938C52.0933 28.0938 51.8433 28.0123 51.6525 27.8503C51.4626 27.6882 51.3672 27.49 51.3672 27.2545C51.3672 26.9912 51.4852 26.7743 51.7215 26.6043C51.9417 26.454 52.2546 26.379 52.661 26.379Z" fill="#212224"/>
  <path d="M55.2778 24.6429V25.4678H55.8397V25.9376H55.2778V27.243C55.2778 27.3655 55.3085 27.4503 55.3686 27.4956C55.4287 27.5427 55.5134 27.566 55.6237 27.566H55.8397V28.0312H55.4842C55.2058 28.0312 55.0036 27.9696 54.8768 27.8471C54.7497 27.7242 54.6853 27.5416 54.6853 27.2993V25.9376H54.2422V25.4678H54.6853V24.6429H55.2778Z" fill="#212224"/>
  <path d="M56.3455 25.4693H56.9338V28.0332H56.3455V25.4693ZM57.0104 24.7468C57.0108 24.7951 57.0011 24.843 56.982 24.8874C56.9629 24.9318 56.9348 24.9717 56.8993 25.0048C56.8653 25.0405 56.8242 25.0689 56.7786 25.088C56.7329 25.1071 56.6838 25.1166 56.6343 25.1159C56.5848 25.1165 56.5357 25.107 56.4901 25.0878C56.4445 25.0687 56.4034 25.0405 56.3693 25.0048C56.3339 24.9717 56.3057 24.9317 56.2865 24.8873C56.2674 24.843 56.2576 24.7951 56.2578 24.7468C56.2578 24.6445 56.2954 24.557 56.3693 24.4832C56.4035 24.4477 56.4446 24.4196 56.4902 24.4006C56.5358 24.3816 56.5849 24.3722 56.6343 24.3729C56.7377 24.3729 56.8262 24.4094 56.8993 24.4832C56.935 24.5172 56.9633 24.5582 56.9824 24.6036C57.0015 24.6489 57.011 24.6977 57.0104 24.7468Z" fill="#212224"/>
  <path d="M58.8341 27.6125C59.0478 27.6125 59.2302 27.5311 59.3834 27.3694C59.5362 27.2081 59.612 27.0018 59.612 26.7527C59.612 26.5073 59.5362 26.3018 59.3834 26.1359C59.2302 25.9704 59.0478 25.8871 58.8341 25.8871C58.625 25.8871 58.4439 25.9704 58.2907 26.1359C58.1382 26.3018 58.0612 26.5073 58.0612 26.7527C58.0612 27.0018 58.1382 27.2081 58.2907 27.3694C58.4439 27.5311 58.625 27.6125 58.8341 27.6125ZM58.8341 28.0938C58.4565 28.0938 58.1348 27.9652 57.8686 27.7076C57.602 27.4496 57.4688 27.1312 57.4688 26.7527C57.4688 26.3733 57.602 26.0549 57.8686 25.7954C58.1348 25.5363 58.4565 25.4058 58.8341 25.4058C59.216 25.4058 59.5388 25.5363 59.8035 25.7954C60.0678 26.0549 60.2007 26.3733 60.2007 26.7527C60.2007 27.1312 60.0678 27.4496 59.8035 27.7076C59.5388 27.9652 59.216 28.0938 58.8341 28.0938Z" fill="#212224"/>
  <path d="M61.2857 26.7415V28.0312H60.7031V25.4674H61.2642V25.809C61.3335 25.6903 61.4335 25.5925 61.5641 25.5172C61.6939 25.4426 61.8349 25.4046 61.9858 25.4046C62.2918 25.4046 62.5365 25.5081 62.7208 25.715C62.9042 25.9213 62.9961 26.1963 62.9961 26.5414V28.0312H62.409V26.689C62.409 26.4166 62.3646 26.2146 62.2749 26.0837C62.1857 25.9517 62.049 25.8859 61.8628 25.8859C61.7667 25.8859 61.6725 25.9178 61.5817 25.9814C61.4891 26.046 61.4168 26.1355 61.3734 26.2393C61.3148 26.3664 61.2857 26.5334 61.2857 26.7415Z" fill="#212224"/>
  <path d="M64.6247 27.6326C64.7764 27.6326 64.9261 27.5961 65.0736 27.5235C65.221 27.45 65.3271 27.3648 65.393 27.2697V26.8348H64.8725C64.5772 26.8348 64.3715 26.8721 64.2544 26.9474C64.1406 27.0327 64.0843 27.1346 64.0843 27.2545C64.0843 27.3629 64.1326 27.4534 64.2287 27.5257C64.3248 27.5965 64.4566 27.6326 64.6247 27.6326ZM64.7848 26.379H65.393C65.393 26.2113 65.3271 26.0865 65.1973 26.0028C65.0663 25.9191 64.8775 25.8776 64.6305 25.8776H64.6151C64.3815 25.8776 64.1341 25.9313 63.8733 26.0412L63.7231 25.5862C63.9951 25.469 64.2942 25.41 64.6197 25.4058H64.6305C65.0636 25.4058 65.3957 25.4892 65.6282 25.6547C65.8595 25.8202 65.9748 26.0842 65.9748 26.4456V28.0325H65.4187V27.7506C65.3034 27.8628 65.1654 27.9493 65.0138 28.0043C64.8584 28.0633 64.6934 28.0936 64.527 28.0938C64.218 28.0938 63.9679 28.0123 63.7779 27.8503C63.5868 27.6882 63.4922 27.49 63.4922 27.2545C63.4922 26.9912 63.6105 26.7743 63.8472 26.6043C64.0671 26.454 64.3796 26.379 64.7848 26.379Z" fill="#212224"/>
  <path d="M66.6562 24.4653H67.238V28.0332H66.6562V24.4653Z" fill="#212224"/>
  <path d="M70.8099 24.9675V28.0332H70.2067V24.9675H69.1094V24.4653H71.9072V24.9675H70.8099Z" fill="#212224"/>
  <path d="M72.8751 27.6326C73.0268 27.6326 73.175 27.5961 73.3236 27.5235C73.4714 27.45 73.5779 27.3648 73.6426 27.2697V26.8348H73.1225C72.8268 26.8348 72.6212 26.8721 72.504 26.9474C72.3914 27.0327 72.3339 27.1346 72.3339 27.2545C72.3339 27.3629 72.3826 27.4534 72.4787 27.5257C72.5741 27.5965 72.707 27.6326 72.8751 27.6326ZM73.0348 26.379H73.6426C73.6426 26.2113 73.5779 26.0865 73.4465 26.0028C73.3167 25.9191 73.1275 25.8776 72.8801 25.8776H72.8648C72.6307 25.8776 72.3841 25.9313 72.1225 26.0412L71.9731 25.5862C72.2447 25.469 72.5438 25.41 72.8693 25.4058H72.8801C73.3136 25.4058 73.6449 25.4892 73.877 25.6547C74.1095 25.8202 74.2248 26.0842 74.2248 26.4456V28.0325H73.6679V27.7506C73.553 27.8628 73.4152 27.9494 73.2638 28.0043C73.1085 28.0632 72.9437 28.0935 72.7774 28.0938C72.4683 28.0938 72.2183 28.0123 72.0279 27.8503C71.8368 27.6882 71.7422 27.49 71.7422 27.2545C71.7422 26.9912 71.8598 26.7743 72.0972 26.6043C72.3171 26.454 72.6292 26.379 73.0348 26.379Z" fill="#212224"/>
  <path d="M75.2138 28.0312H74.5547L75.5543 26.6894L74.6416 25.4678H75.3011L75.8833 26.2446L76.4616 25.4678H77.1204L76.2142 26.6894L77.2089 28.0312H76.5482L75.8833 27.1357L75.2138 28.0312Z" fill="#212224"/>
  <path d="M78.7422 27.3104L79.1386 26.9105C79.2451 27.1365 79.3795 27.3016 79.5407 27.4074C79.7161 27.5242 79.8927 27.5817 80.0712 27.5817C80.2604 27.5817 80.4216 27.5326 80.5553 27.4329C80.6897 27.3378 80.7568 27.2119 80.7568 27.0544C80.7568 26.9147 80.6882 26.801 80.5526 26.715C80.4139 26.626 80.2664 26.5512 80.1126 26.4917C79.9536 26.4331 79.7897 26.3707 79.6177 26.3026C79.3427 26.2037 79.1462 26.0732 79.0279 25.9134C78.9099 25.7528 78.8494 25.5839 78.8494 25.4058C78.8494 25.1308 78.9685 24.8934 79.2052 24.6971C79.4431 24.5011 79.733 24.403 80.0758 24.403C80.4369 24.403 80.7303 24.4954 80.9574 24.6788C81.0739 24.7686 81.1551 24.8671 81.1991 24.9759L80.8391 25.3549C80.8077 25.2936 80.751 25.224 80.6694 25.146C80.4997 24.9904 80.2761 24.9059 80.0451 24.9101C79.8942 24.9101 79.761 24.9512 79.6464 25.0353C79.5918 25.0724 79.5474 25.1225 79.5173 25.181C79.4871 25.2396 79.4723 25.3047 79.4741 25.3705C79.4741 25.5824 79.707 25.7692 80.1742 25.9335C80.2604 25.9609 80.3496 25.9914 80.4415 26.0256C80.7541 26.1451 80.9892 26.2866 81.1455 26.4483C81.3021 26.61 81.3799 26.8112 81.3799 27.0494C81.3799 27.3321 81.2573 27.576 81.0149 27.7806C80.7736 27.9895 80.463 28.0938 80.0811 28.0938C79.7315 28.0938 79.4408 28.015 79.2114 27.8579C78.9877 27.7045 78.8307 27.5215 78.7422 27.3104Z" fill="#212224"/>
  <path d="M82.3443 26.548H83.7767C83.7698 26.3806 83.6989 26.2284 83.5653 26.0895C83.4316 25.9522 83.2615 25.8822 83.0555 25.8822C82.8425 25.8822 82.6664 25.9575 82.5296 26.1074C82.4301 26.2208 82.3684 26.3676 82.3443 26.548ZM82.3542 27.0087C82.3891 27.1654 82.463 27.294 82.576 27.393C82.7407 27.5429 82.9594 27.6182 83.2305 27.6182C83.5162 27.6182 83.7813 27.5136 84.0283 27.3055L84.2041 27.7354C83.9257 27.9743 83.5967 28.0938 83.2152 28.0938C82.779 28.0938 82.4247 27.9709 82.1508 27.7255C81.8778 27.4805 81.7422 27.1575 81.7422 26.7587C81.7422 26.3657 81.8624 26.0427 82.1045 25.7886C82.3469 25.5344 82.6637 25.4062 83.0555 25.4062C83.44 25.4062 83.7552 25.5329 84 25.7852C84.2458 26.0385 84.3688 26.3498 84.3688 26.7222C84.3688 26.8249 84.3611 26.9204 84.3435 27.0087H82.3542Z" fill="#212224"/>
  <path d="M84.8672 28.0312V25.4678H85.4179V25.8509C85.5033 25.7246 85.6087 25.6275 85.7328 25.5587C85.8798 25.4704 86.0537 25.4259 86.2529 25.4259H86.2946V25.9483H86.2318C85.9882 25.9483 85.794 26.0217 85.65 26.1682C85.516 26.3112 85.449 26.5345 85.449 26.8381V28.0312H84.8672Z" fill="#212224"/>
  <path d="M87.8058 27.545L88.4971 25.4678H89.1053L88.2087 28.0312H87.404L86.5078 25.4678H87.1156L87.8058 27.545Z" fill="#212224"/>
  <path d="M89.4635 25.4693H90.0502V28.0332H89.4635V25.4693ZM90.128 24.7468C90.1284 24.7951 90.1187 24.8429 90.0997 24.8873C90.0806 24.9317 90.0526 24.9717 90.0173 25.0048C89.9832 25.0404 89.942 25.0686 89.8964 25.0877C89.8508 25.1069 89.8018 25.1164 89.7523 25.1159C89.7026 25.1166 89.6534 25.1071 89.6076 25.088C89.5619 25.0689 89.5206 25.0405 89.4865 25.0048C89.4511 24.9717 89.4229 24.9317 89.4037 24.8873C89.3845 24.843 89.3748 24.7951 89.375 24.7468C89.375 24.6445 89.4125 24.557 89.4865 24.4832C89.5207 24.4476 89.562 24.4195 89.6078 24.4005C89.6535 24.3815 89.7027 24.3721 89.7523 24.3729C89.8017 24.3723 89.8507 24.3817 89.8963 24.4007C89.9419 24.4197 89.9831 24.4478 90.0173 24.4832C90.0529 24.5173 90.081 24.5583 90.1001 24.6037C90.1191 24.649 90.1286 24.6977 90.128 24.7468Z" fill="#212224"/>
  <path d="M90.5859 26.753C90.5859 26.3836 90.7253 26.067 91.0057 25.8038C91.2849 25.539 91.6407 25.4062 92.0697 25.4062C92.4059 25.4062 92.7215 25.5142 93.018 25.7292L92.8272 26.1842C92.5691 25.9868 92.3171 25.8875 92.0697 25.8875C91.805 25.8875 91.5898 25.9712 91.4251 26.1389C91.2604 26.3056 91.1784 26.5106 91.1784 26.753C91.1784 26.995 91.2604 27.1993 91.4251 27.3644C91.5898 27.5303 91.805 27.6128 92.0697 27.6128C92.3194 27.6128 92.5756 27.5154 92.8372 27.321L93.0275 27.776C92.7526 27.9846 92.4156 28.0964 92.0697 28.0937C91.6407 28.0937 91.2849 27.9628 91.0057 27.6996C90.7253 27.4378 90.5859 27.1213 90.5859 26.753Z" fill="#212224"/>
  <path d="M93.97 26.548H95.4024C95.3963 26.3806 95.3255 26.2284 95.191 26.0895C95.0581 25.9522 94.8877 25.8822 94.6816 25.8822C94.4691 25.8822 94.294 25.9575 94.1562 26.1074C94.057 26.2208 93.9945 26.3676 93.97 26.548ZM93.98 27.0087C94.0152 27.1654 94.0891 27.294 94.2017 27.393C94.3672 27.5429 94.5851 27.6182 94.8567 27.6182C95.1424 27.6182 95.4078 27.5136 95.6552 27.3055L95.8299 27.7354C95.5522 27.9743 95.2228 28.0938 94.8413 28.0938C94.4043 28.0938 94.0505 27.9709 93.7774 27.7255C93.5035 27.4805 93.3672 27.1575 93.3672 26.7587C93.3672 26.3657 93.489 26.0427 93.7303 25.7886C93.9727 25.5344 94.2891 25.4062 94.6816 25.4062C95.0662 25.4062 95.3814 25.5329 95.6273 25.7852C95.8728 26.0385 95.9953 26.3498 95.9953 26.7222C95.9953 26.8249 95.9869 26.9204 95.97 27.0087H93.98Z" fill="#212224"/>
  <path d="M60.7795 4.48653V8.96561H58.8986V6.13884H49.1187V4.48653H60.7795ZM60.7795 14.0013V19.2363H58.8986V15.6331H48.9479V14.0013H54.0173V11.792H48V10.1618H61.899V11.792H55.8805V14.0013H60.7795Z" fill="#212224"/>
  <path d="M77.0609 4.18511H78.8744V19.2031H77.0609V4.18511ZM73.8916 4.20147H75.6358V19.1206H73.8916V11.3574H72.0107V9.67429H73.8916V4.20147ZM68.8058 4.28479L73.0268 16.5099L71.4504 17.1487L68.8058 9.43841L66.1957 17.2651L64.5859 16.629L68.8058 4.28479Z" fill="#212224"/>
  <path d="M94.091 12.1796V9.32051H91.4472V7.71728H94.091V4.18439H95.9731V12.1796H94.091ZM92.8378 15.986C92.8378 15.4249 92.6322 14.9425 92.2185 14.5399C91.8064 14.1363 91.3108 13.9324 90.736 13.9324C90.171 13.9324 89.6846 14.1363 89.2783 14.5399C88.8723 14.9425 88.6678 15.4249 88.6678 15.986C88.6678 16.5605 88.8723 17.0449 89.2783 17.4405C89.6846 17.8385 90.171 18.0386 90.736 18.0386C91.3108 18.0386 91.8064 17.8385 92.2185 17.4405C92.6322 17.0449 92.8378 16.5605 92.8378 15.986ZM94.6843 16.0024C94.6876 16.493 94.5813 16.9782 94.3729 17.423C94.1672 17.8612 93.8821 18.258 93.5318 18.5937C93.172 18.9375 92.7492 19.2098 92.2863 19.3957C91.7995 19.5927 91.2784 19.6925 90.7528 19.6894C90.2212 19.6894 89.7134 19.5912 89.2269 19.3957C88.7402 19.199 88.3231 18.9308 87.973 18.5937C87.6229 18.2585 87.3386 17.8615 87.1346 17.423C86.924 16.9789 86.8166 16.4934 86.8206 16.0024C86.8206 15.4991 86.9244 15.0246 87.1346 14.5837C87.3384 14.1439 87.6227 13.7455 87.973 13.4089C88.3231 13.0741 88.7402 12.8066 89.2269 12.611C89.7134 12.4109 90.2212 12.3139 90.7528 12.3139C91.2955 12.3139 91.8064 12.4109 92.2863 12.611C92.7488 12.7959 93.1715 13.0667 93.5318 13.4089C93.8823 13.746 94.1674 14.1442 94.3729 14.5837C94.5809 15.028 94.6872 15.5125 94.6843 16.0024ZM82.6172 6.99441V5.43037H86.1591V3.99949H88.1595V5.43037H91.5326V6.99441H87.8531L91.6682 10.8351L90.4472 11.9784L87.1584 8.57672L83.9048 12.2466L82.6509 11.0873L86.4812 6.99441H82.6172Z" fill="#212224"/>
</svg>