<svg xmlns="http://www.w3.org/2000/svg" width="154" height="41" viewBox="0 0 154 41" fill="none">
  <g clip-path="url(#clip0_6477_38234)">
    <path d="M60.5149 13.1301V17.7419H58.6435V14.8326H48.952V13.1301H60.5149ZM60.5149 22.9249V28.3125H58.6435V24.595H48.7847V22.9249H53.803V20.6513H47.8438V18.9703H61.6232V20.6513H55.6535V22.9249H60.5149Z" fill="#212224"/>
    <path d="M74.8281 12.8125H76.6891V22.7042H74.8282L74.8281 12.8125ZM69.9876 14.9352H65.952V19.5578H69.9876L69.9876 14.9352ZM64.5407 27.9625V22.8012H66.3912V26.2601H76.825V27.9624L64.5407 27.9625ZM64.1016 13.2651H71.8171V21.1956H64.1016V13.2651Z" fill="#212224"/>
    <path d="M90.3379 18.5365H88.1529V16.9633H90.3379V12.8148H92.1884V23.8164H90.3379V18.5365ZM81.88 22.8358V26.2947H92.5857V27.9648H80.0191V22.8358H81.88ZM85.5496 19.0968V14.9375H79.9981V13.235H87.4106V19.0968H85.5496ZM85.006 21.4781V23.6439H83.1555V21.4781H79.0781V19.8834H89.0729V21.4781H85.006Z" fill="#212224"/>
    <path d="M105.792 12.8125H107.653V21.0447H105.792V12.8125ZM100.784 16.9394C100.784 16.3251 100.575 15.808 100.157 15.377C99.7382 14.9458 99.2366 14.7198 98.6511 14.7198C98.0652 14.7198 97.5638 14.9458 97.1352 15.377C96.7062 15.8082 96.4976 16.3252 96.4976 16.9394C96.4976 17.5433 96.7067 18.06 97.1352 18.491C97.5642 18.9222 98.0656 19.1378 98.6511 19.1378C99.237 19.1378 99.7384 18.9222 100.157 18.491C100.575 18.0598 100.784 17.5428 100.784 16.9394ZM95.6717 22.0577H107.663V28.1349H105.792V23.7709H95.6717V22.0577ZM102.603 16.9394C102.603 17.4784 102.499 17.9738 102.28 18.4371C102.071 18.9116 101.788 19.3099 101.423 19.644C101.061 20.0074 100.635 20.2963 100.168 20.4952C99.6977 20.6998 99.1853 20.8076 98.6312 20.8076C98.0876 20.8076 97.5753 20.7004 97.0944 20.4952C96.624 20.2906 96.2057 20 95.8398 19.644C95.4846 19.3108 95.2022 18.911 94.9929 18.4371C94.7838 17.9742 94.6797 17.4781 94.6797 16.9394C94.6797 16.4004 94.7838 15.8942 94.9929 15.42C95.2022 14.9571 95.4841 14.5473 95.8398 14.2025C96.2056 13.8468 96.6239 13.5667 97.0944 13.3512C97.5748 13.1466 98.0875 13.0387 98.6312 13.0387C99.1855 13.0387 99.6976 13.146 100.168 13.3512C100.649 13.5668 101.067 13.8464 101.423 14.2025C101.789 14.5477 102.071 14.9565 102.28 15.42C102.499 15.8945 102.603 16.4007 102.603 16.9395M120.972 12.8125H122.823V28.2643H120.972V12.8125ZM116.916 17.0148C116.916 16.3902 116.707 15.8619 116.267 15.42C115.828 14.9779 115.306 14.7629 114.699 14.7629C114.093 14.7629 113.581 14.9785 113.141 15.42C112.712 15.8622 112.504 16.3898 112.504 17.0149C112.504 17.6188 112.713 18.157 113.141 18.5988C113.58 19.041 114.093 19.2671 114.699 19.2671C115.305 19.2671 115.828 19.0411 116.267 18.5988C116.707 18.1567 116.916 17.6182 116.916 17.0148ZM118.704 17.0148C118.704 17.5429 118.6 18.0493 118.39 18.5233C118.181 18.9978 117.898 19.4069 117.523 19.7517C117.156 20.1075 116.728 20.3875 116.247 20.5922C115.767 20.8078 115.254 20.9046 114.7 20.9046C114.156 20.9046 113.633 20.8078 113.152 20.5922C112.672 20.3881 112.243 20.1073 111.877 19.7517C111.511 19.4064 111.219 18.9978 110.999 18.5234C110.79 18.0489 110.686 17.5428 110.686 17.0148C110.686 16.4758 110.79 15.9804 110.999 15.5062C111.218 15.0317 111.511 14.6119 111.877 14.2563C112.248 13.8949 112.681 13.6065 113.153 13.4051C113.633 13.2005 114.156 13.0927 114.7 13.0927C115.254 13.0927 115.766 13.1999 116.247 13.4051C116.719 13.6062 117.151 13.8947 117.523 14.2563C117.899 14.612 118.181 15.0322 118.39 15.5062C118.6 15.9806 118.704 16.476 118.704 17.0148ZM109.807 23.5985V21.896H119.843V23.5985H115.64V27.7686H113.811V23.5985H109.807Z" fill="#212224"/>
    <path d="M136.705 18.7784H134.572V17.2052H136.705V12.8197H138.556V23.9721H136.705V18.7784ZM132.147 16.1062C132.15 15.8595 132.105 15.6146 132.013 15.3867C131.921 15.1588 131.785 14.9526 131.614 14.7808C131.44 14.6057 131.233 14.4679 131.007 14.3755C130.781 14.283 130.54 14.2376 130.296 14.242C130.047 14.2225 129.796 14.2563 129.559 14.3414C129.323 14.4265 129.106 14.561 128.922 14.7365C128.738 14.912 128.592 15.1247 128.491 15.3613C128.391 15.598 128.339 15.8534 128.339 16.1115C128.339 16.3697 128.391 16.6251 128.491 16.8617C128.592 17.0984 128.738 17.3111 128.922 17.4866C129.106 17.6621 129.323 17.7966 129.559 17.8817C129.796 17.9668 130.047 18.0006 130.296 17.9811C130.819 17.9811 131.248 17.7979 131.614 17.4315C131.787 17.2613 131.925 17.0554 132.017 16.8271C132.108 16.5988 132.153 16.3532 132.147 16.1062ZM133.914 16.0954C133.918 16.5581 133.817 17.0154 133.621 17.4315C133.321 18.0773 132.85 18.6218 132.261 19.0015C131.672 19.3812 130.991 19.5804 130.296 19.5758C129.353 19.5665 128.446 19.2024 127.745 18.5522C127.43 18.227 127.172 17.8478 126.982 17.4315C126.786 17.0154 126.686 16.5581 126.689 16.0954C126.689 15.6213 126.784 15.1795 126.982 14.7592C127.174 14.3477 127.432 13.9725 127.745 13.6494C128.438 12.9856 129.351 12.6195 130.296 12.6257C130.775 12.6256 131.25 12.7169 131.697 12.8951C132.121 13.0675 132.508 13.3237 132.837 13.6494C133.159 13.969 133.425 14.3447 133.621 14.7592C133.817 15.1753 133.918 15.6327 133.914 16.0954ZM128.247 23.0778V26.2996H138.953V27.959H126.386V23.0778H128.247ZM131.373 21.7201V23.7997H129.523V21.7201H125.445V20.1253H135.44V21.7201H131.373Z" fill="#212224"/>
    <path d="M152.147 12.8138H153.998V28.2656H152.147V12.8138ZM147.683 19.7315C147.683 19.2254 147.495 18.7832 147.14 18.4277C146.784 18.0616 146.345 17.8783 145.833 17.8783C145.31 17.8783 144.881 18.0616 144.515 18.4277C144.16 18.7834 143.982 19.2253 143.982 19.7315C143.982 20.2388 144.16 20.6797 144.515 21.046C144.882 21.4236 145.31 21.6064 145.833 21.6064C146.345 21.6064 146.784 21.4231 147.14 21.046C147.495 20.68 147.683 20.2378 147.683 19.7315ZM144.808 14.3655V12.7168H146.826V14.3654H150.464V16.0032H141.159V14.3654L144.808 14.3655ZM150.82 26.7354H140.992V25.0544H144.934V23.1257C144.756 23.0854 144.589 23.0289 144.431 22.9534C143.982 22.77 143.595 22.5221 143.26 22.2099C142.925 21.887 142.654 21.5092 142.466 21.0893C142.278 20.6684 142.183 20.2273 142.183 19.7531C142.183 19.2786 142.277 18.8372 142.466 18.4169C142.654 17.9961 142.926 17.6306 143.26 17.3072C143.595 16.9843 143.982 16.7359 144.421 16.5532C144.87 16.3698 145.341 16.284 145.843 16.284C146.355 16.284 146.825 16.3704 147.254 16.5532C147.693 16.7364 148.08 16.9843 148.404 17.3072C148.733 17.623 149.003 17.9994 149.199 18.4169C149.397 18.8366 149.491 19.2791 149.491 19.7531C149.491 20.2275 149.397 20.669 149.199 21.0893C149 21.509 148.738 21.8869 148.404 22.2099C148.08 22.5223 147.693 22.7702 147.254 22.9534C147.077 23.0389 146.891 23.1039 146.7 23.147V25.0543H150.819L150.82 26.7354Z" fill="#212224"/>
    <path d="M39.7778 20.5054C39.7778 25.9409 37.6828 31.1538 33.9536 34.9973C30.2245 38.8408 25.1666 41 19.8928 41C14.619 41 9.56115 38.8408 5.83199 34.9973C2.10283 31.1538 0.0078125 25.9409 0.0078125 20.5054C0.0078125 15.0699 2.10283 9.857 5.83199 6.01351C9.56115 2.17002 14.619 0.0107765 19.8928 0.0107765C25.1666 0.0107765 30.2245 2.17002 33.9536 6.01351C37.6828 9.857 39.7778 15.0699 39.7778 20.5054Z" fill="white"/>
    <path d="M29.2457 19.073C28.5114 18.5482 27.681 18.1831 26.8052 18C25.9294 17.817 25.0266 17.8198 24.1519 18.0084C23.2772 18.197 22.449 18.5673 21.7178 19.0968C20.9866 19.6263 20.3678 20.3038 19.8991 21.088C19.3095 22.04 18.4988 22.8253 17.5404 23.3728C16.582 23.9204 15.5061 24.2128 14.4104 24.2236C12.9614 24.2259 11.5517 23.738 10.3978 22.8348C9.24382 21.9316 8.40936 20.6631 8.02251 19.2239L8.0016 19.1592L7.98069 19.073C7.7316 18.199 7.61868 17.2897 7.64614 16.3792C7.64614 10.3127 13.689 3.55658 22.3874 3.55658C31.3053 3.55658 36.3968 10.5497 37.7141 14.4396L37.6514 14.2349C36.1999 9.91761 33.3132 6.26885 29.5022 3.93458C25.6912 1.6003 21.2017 0.731075 16.8286 1.48077C12.4555 2.23046 8.48075 4.55072 5.60809 8.03079C2.73543 11.5109 1.15013 15.9263 1.13281 20.4953C1.13281 30.0423 7.81342 38.2207 17.0764 38.2207C24.4679 38.2207 29.4339 33.9537 31.713 28.0704C32.9676 24.8486 32.079 21.0664 29.2457 19.073Z" fill="#0C426E"/>
    <path d="M37.8314 14.8134C36.7336 11.0204 31.6003 3.55317 22.3897 3.55317C13.6913 3.55317 7.64844 10.3093 7.64844 16.3758C7.64844 17.5072 7.71117 18.0136 7.98299 19.0696C7.87148 18.6189 7.81528 18.1555 7.81571 17.6904C7.81571 11.3653 13.9527 6.99049 20.2674 6.99049C24.3693 6.99334 28.3022 8.67478 31.2017 11.6652C34.1012 14.6556 35.73 18.7103 35.73 22.9379C35.73 29.8449 31.8826 35.8144 26.2789 38.6914C30.8111 37.0017 34.5389 33.5796 36.6896 29.1342C38.8404 24.6888 39.2492 19.561 37.8314 14.8134Z" fill="#E6223A"/>
  </g>
  <defs>
    <clipPath id="clip0_6477_38234">
      <rect width="154" height="41" fill="white"/>
    </clipPath>
  </defs>
</svg>