<svg xmlns="http://www.w3.org/2000/svg" width="40" height="41" viewBox="0 0 40 41" fill="none">
  <path d="M24.001 7.95898C24.001 7.4067 23.5533 6.95898 23.001 6.95898H21.001C20.4487 6.95898 20.001 7.4067 20.001 7.95898V9.95898C20.001 10.5113 20.4487 10.959 21.001 10.959H24.001V7.95898Z" fill="black"/>
  <path d="M28.001 14.959V11.959C28.001 11.4067 27.5533 10.959 27.001 10.959H24.001V13.959C24.001 14.5113 24.4487 14.959 25.001 14.959H28.001Z" fill="black"/>
  <path d="M27.001 18.959C27.5533 18.959 28.001 18.5113 28.001 17.959V14.959H31.001C31.5533 14.959 32.001 15.4067 32.001 15.959V17.959C32.001 18.5113 32.4487 18.959 33.001 18.959H35.001C35.5533 18.959 36.001 19.4067 36.001 19.959V21.959C36.001 22.5113 35.5533 22.959 35.001 22.959H33.001C32.4487 22.959 32.001 23.4067 32.001 23.959V25.959C32.001 26.5113 31.5533 26.959 31.001 26.959H28.001V29.959C28.001 30.5113 27.5533 30.959 27.001 30.959H24.001V33.959C24.001 34.5113 23.5533 34.959 23.001 34.959H21.001C20.4487 34.959 20.001 34.5113 20.001 33.959V31.959C20.001 31.4067 20.4487 30.959 21.001 30.959H24.001V27.959C24.001 27.4067 24.4487 26.959 25.001 26.959H28.001V23.959C28.001 23.4067 27.5533 22.959 27.001 22.959H5.00098C4.44869 22.959 4.00098 22.5113 4.00098 21.959V19.959C4.00098 19.4067 4.44869 18.959 5.00098 18.959H27.001Z" fill="black"/>
</svg>