<svg xmlns="http://www.w3.org/2000/svg" width="40" height="40" viewBox="0 0 40 40" fill="none">
  <path d="M24.001 6.99902C24.001 6.44674 23.5533 5.99902 23.001 5.99902H21.001C20.4487 5.99902 20.001 6.44674 20.001 6.99902V8.99902C20.001 9.55131 20.4487 9.99902 21.001 9.99902H24.001V6.99902Z" fill="current"/>
  <path d="M28.001 13.999V10.999C28.001 10.4467 27.5533 9.99902 27.001 9.99902H24.001V12.999C24.001 13.5513 24.4487 13.999 25.001 13.999H28.001Z" fill="current"/>
  <path d="M27.001 17.999C27.5533 17.999 28.001 17.5513 28.001 16.999V13.999H31.001C31.5533 13.999 32.001 14.4467 32.001 14.999V16.999C32.001 17.5513 32.4487 17.999 33.001 17.999H35.001C35.5533 17.999 36.001 18.4467 36.001 18.999V20.999C36.001 21.5513 35.5533 21.999 35.001 21.999H33.001C32.4487 21.999 32.001 22.4467 32.001 22.999V24.999C32.001 25.5513 31.5533 25.999 31.001 25.999H28.001V28.999C28.001 29.5513 27.5533 29.999 27.001 29.999H24.001V32.999C24.001 33.5513 23.5533 33.999 23.001 33.999H21.001C20.4487 33.999 20.001 33.5513 20.001 32.999V30.999C20.001 30.4467 20.4487 29.999 21.001 29.999H24.001V26.999C24.001 26.4467 24.4487 25.999 25.001 25.999H28.001V22.999C28.001 22.4467 27.5533 21.999 27.001 21.999H5.00098C4.44869 21.999 4.00098 21.5513 4.00098 20.999V18.999C4.00098 18.4467 4.44869 17.999 5.00098 17.999H27.001Z" fill="current"/>
</svg>