<svg width="48" height="33" viewBox="0 0 48 33" fill="none" xmlns="http://www.w3.org/2000/svg">
<g id="Pixelgraphic_Longrightarrow_s">
<g id="Union">
<path d="M34.4 6.2668C34.4 5.82497 34.0418 5.4668 33.6 5.4668H32C31.5582 5.4668 31.2 5.82497 31.2 6.2668V7.8668C31.2 8.30862 31.5582 8.6668 32 8.6668H34.4V6.2668Z" fill="white"/>
<path d="M37.6 11.8668V9.4668C37.6 9.02497 37.2418 8.6668 36.8 8.6668H34.4V11.0668C34.4 11.5086 34.7582 11.8668 35.2 11.8668H37.6Z" fill="white"/>
<path d="M36.8 15.0668C37.2418 15.0668 37.6 14.7086 37.6 14.2668V11.8668H40C40.4418 11.8668 40.8 12.225 40.8 12.6668V14.2668C40.8 14.7086 41.1582 15.0668 41.6 15.0668H43.2C43.6418 15.0668 44 15.425 44 15.8668V17.4668C44 17.9086 43.6418 18.2668 43.2 18.2668H41.6C41.1582 18.2668 40.8 18.625 40.8 19.0668V20.6668C40.8 21.1086 40.4418 21.4668 40 21.4668H37.6V23.8668C37.6 24.3086 37.2418 24.6668 36.8 24.6668H34.4V27.0668C34.4 27.5086 34.0418 27.8668 33.6 27.8668H32C31.5582 27.8668 31.2 27.5086 31.2 27.0668V25.4668C31.2 25.025 31.5582 24.6668 32 24.6668H34.4V22.2668C34.4 21.825 34.7582 21.4668 35.2 21.4668H37.6V19.0668C37.6 18.625 37.2418 18.2668 36.8 18.2668H4.79922C4.35739 18.2668 3.99922 17.9086 3.99922 17.4668V15.8668C3.99922 15.425 4.35739 15.0668 4.79922 15.0668H36.8Z" fill="white"/>
</g>
</g>
</svg>
