<svg width="48" height="49" viewBox="0 0 48 49" fill="none" xmlns="http://www.w3.org/2000/svg">
<path d="M9 2.5C9 1.39543 9.89543 0.5 11 0.5H37C38.1046 0.5 39 1.39543 39 2.5V6.5H9V2.5Z" fill="#FF7710"/>
<path d="M21 21.5V33.5C21 34.3284 20.3284 35 19.5 35H11C9.89543 35 9 34.1046 9 33V32C9 31.1716 8.32843 30.5 7.5 30.5C6.67157 30.5 6 29.8284 6 29V14C6 13.1716 6.67157 12.5 7.5 12.5C8.32843 12.5 9 11.8284 9 11V6.5H5C3.89543 6.5 3 7.39543 3 8.5V11C3 11.8284 2.32843 12.5 1.5 12.5C0.671573 12.5 0 13.1716 0 14V29C0 29.8284 0.671573 30.5 1.5 30.5C2.32843 30.5 3 31.1716 3 32V34.5C3 35.6046 3.89543 36.5 5 36.5H7C8.10457 36.5 9 37.3954 9 38.5V39C9 40.1046 9.89543 41 11 41H37C38.1046 41 39 40.1046 39 39V38.5C39 37.3954 39.8954 36.5 41 36.5H43C44.1046 36.5 45 35.6046 45 34.5V32C45 31.1716 45.6716 30.5 46.5 30.5C47.3284 30.5 48 29.8284 48 29V14C48 13.1716 47.3284 12.5 46.5 12.5C45.6716 12.5 45 11.8284 45 11V8.5C45 7.39543 44.1046 6.5 43 6.5H39V11C39 11.8284 39.6716 12.5 40.5 12.5C41.3284 12.5 42 13.1716 42 14V29C42 29.8284 41.3284 30.5 40.5 30.5C39.6716 30.5 39 31.1716 39 32V33C39 34.1046 38.1046 35 37 35H28.5C27.6716 35 27 34.3284 27 33.5V21.5H31C32.1046 21.5 33 20.6046 33 19.5V17.5C33 16.3954 32.1046 15.5 31 15.5H29C27.8954 15.5 27 16.3954 27 17.5V21.5H21Z" fill="#FF7710"/>
<path d="M21 21.5H17C15.8954 21.5 15 20.6046 15 19.5V17.5C15 16.3954 15.8954 15.5 17 15.5H19C20.1046 15.5 21 16.3954 21 17.5V21.5Z" fill="#FF7710"/>
<path d="M15 42.5C13.8954 42.5 13 43.3954 13 44.5V46.5C13 47.6046 13.8954 48.5 15 48.5H34C35.1046 48.5 36 47.6046 36 46.5V44.5C36 43.3954 35.1046 42.5 34 42.5H15Z" fill="#FF7710"/>
</svg>
