<svg width="48" height="49" viewBox="0 0 48 49" fill="none" xmlns="http://www.w3.org/2000/svg">
<g id="Graphic/Pixel/48/Bulb">
<path id="Union" fill-rule="evenodd" clip-rule="evenodd" d="M1.5 24.5C0.671572 24.5 -1.07843e-06 23.8284 -1.11464e-06 23L-1.24577e-06 20C-1.28199e-06 19.1716 0.671572 18.5 1.5 18.5C2.32843 18.5 3 17.8284 3 17L3 15.5C3 14.3954 3.89543 13.5 5 13.5L7 13.5C8.10457 13.5 9 14.3954 9 15.5L9 17C9 17.8284 9.67157 18.5 10.5 18.5C11.3284 18.5 12 19.1716 12 20L12 23C12 23.8284 11.3284 24.5 10.5 24.5C9.67157 24.5 9 25.1716 9 26L9 27.5C9 28.6046 8.10457 29.5 7 29.5L5 29.5C3.89543 29.5 3 28.6046 3 27.5L3 26C3 25.1716 2.32843 24.5 1.5 24.5ZM8 33.5C6.89543 33.5 6 34.3954 6 35.5L6 36.5L6 39.5L6 41C6 41.8284 6.67157 42.5 7.5 42.5C8.32843 42.5 9 43.1716 9 44L9 46.5C9 47.6046 9.89543 48.5 11 48.5L15 48.5L19.5 48.5C20.3284 48.5 21 47.8284 21 47C21 46.1716 21.6716 45.5 22.5 45.5L25.5 45.5C26.3284 45.5 27 46.1716 27 47C27 47.8284 27.6716 48.5 28.5 48.5L33 48.5L37 48.5C38.1046 48.5 39 47.6046 39 46.5L39 44C39 43.1716 39.6716 42.5 40.5 42.5C41.3284 42.5 42 41.8284 42 41L42 39.5L42 36.5L42 35.5C42 34.3954 41.1046 33.5 40 33.5L36 33.5L36 29.5C36 28.3954 35.1046 27.5 34 27.5L30 27.5L30 23.5C30 22.3954 29.1046 21.5 28 21.5L24 21.5L20 21.5C18.8954 21.5 18 22.3954 18 23.5L18 27.5L14 27.5C12.8954 27.5 12 28.3954 12 29.5L12 33.5L8 33.5ZM12 33.5L16 33.5C17.1046 33.5 18 32.6046 18 31.5L18 27.5L24 27.5L30 27.5L30 31.5C30 32.6046 30.8954 33.5 32 33.5L36 33.5L36 36.5L36 39.5L36 40.5C36 41.6046 35.1046 42.5 34 42.5L33 42.5L28.5 42.5C27.6716 42.5 27 41.8284 27 41C27 40.1716 26.3284 39.5 25.5 39.5L22.5 39.5C21.6716 39.5 21 40.1716 21 41C21 41.8284 20.3284 42.5 19.5 42.5L15 42.5L14 42.5C12.8954 42.5 12 41.6046 12 40.5L12 39.5L12 36.5L12 33.5ZM21.5 11.5C20.6716 11.5 20 12.1716 20 13L20 14.5C20 15.6046 19.1046 16.5 18 16.5L16 16.5C14.8954 16.5 14 15.6046 14 14.5L14 13C14 12.1716 13.3284 11.5 12.5 11.5C11.6716 11.5 11 10.8284 11 10L11 7C11 6.17157 11.6716 5.5 12.5 5.5C13.3284 5.5 14 4.82843 14 4L14 2.5C14 1.39543 14.8954 0.499999 16 0.499999L18 0.499999C19.1046 0.499999 20 1.39543 20 2.5L20 4C20 4.82843 20.6716 5.5 21.5 5.5C22.3284 5.5 23 6.17157 23 7L23 10C23 10.8284 22.3284 11.5 21.5 11.5ZM35.5 11.5C34.6716 11.5 34 12.1716 34 13L34 14.5C34 15.6046 33.1046 16.5 32 16.5L30 16.5C28.8954 16.5 28 15.6046 28 14.5L28 13C28 12.1716 27.3284 11.5 26.5 11.5C25.6716 11.5 25 10.8284 25 10L25 7C25 6.17157 25.6716 5.5 26.5 5.5C27.3284 5.5 28 4.82843 28 4L28 2.5C28 1.39543 28.8954 0.499999 30 0.499999L32 0.499999C33.1046 0.499999 34 1.39543 34 2.5L34 4C34 4.82842 34.6716 5.5 35.5 5.5C36.3284 5.5 37 6.17157 37 7L37 10C37 10.8284 36.3284 11.5 35.5 11.5ZM41 29.5C39.8954 29.5 39 28.6046 39 27.5L39 26C39 25.1716 38.3284 24.5 37.5 24.5C36.6716 24.5 36 23.8284 36 23L36 20C36 19.1716 36.6716 18.5 37.5 18.5C38.3284 18.5 39 17.8284 39 17L39 15.5C39 14.3954 39.8954 13.5 41 13.5L43 13.5C44.1046 13.5 45 14.3954 45 15.5L45 17C45 17.8284 45.6716 18.5 46.5 18.5C47.3284 18.5 48 19.1716 48 20L48 23C48 23.8284 47.3284 24.5 46.5 24.5C45.6716 24.5 45 25.1716 45 26L45 27.5C45 28.6046 44.1046 29.5 43 29.5L41 29.5Z" fill="#FF7710"/>
</g>
</svg>
