<svg width="49" height="48" viewBox="0 0 49 48" fill="none" xmlns="http://www.w3.org/2000/svg">
<path d="M12.5 2C12.5 0.895431 11.6046 0 10.5 0H8.5C7.39543 0 6.5 0.89543 6.5 2V4C6.5 5.10457 5.60457 6 4.5 6H2.5C1.39543 6 0.5 6.89543 0.5 8V10C0.5 11.1046 1.39543 12 2.5 12H4.5C5.60457 12 6.5 12.8954 6.5 14V25C6.5 26.1046 5.60457 27 4.5 27H2.5C1.39543 27 0.5 27.8954 0.5 29V31C0.5 32.1046 1.39543 33 2.5 33H16.5C17.6046 33 18.5 32.1046 18.5 31V29C18.5 27.8954 17.6046 27 16.5 27H14.5C13.3954 27 12.5 26.1046 12.5 25V2Z" fill="#FF7710"/>
<path d="M19 36C17.8954 36 17 36.8954 17 38V40C17 41.1046 16.1046 42 15 42H13C11.8954 42 11 42.8954 11 44V46C11 47.1046 11.8954 48 13 48H33C34.1046 48 35 47.1046 35 46V44C35 42.8954 34.1046 42 33 42H25C23.8954 42 23 41.1046 23 40V36H27C28.1046 36 29 35.1046 29 34V30H33C34.1046 30 35 29.1046 35 28V21.5C35 20.3954 34.1046 19.5 33 19.5H29V15.5C29 14.3954 28.1046 13.5 27 13.5H22C20.8954 13.5 20 14.3954 20 15.5V19.5H16C14.8954 19.5 14 20.3954 14 21.5V23.5C14 24.6046 14.8954 25.5 16 25.5H18C19.1046 25.5 20 24.6046 20 23.5V19.5H29V30H25C23.8954 30 23 30.8954 23 32V36H19Z" fill="#FF7710"/>
<path d="M33.5 36.5C33.5 35.3954 34.3954 34.5 35.5 34.5H40.5C41.6046 34.5 42.5 33.6046 42.5 32.5V24.5C42.5 23.3954 41.6046 22.5 40.5 22.5H40C38.8954 22.5 38 21.6046 38 20.5V18.5C38 17.3954 38.8954 16.5 40 16.5H40.5C41.6046 16.5 42.5 15.6046 42.5 14.5V8C42.5 6.89543 41.6046 6 40.5 6H32V2C32 0.895431 32.8954 0 34 0H42C43.1046 0 44 0.89543 44 2V4C44 5.10457 44.8954 6 46 6H46.5C47.6046 6 48.5 6.89543 48.5 8V14.5C48.5 15.6046 47.6046 16.5 46.5 16.5H46C44.8954 16.5 44 17.3954 44 18.5V20.5C44 21.6046 44.8954 22.5 46 22.5H46.5C47.6046 22.5 48.5 23.3954 48.5 24.5V33C48.5 33.8284 47.8284 34.5 47 34.5C46.1716 34.5 45.5 35.1716 45.5 36V38.5C45.5 39.6046 44.6046 40.5 43.5 40.5H35.5C34.3954 40.5 33.5 39.6046 33.5 38.5V36.5Z" fill="#FF7710"/>
<path d="M32 6V10C32 11.1046 31.1046 12 30 12H28C26.8954 12 26 11.1046 26 10V8C26 6.89543 26.8954 6 28 6H32Z" fill="#FF7710"/>
</svg>
