<svg width="33" height="33" viewBox="0 0 33 33" fill="none" xmlns="http://www.w3.org/2000/svg">
<path d="M18.1704 1.83333C18.1704 1.09695 17.5735 0.5 16.8371 0.5H15.5037C14.7674 0.5 14.1704 1.09695 14.1704 1.83333L14.1704 3.16667C14.1704 3.90305 14.7674 4.5 15.5037 4.5H16.8371C17.5735 4.5 18.1704 3.90305 18.1704 3.16667L18.1704 1.83333Z" fill="black"/>
<path d="M18.1704 7.16667C18.1704 6.43029 17.5735 5.83333 16.8371 5.83333L15.5037 5.83333C14.7674 5.83333 14.1704 6.43029 14.1704 7.16667L14.1704 9.83333C14.1704 10.5697 13.5735 11.1667 12.8371 11.1667C12.1007 11.1667 11.5037 11.7636 11.5037 12.5V13.1667C11.5037 13.903 10.9068 14.5 10.1704 14.5L6.83708 14.5C6.1007 14.5 5.50374 15.097 5.50374 15.8333V17.1667C5.50374 17.903 6.1007 18.5 6.83708 18.5L10.1704 18.5C10.9068 18.5 11.5037 19.097 11.5037 19.8333C11.5037 20.5697 12.1007 21.1667 12.8371 21.1667C13.5735 21.1667 14.1704 21.7636 14.1704 22.5L14.1704 25.8333C14.1704 26.5697 14.7674 27.1667 15.5037 27.1667H16.8371C17.5735 27.1667 18.1704 26.5697 18.1704 25.8333L18.1704 22.5C18.1704 21.7636 18.7674 21.1667 19.5037 21.1667C20.2401 21.1667 20.8371 20.5697 20.8371 19.8333C20.8371 19.097 21.434 18.5 22.1704 18.5L25.5037 18.5C26.2401 18.5 26.8371 17.903 26.8371 17.1667V15.8333C26.8371 15.097 26.2401 14.5 25.5037 14.5L22.1704 14.5C21.434 14.5 20.8371 13.903 20.8371 13.1667V12.5C20.8371 11.7636 20.2401 11.1667 19.5037 11.1667C18.7674 11.1667 18.1704 10.5697 18.1704 9.83333L18.1704 7.16667Z" fill="black"/>
<path d="M28.1704 15.8333C28.1704 15.097 28.7674 14.5 29.5037 14.5L30.8371 14.5C31.5735 14.5 32.1704 15.097 32.1704 15.8333V17.1667C32.1704 17.903 31.5735 18.5 30.8371 18.5L29.5037 18.5C28.7674 18.5 28.1704 17.903 28.1704 17.1667V15.8333Z" fill="black"/>
<path d="M4.17041 15.8333C4.17041 15.097 3.57346 14.5 2.83708 14.5L1.50374 14.5C0.767363 14.5 0.17041 15.097 0.17041 15.8333V17.1667C0.17041 17.903 0.767364 18.5 1.50374 18.5L2.83708 18.5C3.57346 18.5 4.17041 17.903 4.17041 17.1667V15.8333Z" fill="black"/>
<path d="M6.83708 7.16667L9.50374 7.16667C10.2401 7.16667 10.8371 7.76362 10.8371 8.5L10.8371 9.83333C10.8371 10.5697 10.2401 11.1667 9.50374 11.1667L8.17041 11.1667C7.43403 11.1667 6.83708 10.5697 6.83708 9.83333V7.16667Z" fill="black"/>
<path d="M6.83708 7.16667V4.5C6.83708 3.76362 6.24012 3.16667 5.50374 3.16667H4.17041C3.43403 3.16667 2.83708 3.76362 2.83708 4.5V5.83333C2.83708 6.56971 3.43403 7.16667 4.17041 7.16667H6.83708Z" fill="black"/>
<path d="M29.5037 27.1667C29.5037 26.4303 28.9068 25.8333 28.1704 25.8333H25.5037V28.5C25.5037 29.2364 26.1007 29.8333 26.8371 29.8333H28.1704C28.9068 29.8333 29.5037 29.2364 29.5037 28.5V27.1667Z" fill="black"/>
<path d="M25.5037 25.8333H22.8371C22.1007 25.8333 21.5037 25.2364 21.5037 24.5V23.1667C21.5037 22.4303 22.1007 21.8333 22.8371 21.8333H24.1704C24.9068 21.8333 25.5037 22.4303 25.5037 23.1667V25.8333Z" fill="black"/>
<path d="M21.5037 8.5C21.5037 7.76362 22.1007 7.16667 22.8371 7.16667L25.5037 7.16667V4.5C25.5037 3.76362 26.1007 3.16667 26.8371 3.16667H28.1704C28.9068 3.16667 29.5037 3.76362 29.5037 4.5V5.83333C29.5037 6.56971 28.9068 7.16667 28.1704 7.16667H25.5037V9.83333C25.5037 10.5697 24.9068 11.1667 24.1704 11.1667L22.8371 11.1667C22.1007 11.1667 21.5037 10.5697 21.5037 9.83333V8.5Z" fill="black"/>
<path d="M6.83708 23.1667C6.83708 22.4303 7.43403 21.8333 8.17041 21.8333H9.50374C10.2401 21.8333 10.8371 22.4303 10.8371 23.1667L10.8371 24.5C10.8371 25.2364 10.2401 25.8333 9.50374 25.8333H6.83708V28.5C6.83708 29.2364 6.24012 29.8333 5.50374 29.8333H4.17041C3.43403 29.8333 2.83708 29.2364 2.83708 28.5V27.1667C2.83708 26.4303 3.43403 25.8333 4.17041 25.8333H6.83708V23.1667Z" fill="black"/>
<path d="M14.1704 29.8333C14.1704 29.097 14.7674 28.5 15.5037 28.5H16.8371C17.5735 28.5 18.1704 29.097 18.1704 29.8333L18.1704 31.1667C18.1704 31.903 17.5735 32.5 16.8371 32.5H15.5037C14.7674 32.5 14.1704 31.903 14.1704 31.1667L14.1704 29.8333Z" fill="black"/>
</svg>
