<svg width="48" height="49" viewBox="0 0 48 49" fill="none" xmlns="http://www.w3.org/2000/svg">
<path d="M17 16.5C15.8954 16.5 15 17.3954 15 18.5V20.5C15 21.6046 15.8954 22.5 17 22.5H25C26.1046 22.5 27 23.3954 27 24.5V25.5C27 26.6046 26.1046 27.5 25 27.5C23.8954 27.5 23 28.3954 23 29.5V33.5H19C17.8954 33.5 17 34.3954 17 35.5V37.5C17 38.6046 17.8954 39.5 19 39.5H21C22.1046 39.5 23 38.6046 23 37.5V33.5H27C28.1046 33.5 29 32.6046 29 31.5V29.5C29 28.3954 29.8954 27.5 31 27.5C32.1046 27.5 33 26.6046 33 25.5V18.5C33 17.3954 32.1046 16.5 31 16.5H17Z" fill="#FF7710"/>
<path fill-rule="evenodd" clip-rule="evenodd" d="M14 2.5C14 1.39543 13.1046 0.5 12 0.5H10C8.89543 0.5 8 1.39543 8 2.5V4.5C8 5.60457 7.10457 6.5 6 6.5H2C0.895431 6.5 0 7.39543 0 8.5V21C0 21.8284 0.671573 22.5 1.5 22.5C2.32843 22.5 3 23.1716 3 24V33C3 33.8284 2.32843 34.5 1.5 34.5C0.671573 34.5 0 35.1716 0 36V46.5C0 47.6046 0.89543 48.5 2 48.5H34C35.1046 48.5 36 47.6046 36 46.5C36 45.3954 36.8954 44.5 38 44.5H40C41.1046 44.5 42 43.6046 42 42.5V38.5H46C47.1046 38.5 48 37.6046 48 36.5V8.5C48 7.39543 47.1046 6.5 46 6.5H42C40.8954 6.5 40 5.60457 40 4.5V2.5C40 1.39543 39.1046 0.5 38 0.5H36C34.8954 0.5 34 1.39543 34 2.5V4.5C34 5.60457 33.1046 6.5 32 6.5H29C27.8954 6.5 27 5.60457 27 4.5V2.5C27 1.39543 26.1046 0.5 25 0.5H23C21.8954 0.5 21 1.39543 21 2.5V4.5C21 5.60457 20.1046 6.5 19 6.5H16C14.8954 6.5 14 5.60457 14 4.5V2.5ZM6 40.5C6 41.6046 6.89543 42.5 8 42.5H34C35.1046 42.5 36 41.6046 36 40.5C36 39.3954 36.8954 38.5 38 38.5H42V14.5C42 13.3954 41.1046 12.5 40 12.5H8C6.89543 12.5 6 13.3954 6 14.5V21C6 21.8284 6.67157 22.5 7.5 22.5C8.32843 22.5 9 23.1716 9 24V33C9 33.8284 8.32843 34.5 7.5 34.5C6.67157 34.5 6 35.1716 6 36V40.5Z" fill="#FF7710"/>
</svg>
