<svg width="24" height="24" viewBox="0 0 24 24" fill="current" xmlns="http://www.w3.org/2000/svg">
<g id="Icon/24/Pixel/Arrow_Upright">
<g id="Union">
<path d="M18.5998 4.80078C18.9312 4.80078 19.1998 5.06941 19.1998 5.40078V16.2008C19.1998 16.5322 18.9312 16.8008 18.5998 16.8008H17.3998C17.0684 16.8008 16.7998 16.5322 16.7998 16.2008V10.2008C16.7998 9.86941 16.5312 9.60078 16.1998 9.60078H14.3998V7.80078C14.3998 7.46941 14.1312 7.20078 13.7998 7.20078H7.7998C7.46843 7.20078 7.1998 6.93215 7.1998 6.60078V5.40078C7.1998 5.06941 7.46843 4.80078 7.7998 4.80078H18.5998Z" fill="current"/>
<path d="M11.9998 12.0008V10.2008C11.9998 9.86941 12.2684 9.60078 12.5998 9.60078H14.3998V11.4008C14.3998 11.7322 14.1312 12.0008 13.7998 12.0008H11.9998Z" fill="current"/>
<path d="M9.5998 14.4008V12.6008C9.5998 12.2694 9.86843 12.0008 10.1998 12.0008H11.9998V13.8008C11.9998 14.1322 11.7312 14.4008 11.3998 14.4008H9.5998Z" fill="current"/>
<path d="M7.1998 16.8008V15.0008C7.1998 14.6694 7.46843 14.4008 7.7998 14.4008H9.5998V16.2008C9.5998 16.5322 9.33118 16.8008 8.9998 16.8008H7.1998Z" fill="current"/>
<path d="M5.3998 19.2008C5.06843 19.2008 4.7998 18.9322 4.7998 18.6008V17.4008C4.7998 17.0694 5.06843 16.8008 5.3998 16.8008H7.1998V18.6008C7.1998 18.9322 6.93118 19.2008 6.5998 19.2008H5.3998Z" fill="current"/>
</g>
</g>
</svg>
