<svg width="33" height="33" viewBox="0 0 33 33" fill="none" xmlns="http://www.w3.org/2000/svg">
<path fill-rule="evenodd" clip-rule="evenodd" d="M28.1704 1.16667C28.1704 0.798477 28.4689 0.5 28.8371 0.5H30.8371C31.5735 0.5 32.1704 1.09695 32.1704 1.83333V24.5C32.1704 25.2364 31.5735 25.8333 30.8371 25.8333C30.1007 25.8333 29.5037 26.4303 29.5037 27.1667C29.5037 27.903 28.9068 28.5 28.1704 28.5H22.1704C21.8022 28.5 21.5037 28.2015 21.5037 27.8333C21.5037 27.4651 21.2053 27.1667 20.8371 27.1667H20.1704C19.434 27.1667 18.8371 26.5697 18.8371 25.8333V24.5C18.8371 23.7636 19.434 23.1667 20.1704 23.1667C20.9068 23.1667 21.5037 22.5697 21.5037 21.8333C21.5037 21.097 22.1007 20.5 22.8371 20.5H27.5037C27.8719 20.5 28.1704 20.2015 28.1704 19.8333V14.5C28.1704 13.7636 27.5735 13.1667 26.8371 13.1667L25.5037 13.1667C25.1356 13.1667 24.8371 13.4651 24.8371 13.8333C24.8371 14.2015 24.5386 14.5 24.1704 14.5L21.5037 14.5C21.1356 14.5 20.8371 14.7985 20.8371 15.1667C20.8371 15.5349 20.5386 15.8333 20.1704 15.8333L17.5037 15.8333C17.1356 15.8333 16.8371 16.1318 16.8371 16.5C16.8371 16.8682 16.5386 17.1667 16.1704 17.1667H14.8371C14.1007 17.1667 13.5037 17.7636 13.5037 18.5L13.5037 28.5C13.5037 29.2364 12.9068 29.8333 12.1704 29.8333C11.434 29.8333 10.8371 30.4303 10.8371 31.1667C10.8371 31.903 10.2401 32.5 9.50374 32.5H3.50374C3.13555 32.5 2.83708 32.2015 2.83708 31.8333C2.83708 31.4651 2.5386 31.1667 2.17041 31.1667H1.50374C0.767364 31.1667 0.17041 30.5697 0.17041 29.8333V28.5C0.17041 27.7636 0.767364 27.1667 1.50374 27.1667C2.24012 27.1667 2.83708 26.5697 2.83708 25.8333C2.83708 25.097 3.43403 24.5 4.17041 24.5H8.17041C8.90679 24.5 9.50374 23.903 9.50374 23.1667V8.5C9.50374 7.76362 10.1007 7.16667 10.8371 7.16667L12.1704 7.16667C12.5386 7.16667 12.8371 6.86819 12.8371 6.5C12.8371 6.13181 13.1356 5.83333 13.5037 5.83333L16.1704 5.83333C16.5386 5.83333 16.8371 5.53486 16.8371 5.16667C16.8371 4.79848 17.1356 4.5 17.5037 4.5L20.1704 4.5C20.5386 4.5 20.8371 4.20152 20.8371 3.83333C20.8371 3.46514 21.1356 3.16667 21.5037 3.16667L24.1704 3.16667C24.5386 3.16667 24.8371 2.86819 24.8371 2.5C24.8371 2.13181 25.1356 1.83333 25.5037 1.83333L27.5037 1.83333C27.8719 1.83333 28.1704 1.53486 28.1704 1.16667ZM13.5037 12.5C13.5037 12.8682 13.8022 13.1667 14.1704 13.1667L16.1704 13.1667C16.5386 13.1667 16.8371 12.8682 16.8371 12.5C16.8371 12.1318 17.1356 11.8333 17.5037 11.8333L20.1704 11.8333C20.5386 11.8333 20.8371 11.5349 20.8371 11.1667C20.8371 10.7985 21.1356 10.5 21.5037 10.5L24.1704 10.5C24.5386 10.5 24.8371 10.2015 24.8371 9.83333C24.8371 9.46514 25.1356 9.16667 25.5037 9.16667L27.5037 9.16667C27.8719 9.16667 28.1704 8.86819 28.1704 8.5V7.16667C28.1704 6.43029 27.5735 5.83333 26.8371 5.83333L25.5037 5.83333C25.1356 5.83333 24.8371 6.13181 24.8371 6.5C24.8371 6.86819 24.5386 7.16667 24.1704 7.16667L21.5037 7.16667C21.1356 7.16667 20.8371 7.46514 20.8371 7.83333C20.8371 8.20152 20.5386 8.5 20.1704 8.5L17.5037 8.5C17.1356 8.5 16.8371 8.79848 16.8371 9.16667C16.8371 9.53486 16.5386 9.83333 16.1704 9.83333H14.8371C14.1007 9.83333 13.5037 10.4303 13.5037 11.1667L13.5037 12.5Z" fill="black"/>
</svg>
