<svg width="48" height="49" viewBox="0 0 48 49" fill="none" xmlns="http://www.w3.org/2000/svg">
<path fill-rule="evenodd" clip-rule="evenodd" d="M27 2.5C27 1.39543 26.1046 0.5 25 0.5H23C21.8954 0.5 21 1.39543 21 2.5V6.5H17C15.8954 6.5 15 7.39543 15 8.5V12.5H2C0.895431 12.5 0 13.3954 0 14.5V16.5C0 17.6046 0.89543 18.5 2 18.5H3C4.10457 18.5 5 19.3954 5 20.5V22.5C5 23.6046 5.89543 24.5 7 24.5C8.10457 24.5 9 25.3954 9 26.5V28.5C9 29.6046 8.10457 30.5 7 30.5C5.89543 30.5 5 31.3954 5 32.5V38.5C5 39.6046 4.10457 40.5 3 40.5C1.89543 40.5 1 41.3954 1 42.5V44.5C1 45.6046 1.89543 46.5 3 46.5H5C6.10457 46.5 7 45.6046 7 44.5C7 43.3954 7.89543 42.5 9 42.5H17C18.1046 42.5 19 41.6046 19 40.5V36.5H25V40.5C25 41.6046 25.8954 42.5 27 42.5H29C30.1046 42.5 31 43.3954 31 44.5V46.5C31 47.6046 31.8954 48.5 33 48.5H35C36.1046 48.5 37 47.6046 37 46.5V44C37 43.1716 37.6716 42.5 38.5 42.5C39.3284 42.5 40 41.8284 40 41V26.5C40 25.3954 40.8954 24.5 42 24.5C43.1046 24.5 44 23.6046 44 22.5V20.5C44 19.3954 44.8954 18.5 46 18.5C47.1046 18.5 48 17.6046 48 16.5V14.5C48 13.3954 47.1046 12.5 46 12.5H33C31.8954 12.5 31 11.6046 31 10.5V8.5C31 7.39543 30.1046 6.5 29 6.5C27.8954 6.5 27 5.60457 27 4.5V2.5ZM25 36.5V32.5C25 31.3954 24.1046 30.5 23 30.5H21C19.8954 30.5 19 31.3954 19 32.5V36.5H13C11.8954 36.5 11 35.6046 11 34.5V32.5C11 31.3954 11.8954 30.5 13 30.5C14.1046 30.5 15 29.6046 15 28.5V26.5C15 25.3954 14.1046 24.5 13 24.5C11.8954 24.5 11 23.6046 11 22.5V19.5C11 18.9477 11.4477 18.5 12 18.5H13C14.1046 18.5 15 17.6046 15 16.5V12.5H19C20.1046 12.5 21 11.6046 21 10.5V6.5H23C24.1046 6.5 25 7.39543 25 8.5V10.5C25 11.6046 25.8954 12.5 27 12.5H28C29.1046 12.5 30 13.3954 30 14.5V16.5C30 17.6046 30.8954 18.5 32 18.5H36C37.1046 18.5 38 19.3954 38 20.5V22.5C38 23.6046 37.1046 24.5 36 24.5C34.8954 24.5 34 25.3954 34 26.5V34.5C34 35.6046 33.1046 36.5 32 36.5H25Z" fill="#FF7710"/>
</svg>
