<svg width="48" height="49" viewBox="0 0 48 49" fill="none" xmlns="http://www.w3.org/2000/svg">
<path d="M33 22.5C31.8954 22.5 31 23.3954 31 24.5V26.5C31 27.6046 31.8954 28.5 33 28.5H37C38.1046 28.5 39 27.6046 39 26.5V24.5C39 23.3954 38.1046 22.5 37 22.5H33Z" fill="#FF7710"/>
<path d="M40 30.5C40 29.3954 40.8954 28.5 42 28.5H46C47.1046 28.5 48 29.3954 48 30.5V32.5C48 33.6046 47.1046 34.5 46 34.5H42C40.8954 34.5 40 33.6046 40 32.5V30.5Z" fill="#FF7710"/>
<path d="M40 38.5C40 37.3954 40.8954 36.5 42 36.5H46C47.1046 36.5 48 37.3954 48 38.5V40.5C48 41.6046 47.1046 42.5 46 42.5H42C40.8954 42.5 40 41.6046 40 40.5V38.5Z" fill="#FF7710"/>
<path d="M31 44.5C31 43.3954 31.8954 42.5 33 42.5H37C38.1046 42.5 39 43.3954 39 44.5V46.5C39 47.6046 38.1046 48.5 37 48.5H33C31.8954 48.5 31 47.6046 31 46.5V44.5Z" fill="#FF7710"/>
<path d="M30 30C30 30.8284 30.6716 31.5 31.5 31.5H34C35.1046 31.5 36 32.3954 36 33.5V37.5C36 38.6046 35.1046 39.5 34 39.5H31.5C30.6716 39.5 30 40.1716 30 41C30 41.8284 29.3284 42.5 28.5 42.5H28C27.4477 42.5 27 42.9477 27 43.5C27 44.0523 26.5523 44.5 26 44.5H23C21.8954 44.5 21 43.6046 21 42.5V39.5C21 38.9477 21.4477 38.5 22 38.5C22.5523 38.5 23 38.0523 23 37.5V33.5C23 32.9477 22.5523 32.5 22 32.5C21.4477 32.5 21 32.0523 21 31.5V28.5C21 27.3954 21.8954 26.5 23 26.5H26C26.5523 26.5 27 26.9477 27 27.5C27 28.0523 27.4477 28.5 28 28.5H28.5C29.3284 28.5 30 29.1716 30 30Z" fill="#FF7710"/>
<path d="M12 0.5C10.8954 0.5 10 1.39543 10 2.5V4.5C10 5.60457 10.8954 6.5 12 6.5H16C17.1046 6.5 18 5.60457 18 4.5V2.5C18 1.39543 17.1046 0.5 16 0.5H12Z" fill="#FF7710"/>
<path d="M19 8.5C19 7.39543 19.8954 6.5 21 6.5H25C26.1046 6.5 27 7.39543 27 8.5V10.5C27 11.6046 26.1046 12.5 25 12.5H21C19.8954 12.5 19 11.6046 19 10.5V8.5Z" fill="#FF7710"/>
<path d="M19 16.5C19 15.3954 19.8954 14.5 21 14.5H25C26.1046 14.5 27 15.3954 27 16.5V18.5C27 19.6046 26.1046 20.5 25 20.5H21C19.8954 20.5 19 19.6046 19 18.5V16.5Z" fill="#FF7710"/>
<path d="M10 22.5C10 21.3954 10.8954 20.5 12 20.5H16C17.1046 20.5 18 21.3954 18 22.5V24.5C18 25.6046 17.1046 26.5 16 26.5H12C10.8954 26.5 10 25.6046 10 24.5V22.5Z" fill="#FF7710"/>
<path d="M9 8C9 8.82843 9.67157 9.5 10.5 9.5H13C14.1046 9.5 15 10.3954 15 11.5V15.5C15 16.6046 14.1046 17.5 13 17.5H10.5C9.67157 17.5 9 18.1716 9 19C9 19.8284 8.32843 20.5 7.5 20.5H7C6.44772 20.5 6 20.9477 6 21.5C6 22.0523 5.55228 22.5 5 22.5H2C0.89543 22.5 0 21.6046 0 20.5V17.5C0 16.9477 0.447715 16.5 1 16.5C1.55228 16.5 2 16.0523 2 15.5V11.5C2 10.9477 1.55228 10.5 1 10.5C0.447715 10.5 0 10.0523 0 9.5V6.5C0 5.39543 0.89543 4.5 2 4.5H5C5.55228 4.5 6 4.94772 6 5.5C6 6.05228 6.44772 6.5 7 6.5H7.5C8.32843 6.5 9 7.17157 9 8Z" fill="#FF7710"/>
</svg>
