<svg width="48" height="48" viewBox="0 0 48 48" fill="none" xmlns="http://www.w3.org/2000/svg">
<g id="Graphic/Pixel/48/Notice">
<g id="Union">
<path fill-rule="evenodd" clip-rule="evenodd" d="M27 2C27 0.895431 26.1046 0 25 0H23C21.8954 0 21 0.89543 21 2V4C21 4.55228 20.5523 5 20 5H16C14.8954 5 14 5.89543 14 7C14 8.10457 13.1046 9 12 9H11C9.89543 9 9 9.89543 9 11V13.5C9 14.3284 8.32843 15 7.5 15C6.67157 15 6 15.6716 6 16.5V28C6 29.1046 5.10457 30 4 30H2C0.895431 30 0 30.8954 0 32V34C0 35.1046 0.89543 36 2 36H46C47.1046 36 48 35.1046 48 34V32C48 30.8954 47.1046 30 46 30H44C42.8954 30 42 29.1046 42 28V16.5C42 15.6716 41.3284 15 40.5 15C39.6716 15 39 14.3284 39 13.5V11C39 9.89543 38.1046 9 37 9H36C34.8954 9 34 8.10457 34 7C34 5.89543 33.1046 5 32 5H28C27.4477 5 27 4.55228 27 4V2ZM31 11C32.1046 11 33 11.8954 33 13V13.5C33 14.3284 33.6716 15 34.5 15C35.3284 15 36 15.6716 36 16.5V28C36 29.1046 35.1046 30 34 30H14C12.8954 30 12 29.1046 12 28V16.5C12 15.6716 12.6716 15 13.5 15C14.3284 15 15 14.3284 15 13.5V13C15 11.8954 15.8954 11 17 11H31Z" fill="#FF7710"/>
<path d="M23 42C21.8954 42 21 41.1046 21 40C21 38.8954 20.1046 38 19 38H17C15.8954 38 15 38.8954 15 40V42C15 43.1046 15.8954 44 17 44H19C20.1046 44 21 44.8954 21 46C21 47.1046 21.8954 48 23 48H25C26.1046 48 27 47.1046 27 46C27 44.8954 27.8954 44 29 44H31C32.1046 44 33 43.1046 33 42V40C33 38.8954 32.1046 38 31 38H29C27.8954 38 27 38.8954 27 40C27 41.1046 26.1046 42 25 42H23Z" fill="#FF7710"/>
</g>
</g>
</svg>
