<svg width="48" height="49" viewBox="0 0 48 49" fill="none" xmlns="http://www.w3.org/2000/svg">
<path d="M34 0.445312C35.1046 0.445312 36 1.34074 36 2.44531V6.44531H12V2.44531C12 1.34074 12.8954 0.445312 14 0.445312H34Z" fill="#FF7710"/>
<path fill-rule="evenodd" clip-rule="evenodd" d="M12 12.4453V6.44531H8C6.89543 6.44531 6 7.34074 6 8.44531V12.4453H2C0.89543 12.4453 0 13.3407 0 14.4453V22.4453C0 23.5499 0.895431 24.4453 2 24.4453H3C4.10457 24.4453 5 25.3407 5 26.4453V28.4453C5 29.5499 5.89543 30.4453 7 30.4453H8C9.10457 30.4453 10 31.3407 10 32.4453V34.4453C10 35.5499 10.8954 36.4453 12 36.4453H13C14.1046 36.4453 15 37.3407 15 38.4453V40.4453C15 41.5499 15.8954 42.4453 17 42.4453H18C19.1046 42.4453 20 43.3407 20 44.4453V46.4453C20 47.5499 20.8954 48.4453 22 48.4453H26C27.1046 48.4453 28 47.5499 28 46.4453V44.4453C28 43.3407 28.8954 42.4453 30 42.4453H31C32.1046 42.4453 33 41.5499 33 40.4453V38.4453C33 37.3407 33.8954 36.4453 35 36.4453H36C37.1046 36.4453 38 35.5499 38 34.4453V32.4453C38 31.3407 38.8954 30.4453 40 30.4453H41C42.1046 30.4453 43 29.5499 43 28.4453V26.4453C43 25.3407 43.8954 24.4453 45 24.4453H46C47.1046 24.4453 48 23.5499 48 22.4453V14.4453C48 13.3407 47.1046 12.4453 46 12.4453H42V8.44531C42 7.34074 41.1046 6.44531 40 6.44531H36V12.4453H12ZM37 18.4453C36.4477 18.4453 36 17.9976 36 17.4453V12.4453H42V22.4453C42 23.5499 41.1046 24.4453 40 24.4453C38.8954 24.4453 38 23.5499 38 22.4453V19.4453C38 18.893 37.5523 18.4453 37 18.4453ZM32 20.4453C32 19.3407 31.1046 18.4453 30 18.4453H18C16.8954 18.4453 16 19.3407 16 20.4453V22.4453C16 23.5499 15.1046 24.4453 14 24.4453H13C11.8954 24.4453 11 25.3407 11 26.4453V28.4453C11 29.5499 11.8954 30.4453 13 30.4453H14C15.1046 30.4453 16 31.3407 16 32.4453V34.4453C16 35.5499 16.8954 36.4453 18 36.4453H19C20.1046 36.4453 21 37.3407 21 38.4453V41.4453C21 41.9976 21.4477 42.4453 22 42.4453H26C26.5523 42.4453 27 41.9976 27 41.4453V38.4453C27 37.3407 27.8954 36.4453 29 36.4453H30C31.1046 36.4453 32 35.5499 32 34.4453V32.4453C32 31.3407 32.8954 30.4453 34 30.4453H35C36.1046 30.4453 37 29.5499 37 28.4453V26.4453C37 25.3407 36.1046 24.4453 35 24.4453H34C32.8954 24.4453 32 23.5499 32 22.4453V20.4453ZM12 12.4453V17.4453C12 17.9976 11.5523 18.4453 11 18.4453C10.4477 18.4453 10 18.893 10 19.4453V22.4453C10 23.5499 9.10457 24.4453 8 24.4453C6.89543 24.4453 6 23.5499 6 22.4453V12.4453H12Z" fill="#FF7710"/>
</svg>
