<svg width="145" height="144" viewBox="0 0 145 144" fill="none" xmlns="http://www.w3.org/2000/svg">
<rect x="28.1924" y="34.1538" width="86.7692" height="78.4615" fill="#FF7710"/>
<mask id="path-2-outside-1_379_4120" maskUnits="userSpaceOnUse" x="-6.47037" y="-6.65809" width="157.992" height="157.992" fill="black">
<rect fill="white" x="-6.47037" y="-6.65809" width="157.992" height="157.992"/>
<path fill-rule="evenodd" clip-rule="evenodd" d="M103.303 116.91C103.789 118.726 105.656 119.804 107.472 119.317L120.623 115.793C122.439 115.307 123.517 113.44 123.03 111.624C122.543 109.809 123.621 107.942 125.437 107.456L126.533 107.162C128.954 106.513 130.391 104.024 129.742 101.603L129.448 100.507C128.962 98.6916 130.039 96.8251 131.855 96.3386C133.671 95.852 134.749 93.9856 134.262 92.1697L116.055 24.2206C115.569 22.4047 113.702 21.3271 111.886 21.8137C110.071 22.3002 108.204 21.2226 107.718 19.4068L107.424 18.3109C106.775 15.8897 104.287 14.4529 101.865 15.1017L100.769 15.3953C98.9536 15.8819 97.0872 14.8043 96.6006 12.9885C96.1141 11.1726 94.2476 10.095 92.4318 10.5816L79.2803 14.1055C77.4645 14.5921 76.3869 16.4585 76.8734 18.2743C77.36 20.0902 76.2824 21.9566 74.4666 22.4432L73.3706 22.7368C70.9495 23.3856 69.5127 25.8742 70.1614 28.2953L70.4551 29.3913C70.9416 31.2071 69.864 33.0735 68.0482 33.5601C66.2324 34.0467 65.1548 35.9131 65.6413 37.7289L83.8482 105.678C84.3348 107.494 86.2013 108.572 88.0171 108.085C89.8329 107.598 91.6994 108.676 92.1859 110.492L92.4796 111.588C93.1283 114.009 95.6169 115.446 98.0381 114.797L99.134 114.503C100.95 114.017 102.816 115.094 103.303 116.91ZM79.9674 38.5888C79.4809 36.773 80.5585 34.9065 82.3743 34.42C84.1901 33.9334 85.2677 32.067 84.7812 30.2512L84.4875 29.1552C84.1631 27.9446 84.8815 26.7003 86.0921 26.376L92.6678 24.614C93.8784 24.2896 95.1227 25.008 95.4471 26.2186L95.7407 27.3145C96.2273 29.1304 98.0937 30.208 99.9096 29.7214C101.725 29.2349 103.592 30.3125 104.078 32.1283L119.936 91.3098C120.423 93.1257 119.345 94.9921 117.529 95.4787C115.713 95.9652 114.636 97.8317 115.122 99.6475L115.416 100.743C115.74 101.954 115.022 103.198 113.811 103.523L107.236 105.285C106.025 105.609 104.781 104.891 104.456 103.68C104.132 102.47 104.85 101.225 106.061 100.901L107.157 100.607C108.973 100.121 110.05 98.2542 109.564 96.4384C109.077 94.6225 110.155 92.7561 111.971 92.2695C113.787 91.783 114.864 89.9165 114.378 88.1007L108.211 65.0856C107.562 62.6645 105.073 61.2277 102.652 61.8765L101.556 62.1701C99.7405 62.6567 97.874 61.5791 97.3875 59.7632C96.9009 57.9474 95.0345 56.8698 93.2186 57.3563L89.9308 58.2373C87.5096 58.8861 85.021 57.4493 84.3723 55.0281L79.9674 38.5888ZM91.1476 97.8491C91.4719 99.0596 92.7162 99.778 93.9268 99.4536L102.694 97.1044C103.905 96.78 104.623 95.5357 104.299 94.3251L101.95 85.5575C101.625 84.3469 100.381 83.6285 99.1705 83.9529L90.4029 86.3022C89.1923 86.6266 88.4739 87.8709 88.7983 89.0814L91.1476 97.8491Z"/>
<path fill-rule="evenodd" clip-rule="evenodd" d="M48.5051 131.593C48.9917 133.409 50.8581 134.487 52.674 134L65.8254 130.476C67.6413 129.99 68.7189 128.123 68.2323 126.307C67.7458 124.492 68.8234 122.625 70.6392 122.139L71.7351 121.845C74.1563 121.196 75.5931 118.708 74.9443 116.286L74.6507 115.19C74.1641 113.375 75.2417 111.508 77.0576 111.022C78.8734 110.535 79.951 108.669 79.4644 106.853L61.2575 38.9036C60.7709 37.0877 58.9045 36.0101 57.0887 36.4967C55.2728 36.9833 53.4064 35.9057 52.9198 34.0898L52.6262 32.9939C51.9774 30.5727 49.4888 29.136 47.0677 29.7847L45.9717 30.0783C44.1559 30.5649 42.2895 29.4873 41.8029 27.6715C41.3163 25.8556 39.4499 24.778 37.6341 25.2646L24.4826 28.7885C22.6668 29.2751 21.5892 31.1415 22.0757 32.9574C22.5623 34.7732 21.4847 36.6396 19.6688 37.1262L18.5729 37.4199C16.1518 38.0686 14.715 40.5572 15.3637 42.9783L15.6574 44.0743C16.1439 45.8901 15.0663 47.7566 13.2505 48.2431C11.4346 48.7297 10.357 50.5961 10.8436 52.412L29.0505 120.361C29.5371 122.177 31.4035 123.255 33.2194 122.768C35.0352 122.281 36.9017 123.359 37.3882 125.175L37.6819 126.271C38.3306 128.692 40.8192 130.129 43.2403 129.48L44.3363 129.186C46.1521 128.7 48.0186 129.777 48.5051 131.593ZM25.1697 53.2718C24.6831 51.456 25.7607 49.5896 27.5766 49.103C29.3924 48.6165 30.47 46.75 29.9835 44.9342L29.6898 43.8382C29.3654 42.6276 30.0838 41.3833 31.2944 41.059L37.8701 39.297C39.0807 38.9726 40.325 39.691 40.6493 40.9016L40.943 41.9976C41.4296 43.8134 43.296 44.891 45.1118 44.4044C46.9277 43.9179 48.7941 44.9955 49.2807 46.8113L65.1383 105.993C65.6249 107.809 64.5473 109.675 62.7315 110.162C60.9156 110.648 59.838 112.515 60.3246 114.331L60.6182 115.426C60.9426 116.637 60.2242 117.881 59.0136 118.206L52.4379 119.968C51.2274 120.292 49.9831 119.574 49.6587 118.363C49.3343 117.153 50.0527 115.908 51.2633 115.584L52.3592 115.29C54.1751 114.804 55.2527 112.937 54.7661 111.121C54.2796 109.306 55.3572 107.439 57.173 106.953C58.9888 106.466 60.0664 104.6 59.5799 102.784L53.413 79.7686C52.7643 77.3475 50.2757 75.9107 47.8546 76.5595L46.7586 76.8531C44.9428 77.3397 43.0763 76.2621 42.5898 74.4462C42.1032 72.6304 40.2368 71.5528 38.4209 72.0394L35.1331 72.9203C32.7119 73.5691 30.2233 72.1323 29.5746 69.7112L25.1697 53.2718ZM36.3499 112.532C36.6742 113.743 37.9185 114.461 39.1291 114.137L47.8967 111.787C49.1073 111.463 49.8257 110.219 49.5013 109.008L47.152 100.241C46.8277 99.03 45.5834 98.3116 44.3728 98.6359L35.6052 100.985C34.3946 101.31 33.6762 102.554 34.0006 103.764L36.3499 112.532Z"/>
</mask>
<path fill-rule="evenodd" clip-rule="evenodd" d="M103.303 116.91C103.789 118.726 105.656 119.804 107.472 119.317L120.623 115.793C122.439 115.307 123.517 113.44 123.03 111.624C122.543 109.809 123.621 107.942 125.437 107.456L126.533 107.162C128.954 106.513 130.391 104.024 129.742 101.603L129.448 100.507C128.962 98.6916 130.039 96.8251 131.855 96.3386C133.671 95.852 134.749 93.9856 134.262 92.1697L116.055 24.2206C115.569 22.4047 113.702 21.3271 111.886 21.8137C110.071 22.3002 108.204 21.2226 107.718 19.4068L107.424 18.3109C106.775 15.8897 104.287 14.4529 101.865 15.1017L100.769 15.3953C98.9536 15.8819 97.0872 14.8043 96.6006 12.9885C96.1141 11.1726 94.2476 10.095 92.4318 10.5816L79.2803 14.1055C77.4645 14.5921 76.3869 16.4585 76.8734 18.2743C77.36 20.0902 76.2824 21.9566 74.4666 22.4432L73.3706 22.7368C70.9495 23.3856 69.5127 25.8742 70.1614 28.2953L70.4551 29.3913C70.9416 31.2071 69.864 33.0735 68.0482 33.5601C66.2324 34.0467 65.1548 35.9131 65.6413 37.7289L83.8482 105.678C84.3348 107.494 86.2013 108.572 88.0171 108.085C89.8329 107.598 91.6994 108.676 92.1859 110.492L92.4796 111.588C93.1283 114.009 95.6169 115.446 98.0381 114.797L99.134 114.503C100.95 114.017 102.816 115.094 103.303 116.91ZM79.9674 38.5888C79.4809 36.773 80.5585 34.9065 82.3743 34.42C84.1901 33.9334 85.2677 32.067 84.7812 30.2512L84.4875 29.1552C84.1631 27.9446 84.8815 26.7003 86.0921 26.376L92.6678 24.614C93.8784 24.2896 95.1227 25.008 95.4471 26.2186L95.7407 27.3145C96.2273 29.1304 98.0937 30.208 99.9096 29.7214C101.725 29.2349 103.592 30.3125 104.078 32.1283L119.936 91.3098C120.423 93.1257 119.345 94.9921 117.529 95.4787C115.713 95.9652 114.636 97.8317 115.122 99.6475L115.416 100.743C115.74 101.954 115.022 103.198 113.811 103.523L107.236 105.285C106.025 105.609 104.781 104.891 104.456 103.68C104.132 102.47 104.85 101.225 106.061 100.901L107.157 100.607C108.973 100.121 110.05 98.2542 109.564 96.4384C109.077 94.6225 110.155 92.7561 111.971 92.2695C113.787 91.783 114.864 89.9165 114.378 88.1007L108.211 65.0856C107.562 62.6645 105.073 61.2277 102.652 61.8765L101.556 62.1701C99.7405 62.6567 97.874 61.5791 97.3875 59.7632C96.9009 57.9474 95.0345 56.8698 93.2186 57.3563L89.9308 58.2373C87.5096 58.8861 85.021 57.4493 84.3723 55.0281L79.9674 38.5888ZM91.1476 97.8491C91.4719 99.0596 92.7162 99.778 93.9268 99.4536L102.694 97.1044C103.905 96.78 104.623 95.5357 104.299 94.3251L101.95 85.5575C101.625 84.3469 100.381 83.6285 99.1705 83.9529L90.4029 86.3022C89.1923 86.6266 88.4739 87.8709 88.7983 89.0814L91.1476 97.8491Z" fill="#212224"/>
<path fill-rule="evenodd" clip-rule="evenodd" d="M48.5051 131.593C48.9917 133.409 50.8581 134.487 52.674 134L65.8254 130.476C67.6413 129.99 68.7189 128.123 68.2323 126.307C67.7458 124.492 68.8234 122.625 70.6392 122.139L71.7351 121.845C74.1563 121.196 75.5931 118.708 74.9443 116.286L74.6507 115.19C74.1641 113.375 75.2417 111.508 77.0576 111.022C78.8734 110.535 79.951 108.669 79.4644 106.853L61.2575 38.9036C60.7709 37.0877 58.9045 36.0101 57.0887 36.4967C55.2728 36.9833 53.4064 35.9057 52.9198 34.0898L52.6262 32.9939C51.9774 30.5727 49.4888 29.136 47.0677 29.7847L45.9717 30.0783C44.1559 30.5649 42.2895 29.4873 41.8029 27.6715C41.3163 25.8556 39.4499 24.778 37.6341 25.2646L24.4826 28.7885C22.6668 29.2751 21.5892 31.1415 22.0757 32.9574C22.5623 34.7732 21.4847 36.6396 19.6688 37.1262L18.5729 37.4199C16.1518 38.0686 14.715 40.5572 15.3637 42.9783L15.6574 44.0743C16.1439 45.8901 15.0663 47.7566 13.2505 48.2431C11.4346 48.7297 10.357 50.5961 10.8436 52.412L29.0505 120.361C29.5371 122.177 31.4035 123.255 33.2194 122.768C35.0352 122.281 36.9017 123.359 37.3882 125.175L37.6819 126.271C38.3306 128.692 40.8192 130.129 43.2403 129.48L44.3363 129.186C46.1521 128.7 48.0186 129.777 48.5051 131.593ZM25.1697 53.2718C24.6831 51.456 25.7607 49.5896 27.5766 49.103C29.3924 48.6165 30.47 46.75 29.9835 44.9342L29.6898 43.8382C29.3654 42.6276 30.0838 41.3833 31.2944 41.059L37.8701 39.297C39.0807 38.9726 40.325 39.691 40.6493 40.9016L40.943 41.9976C41.4296 43.8134 43.296 44.891 45.1118 44.4044C46.9277 43.9179 48.7941 44.9955 49.2807 46.8113L65.1383 105.993C65.6249 107.809 64.5473 109.675 62.7315 110.162C60.9156 110.648 59.838 112.515 60.3246 114.331L60.6182 115.426C60.9426 116.637 60.2242 117.881 59.0136 118.206L52.4379 119.968C51.2274 120.292 49.9831 119.574 49.6587 118.363C49.3343 117.153 50.0527 115.908 51.2633 115.584L52.3592 115.29C54.1751 114.804 55.2527 112.937 54.7661 111.121C54.2796 109.306 55.3572 107.439 57.173 106.953C58.9888 106.466 60.0664 104.6 59.5799 102.784L53.413 79.7686C52.7643 77.3475 50.2757 75.9107 47.8546 76.5595L46.7586 76.8531C44.9428 77.3397 43.0763 76.2621 42.5898 74.4462C42.1032 72.6304 40.2368 71.5528 38.4209 72.0394L35.1331 72.9203C32.7119 73.5691 30.2233 72.1323 29.5746 69.7112L25.1697 53.2718ZM36.3499 112.532C36.6742 113.743 37.9185 114.461 39.1291 114.137L47.8967 111.787C49.1073 111.463 49.8257 110.219 49.5013 109.008L47.152 100.241C46.8277 99.03 45.5834 98.3116 44.3728 98.6359L35.6052 100.985C34.3946 101.31 33.6762 102.554 34.0006 103.764L36.3499 112.532Z" fill="#212224"/>
<path fill-rule="evenodd" clip-rule="evenodd" d="M103.303 116.91C103.789 118.726 105.656 119.804 107.472 119.317L120.623 115.793C122.439 115.307 123.517 113.44 123.03 111.624C122.543 109.809 123.621 107.942 125.437 107.456L126.533 107.162C128.954 106.513 130.391 104.024 129.742 101.603L129.448 100.507C128.962 98.6916 130.039 96.8251 131.855 96.3386C133.671 95.852 134.749 93.9856 134.262 92.1697L116.055 24.2206C115.569 22.4047 113.702 21.3271 111.886 21.8137C110.071 22.3002 108.204 21.2226 107.718 19.4068L107.424 18.3109C106.775 15.8897 104.287 14.4529 101.865 15.1017L100.769 15.3953C98.9536 15.8819 97.0872 14.8043 96.6006 12.9885C96.1141 11.1726 94.2476 10.095 92.4318 10.5816L79.2803 14.1055C77.4645 14.5921 76.3869 16.4585 76.8734 18.2743C77.36 20.0902 76.2824 21.9566 74.4666 22.4432L73.3706 22.7368C70.9495 23.3856 69.5127 25.8742 70.1614 28.2953L70.4551 29.3913C70.9416 31.2071 69.864 33.0735 68.0482 33.5601C66.2324 34.0467 65.1548 35.9131 65.6413 37.7289L83.8482 105.678C84.3348 107.494 86.2013 108.572 88.0171 108.085C89.8329 107.598 91.6994 108.676 92.1859 110.492L92.4796 111.588C93.1283 114.009 95.6169 115.446 98.0381 114.797L99.134 114.503C100.95 114.017 102.816 115.094 103.303 116.91ZM79.9674 38.5888C79.4809 36.773 80.5585 34.9065 82.3743 34.42C84.1901 33.9334 85.2677 32.067 84.7812 30.2512L84.4875 29.1552C84.1631 27.9446 84.8815 26.7003 86.0921 26.376L92.6678 24.614C93.8784 24.2896 95.1227 25.008 95.4471 26.2186L95.7407 27.3145C96.2273 29.1304 98.0937 30.208 99.9096 29.7214C101.725 29.2349 103.592 30.3125 104.078 32.1283L119.936 91.3098C120.423 93.1257 119.345 94.9921 117.529 95.4787C115.713 95.9652 114.636 97.8317 115.122 99.6475L115.416 100.743C115.74 101.954 115.022 103.198 113.811 103.523L107.236 105.285C106.025 105.609 104.781 104.891 104.456 103.68C104.132 102.47 104.85 101.225 106.061 100.901L107.157 100.607C108.973 100.121 110.05 98.2542 109.564 96.4384C109.077 94.6225 110.155 92.7561 111.971 92.2695C113.787 91.783 114.864 89.9165 114.378 88.1007L108.211 65.0856C107.562 62.6645 105.073 61.2277 102.652 61.8765L101.556 62.1701C99.7405 62.6567 97.874 61.5791 97.3875 59.7632C96.9009 57.9474 95.0345 56.8698 93.2186 57.3563L89.9308 58.2373C87.5096 58.8861 85.021 57.4493 84.3723 55.0281L79.9674 38.5888ZM91.1476 97.8491C91.4719 99.0596 92.7162 99.778 93.9268 99.4536L102.694 97.1044C103.905 96.78 104.623 95.5357 104.299 94.3251L101.95 85.5575C101.625 84.3469 100.381 83.6285 99.1705 83.9529L90.4029 86.3022C89.1923 86.6266 88.4739 87.8709 88.7983 89.0814L91.1476 97.8491Z" stroke="#FF7710" stroke-width="18.4615" mask="url(#path-2-outside-1_379_4120)"/>
<path fill-rule="evenodd" clip-rule="evenodd" d="M48.5051 131.593C48.9917 133.409 50.8581 134.487 52.674 134L65.8254 130.476C67.6413 129.99 68.7189 128.123 68.2323 126.307C67.7458 124.492 68.8234 122.625 70.6392 122.139L71.7351 121.845C74.1563 121.196 75.5931 118.708 74.9443 116.286L74.6507 115.19C74.1641 113.375 75.2417 111.508 77.0576 111.022C78.8734 110.535 79.951 108.669 79.4644 106.853L61.2575 38.9036C60.7709 37.0877 58.9045 36.0101 57.0887 36.4967C55.2728 36.9833 53.4064 35.9057 52.9198 34.0898L52.6262 32.9939C51.9774 30.5727 49.4888 29.136 47.0677 29.7847L45.9717 30.0783C44.1559 30.5649 42.2895 29.4873 41.8029 27.6715C41.3163 25.8556 39.4499 24.778 37.6341 25.2646L24.4826 28.7885C22.6668 29.2751 21.5892 31.1415 22.0757 32.9574C22.5623 34.7732 21.4847 36.6396 19.6688 37.1262L18.5729 37.4199C16.1518 38.0686 14.715 40.5572 15.3637 42.9783L15.6574 44.0743C16.1439 45.8901 15.0663 47.7566 13.2505 48.2431C11.4346 48.7297 10.357 50.5961 10.8436 52.412L29.0505 120.361C29.5371 122.177 31.4035 123.255 33.2194 122.768C35.0352 122.281 36.9017 123.359 37.3882 125.175L37.6819 126.271C38.3306 128.692 40.8192 130.129 43.2403 129.48L44.3363 129.186C46.1521 128.7 48.0186 129.777 48.5051 131.593ZM25.1697 53.2718C24.6831 51.456 25.7607 49.5896 27.5766 49.103C29.3924 48.6165 30.47 46.75 29.9835 44.9342L29.6898 43.8382C29.3654 42.6276 30.0838 41.3833 31.2944 41.059L37.8701 39.297C39.0807 38.9726 40.325 39.691 40.6493 40.9016L40.943 41.9976C41.4296 43.8134 43.296 44.891 45.1118 44.4044C46.9277 43.9179 48.7941 44.9955 49.2807 46.8113L65.1383 105.993C65.6249 107.809 64.5473 109.675 62.7315 110.162C60.9156 110.648 59.838 112.515 60.3246 114.331L60.6182 115.426C60.9426 116.637 60.2242 117.881 59.0136 118.206L52.4379 119.968C51.2274 120.292 49.9831 119.574 49.6587 118.363C49.3343 117.153 50.0527 115.908 51.2633 115.584L52.3592 115.29C54.1751 114.804 55.2527 112.937 54.7661 111.121C54.2796 109.306 55.3572 107.439 57.173 106.953C58.9888 106.466 60.0664 104.6 59.5799 102.784L53.413 79.7686C52.7643 77.3475 50.2757 75.9107 47.8546 76.5595L46.7586 76.8531C44.9428 77.3397 43.0763 76.2621 42.5898 74.4462C42.1032 72.6304 40.2368 71.5528 38.4209 72.0394L35.1331 72.9203C32.7119 73.5691 30.2233 72.1323 29.5746 69.7112L25.1697 53.2718ZM36.3499 112.532C36.6742 113.743 37.9185 114.461 39.1291 114.137L47.8967 111.787C49.1073 111.463 49.8257 110.219 49.5013 109.008L47.152 100.241C46.8277 99.03 45.5834 98.3116 44.3728 98.6359L35.6052 100.985C34.3946 101.31 33.6762 102.554 34.0006 103.764L36.3499 112.532Z" stroke="#FF7710" stroke-width="18.4615" mask="url(#path-2-outside-1_379_4120)"/>
</svg>
