<svg width="45" height="12" viewBox="0 0 45 12" fill="none" xmlns="http://www.w3.org/2000/svg">
<path d="M4.44336 11.1367C2.26953 11.1367 0.710938 9.94043 0.669922 8.21094H2.74805C2.78223 8.94922 3.5 9.43457 4.45703 9.44141C5.44141 9.43457 6.14551 8.8877 6.13867 8.08789C6.14551 7.28125 5.42773 6.71387 4.26562 6.70703H3.34961V5.18945H4.26562C5.24316 5.18945 5.92676 4.65625 5.91992 3.87695C5.92676 3.11816 5.3457 2.59863 4.4707 2.60547C3.5957 2.59863 2.87793 3.09082 2.84375 3.84961H0.875C0.90918 2.14746 2.44043 0.964844 4.4707 0.964844C6.53516 0.964844 7.90918 2.18848 7.90234 3.75391C7.90918 4.86133 7.13672 5.64746 6.0293 5.8457V5.92773C7.48535 6.10547 8.28516 6.9873 8.27148 8.22461C8.28516 9.91992 6.67871 11.1367 4.44336 11.1367Z" fill="#FF7710"/>
<path d="M13 6.5H45" stroke="#FF7710" stroke-width="2"/>
</svg>
