<svg width="45" height="11" viewBox="0 0 45 11" fill="none" xmlns="http://www.w3.org/2000/svg">
<path d="M4.41602 10.1367C2.35156 10.1367 0.84082 8.91992 0.806641 7.21094H2.80273C2.85059 7.9834 3.55469 8.5166 4.41602 8.50977C5.44141 8.5166 6.17285 7.79199 6.16602 6.75977C6.17285 5.70703 5.42773 4.97559 4.38867 4.96875C3.64355 4.96875 3.12402 5.24902 2.83008 5.80273H0.970703L1.50391 0.101562H7.60156V1.7832H3.19922L2.92578 4.28516H3.00781C3.37012 3.7998 4.12207 3.44434 4.99023 3.45117C6.80859 3.44434 8.16211 4.80469 8.16211 6.70508C8.16211 8.70801 6.64453 10.1367 4.41602 10.1367Z" fill="#FF7710"/>
<path d="M13 5.5H45" stroke="#FF7710" stroke-width="2"/>
</svg>
