<svg width="45" height="12" viewBox="0 0 45 12" fill="none" xmlns="http://www.w3.org/2000/svg">
<path d="M4.60742 11.1367C2.56348 11.1299 0.608398 9.90625 0.615234 6.2832C0.62207 2.94043 2.21484 0.964844 4.68945 0.964844C6.67871 0.964844 8.0459 2.22266 8.24414 3.84961H6.2207C6.05664 3.15918 5.48926 2.72852 4.68945 2.72852C3.34277 2.72852 2.63867 3.93848 2.625 5.88672H2.7207C3.17871 5.00488 4.15625 4.49219 5.25 4.49219C7.03418 4.49219 8.36035 5.8252 8.35352 7.69141C8.36035 9.70117 6.84277 11.1436 4.60742 11.1367ZM2.83008 7.74609C2.84375 8.7168 3.58203 9.5166 4.59375 9.50977C5.6123 9.5166 6.35742 8.74414 6.35742 7.74609C6.35742 6.75488 5.62598 5.98926 4.62109 5.98242C3.60938 5.98926 2.84375 6.78223 2.83008 7.74609Z" fill="#FF7710"/>
<path d="M13 6.5H45" stroke="#FF7710" stroke-width="2"/>
</svg>
