<svg width="105" height="106" viewBox="0 0 105 106" fill="none" xmlns="http://www.w3.org/2000/svg">
<mask id="path-1-outside-1_7503_44377" maskUnits="userSpaceOnUse" x="-7.65683" y="-8.57283" width="121.25" height="121.25" fill="black">
<rect fill="white" x="-7.65683" y="-8.57283" width="121.25" height="121.25"/>
<path d="M14.3816 62.0658C12.9751 62.4427 11.5293 61.608 11.1524 60.2015L9.78762 55.1079C9.41074 53.7014 10.2454 52.2556 11.652 51.8788C13.0585 51.5019 13.8932 50.0561 13.5163 48.6496L12.8339 46.1028C12.3314 44.2274 13.4444 42.2998 15.3198 41.7973L18.7154 40.8874C20.5908 40.3849 22.5185 41.4978 23.021 43.3732L23.7034 45.92C24.0803 47.3265 25.526 48.1612 26.9326 47.7843C28.3391 47.4075 29.7848 48.2422 30.1617 49.6487L31.5265 54.7422C31.9034 56.1488 31.0687 57.5945 29.6622 57.9714C28.2556 58.3483 27.4209 59.794 27.7978 61.2006L28.4802 63.7473C28.9827 65.6227 27.8698 67.5504 25.9944 68.0529L22.5987 68.9627C20.7233 69.4653 18.7957 68.3523 18.2932 66.4769L17.6108 63.9302C17.2339 62.5236 15.7881 61.6889 14.3816 62.0658Z"/>
<path fill-rule="evenodd" clip-rule="evenodd" d="M29.512 74.3893C27.6366 74.8918 26.5237 76.8195 27.0262 78.6949L29.5283 88.033C29.9052 89.4395 31.351 90.2742 32.7575 89.8974C34.164 89.5205 35.6098 90.3552 35.9867 91.7617L37.124 96.0063C37.6265 97.8817 39.5542 98.9946 41.4295 98.4921L55.8612 94.6252C57.2677 94.2483 58.1025 92.8026 57.7256 91.396C57.3487 89.9895 58.1834 88.5437 59.5899 88.1668L64.6835 86.802C66.09 86.4252 67.5357 87.2599 67.9126 88.6664C68.2895 90.0729 69.7353 90.9076 71.1418 90.5308L85.5734 86.6638C87.4488 86.1613 88.5618 84.2336 88.0593 82.3583L86.9219 78.1137C86.545 76.7071 87.3797 75.2614 88.7863 74.8845C90.1928 74.5076 91.0275 73.0619 90.6506 71.6553L88.1485 62.3172C87.646 60.4418 85.7183 59.3289 83.8429 59.8314L77.0516 61.6511L75.2318 54.8597C74.7293 52.9844 72.8017 51.8714 70.9263 52.3739L64.1349 54.1937L62.3152 47.4023C61.8127 45.5269 59.885 44.414 58.0096 44.9165L44.4269 48.556C42.5515 49.0585 41.4385 50.9861 41.9411 52.8615L43.7608 59.6529L36.9694 61.4726C35.094 61.9752 33.9811 63.9028 34.4836 65.7782L36.3034 72.5696L29.512 74.3893ZM36.3034 72.5696L43.0947 70.7498C44.9701 70.2473 46.083 68.3197 45.5805 66.4443L43.7608 59.6529L64.1349 54.1937L65.9546 60.985C66.4572 62.8604 68.3848 63.9734 70.2602 63.4709L77.0516 61.6511L80.2361 73.536C80.7386 75.4114 79.6257 77.3391 77.7503 77.8416L68.4122 80.3437C67.0056 80.7206 65.5599 79.8859 65.183 78.4794C64.8061 77.0728 63.3604 76.2381 61.9538 76.615L56.8603 77.9798C55.4538 78.3567 54.6191 79.8024 54.996 81.209C55.3728 82.6155 54.5381 84.0613 53.1316 84.4381L43.7935 86.9403C41.9181 87.4428 39.9904 86.3299 39.4879 84.4545L36.3034 72.5696Z"/>
<path d="M42.4243 30.8952C41.0177 31.272 40.183 32.7178 40.5599 34.1243L41.2423 36.6711C41.7448 38.5465 40.6319 40.4741 38.7565 40.9766L35.3608 41.8865C33.4854 42.389 31.5578 41.2761 31.0553 39.4007L30.3729 36.8539C29.996 35.4474 28.5502 34.6127 27.1437 34.9896C25.7372 35.3665 24.2914 34.5318 23.9145 33.1252L22.5497 28.0317C22.1728 26.6251 23.0075 25.1794 24.4141 24.8025C25.8206 24.4256 26.6553 22.9799 26.2784 21.5734L25.596 19.0266C25.0935 17.1512 26.2065 15.2235 28.0819 14.721L31.4775 13.8112C33.3529 13.3087 35.2806 14.4216 35.7831 16.297L36.4655 18.8437C36.8424 20.2503 38.2881 21.085 39.6947 20.7081C41.1012 20.3312 42.547 21.1659 42.9238 22.5725L44.2886 27.666C44.6655 29.0725 43.8308 30.5183 42.4243 30.8952Z"/>
<path d="M66.1941 24.5261C64.7875 24.9029 63.9528 26.3487 64.3297 27.7552L65.0121 30.302C65.5146 32.1774 64.4017 34.105 62.5263 34.6075L59.1306 35.5174C57.2552 36.0199 55.3276 34.907 54.8251 33.0316L54.1427 30.4848C53.7658 29.0783 52.32 28.2436 50.9135 28.6205C49.507 28.9974 48.0612 28.1627 47.6843 26.7561L46.3195 21.6626C45.9426 20.2561 46.7773 18.8103 48.1839 18.4334C49.5904 18.0565 50.4251 16.6108 50.0482 15.2043L49.3658 12.6575C48.8633 10.7821 49.9763 8.85445 51.8516 8.35194L55.2473 7.44207C57.1227 6.93956 59.0504 8.05249 59.5529 9.92788L60.2353 12.4746C60.6122 13.8812 62.0579 14.7159 63.4645 14.339C64.871 13.9621 66.3167 14.7968 66.6936 16.2034L68.0584 21.2969C68.4353 22.7034 67.6006 24.1492 66.1941 24.5261Z"/>
<path d="M83.721 52.5851C81.8457 53.0876 79.918 51.9746 79.4155 50.0993L78.7331 47.5525C78.3562 46.146 76.9105 45.3113 75.5039 45.6881C74.0974 46.065 72.6516 45.2303 72.2747 43.8238L70.9099 38.7302C70.5331 37.3237 71.3678 35.878 72.7743 35.5011C74.1808 35.1242 75.0155 33.6785 74.6387 32.2719L73.9563 29.7251C73.4538 27.8498 74.5667 25.9221 76.4421 25.4196L79.8378 24.5097C81.7131 24.0072 83.6408 25.1202 84.1433 26.9955L84.8257 29.5423C85.2026 30.9488 86.6483 31.7835 88.0549 31.4067C89.4614 31.0298 90.9072 31.8645 91.284 33.271L92.6489 38.3645C93.0257 39.7711 92.191 41.2168 90.7845 41.5937C89.378 41.9706 88.5433 43.4163 88.9201 44.8229L89.6025 47.3696C90.105 49.245 88.9921 51.1727 87.1167 51.6752L83.721 52.5851Z"/>
</mask>
<path d="M14.3816 62.0658C12.9751 62.4427 11.5293 61.608 11.1524 60.2015L9.78762 55.1079C9.41074 53.7014 10.2454 52.2556 11.652 51.8788C13.0585 51.5019 13.8932 50.0561 13.5163 48.6496L12.8339 46.1028C12.3314 44.2274 13.4444 42.2998 15.3198 41.7973L18.7154 40.8874C20.5908 40.3849 22.5185 41.4978 23.021 43.3732L23.7034 45.92C24.0803 47.3265 25.526 48.1612 26.9326 47.7843C28.3391 47.4075 29.7848 48.2422 30.1617 49.6487L31.5265 54.7422C31.9034 56.1488 31.0687 57.5945 29.6622 57.9714C28.2556 58.3483 27.4209 59.794 27.7978 61.2006L28.4802 63.7473C28.9827 65.6227 27.8698 67.5504 25.9944 68.0529L22.5987 68.9627C20.7233 69.4653 18.7957 68.3523 18.2932 66.4769L17.6108 63.9302C17.2339 62.5236 15.7881 61.6889 14.3816 62.0658Z" fill="#212224"/>
<path fill-rule="evenodd" clip-rule="evenodd" d="M29.512 74.3893C27.6366 74.8918 26.5237 76.8195 27.0262 78.6949L29.5283 88.033C29.9052 89.4395 31.351 90.2742 32.7575 89.8974C34.164 89.5205 35.6098 90.3552 35.9867 91.7617L37.124 96.0063C37.6265 97.8817 39.5542 98.9946 41.4295 98.4921L55.8612 94.6252C57.2677 94.2483 58.1025 92.8026 57.7256 91.396C57.3487 89.9895 58.1834 88.5437 59.5899 88.1668L64.6835 86.802C66.09 86.4252 67.5357 87.2599 67.9126 88.6664C68.2895 90.0729 69.7353 90.9076 71.1418 90.5308L85.5734 86.6638C87.4488 86.1613 88.5618 84.2336 88.0593 82.3583L86.9219 78.1137C86.545 76.7071 87.3797 75.2614 88.7863 74.8845C90.1928 74.5076 91.0275 73.0619 90.6506 71.6553L88.1485 62.3172C87.646 60.4418 85.7183 59.3289 83.8429 59.8314L77.0516 61.6511L75.2318 54.8597C74.7293 52.9844 72.8017 51.8714 70.9263 52.3739L64.1349 54.1937L62.3152 47.4023C61.8127 45.5269 59.885 44.414 58.0096 44.9165L44.4269 48.556C42.5515 49.0585 41.4385 50.9861 41.9411 52.8615L43.7608 59.6529L36.9694 61.4726C35.094 61.9752 33.9811 63.9028 34.4836 65.7782L36.3034 72.5696L29.512 74.3893ZM36.3034 72.5696L43.0947 70.7498C44.9701 70.2473 46.083 68.3197 45.5805 66.4443L43.7608 59.6529L64.1349 54.1937L65.9546 60.985C66.4572 62.8604 68.3848 63.9734 70.2602 63.4709L77.0516 61.6511L80.2361 73.536C80.7386 75.4114 79.6257 77.3391 77.7503 77.8416L68.4122 80.3437C67.0056 80.7206 65.5599 79.8859 65.183 78.4794C64.8061 77.0728 63.3604 76.2381 61.9538 76.615L56.8603 77.9798C55.4538 78.3567 54.6191 79.8024 54.996 81.209C55.3728 82.6155 54.5381 84.0613 53.1316 84.4381L43.7935 86.9403C41.9181 87.4428 39.9904 86.3299 39.4879 84.4545L36.3034 72.5696Z" fill="#212224"/>
<path d="M42.4243 30.8952C41.0177 31.272 40.183 32.7178 40.5599 34.1243L41.2423 36.6711C41.7448 38.5465 40.6319 40.4741 38.7565 40.9766L35.3608 41.8865C33.4854 42.389 31.5578 41.2761 31.0553 39.4007L30.3729 36.8539C29.996 35.4474 28.5502 34.6127 27.1437 34.9896C25.7372 35.3665 24.2914 34.5318 23.9145 33.1252L22.5497 28.0317C22.1728 26.6251 23.0075 25.1794 24.4141 24.8025C25.8206 24.4256 26.6553 22.9799 26.2784 21.5734L25.596 19.0266C25.0935 17.1512 26.2065 15.2235 28.0819 14.721L31.4775 13.8112C33.3529 13.3087 35.2806 14.4216 35.7831 16.297L36.4655 18.8437C36.8424 20.2503 38.2881 21.085 39.6947 20.7081C41.1012 20.3312 42.547 21.1659 42.9238 22.5725L44.2886 27.666C44.6655 29.0725 43.8308 30.5183 42.4243 30.8952Z" fill="#212224"/>
<path d="M66.1941 24.5261C64.7875 24.9029 63.9528 26.3487 64.3297 27.7552L65.0121 30.302C65.5146 32.1774 64.4017 34.105 62.5263 34.6075L59.1306 35.5174C57.2552 36.0199 55.3276 34.907 54.8251 33.0316L54.1427 30.4848C53.7658 29.0783 52.32 28.2436 50.9135 28.6205C49.507 28.9974 48.0612 28.1627 47.6843 26.7561L46.3195 21.6626C45.9426 20.2561 46.7773 18.8103 48.1839 18.4334C49.5904 18.0565 50.4251 16.6108 50.0482 15.2043L49.3658 12.6575C48.8633 10.7821 49.9763 8.85445 51.8516 8.35194L55.2473 7.44207C57.1227 6.93956 59.0504 8.05249 59.5529 9.92788L60.2353 12.4746C60.6122 13.8812 62.0579 14.7159 63.4645 14.339C64.871 13.9621 66.3167 14.7968 66.6936 16.2034L68.0584 21.2969C68.4353 22.7034 67.6006 24.1492 66.1941 24.5261Z" fill="#212224"/>
<path d="M83.721 52.5851C81.8457 53.0876 79.918 51.9746 79.4155 50.0993L78.7331 47.5525C78.3562 46.146 76.9105 45.3113 75.5039 45.6881C74.0974 46.065 72.6516 45.2303 72.2747 43.8238L70.9099 38.7302C70.5331 37.3237 71.3678 35.878 72.7743 35.5011C74.1808 35.1242 75.0155 33.6785 74.6387 32.2719L73.9563 29.7251C73.4538 27.8498 74.5667 25.9221 76.4421 25.4196L79.8378 24.5097C81.7131 24.0072 83.6408 25.1202 84.1433 26.9955L84.8257 29.5423C85.2026 30.9488 86.6483 31.7835 88.0549 31.4067C89.4614 31.0298 90.9072 31.8645 91.284 33.271L92.6489 38.3645C93.0257 39.7711 92.191 41.2168 90.7845 41.5937C89.378 41.9706 88.5433 43.4163 88.9201 44.8229L89.6025 47.3696C90.105 49.245 88.9921 51.1727 87.1167 51.6752L83.721 52.5851Z" fill="#212224"/>
<path d="M89.6025 47.3696L83.163 49.0951L89.6025 47.3696ZM87.1167 51.6752L88.8422 58.1147L87.1167 51.6752ZM88.9201 44.8229L95.3596 43.0974L88.9201 44.8229ZM92.6489 38.3645L86.2093 40.09L86.2094 40.09L92.6489 38.3645ZM91.284 33.271L97.7236 31.5456L91.284 33.271ZM84.8257 29.5423L78.3862 31.2678L84.8257 29.5423ZM79.8378 24.5097L78.1123 18.0702L78.1123 18.0702L79.8378 24.5097ZM84.1433 26.9955L90.5828 25.2701L84.1433 26.9955ZM73.9563 29.7251L80.3958 27.9997L73.9563 29.7251ZM76.4421 25.4196L78.1675 31.8591L76.4421 25.4196ZM74.6387 32.2719L68.1992 33.9974L74.6387 32.2719ZM70.9099 38.7302L77.3495 37.0048L77.3494 37.0048L70.9099 38.7302ZM72.2747 43.8238L65.8352 45.5492L65.8352 45.5492L72.2747 43.8238ZM79.4155 50.0993L72.976 51.8247L79.4155 50.0993ZM83.721 52.5851L81.9956 46.1456L83.721 52.5851ZM78.7331 47.5525L85.1726 45.827L78.7331 47.5525ZM68.0584 21.2969L61.6189 23.0223L68.0584 21.2969ZM66.6936 16.2034L73.1331 14.4779L66.6936 16.2034ZM60.2353 12.4746L53.7958 14.2001L60.2353 12.4746ZM55.2473 7.44207L56.9728 13.8816L55.2473 7.44207ZM59.5529 9.92788L65.9924 8.20242L65.9924 8.20242L59.5529 9.92788ZM49.3658 12.6575L55.8053 10.932L55.8053 10.932L49.3658 12.6575ZM51.8516 8.35194L50.1262 1.91243L51.8516 8.35194ZM50.0482 15.2043L43.6087 16.9297L50.0482 15.2043ZM46.3195 21.6626L52.759 19.9371L46.3195 21.6626ZM47.6843 26.7561L41.2448 28.4816L47.6843 26.7561ZM54.1427 30.4848L60.5822 28.7594L54.1427 30.4848ZM59.1306 35.5174L57.4052 29.0779L59.1306 35.5174ZM54.8251 33.0316L48.3856 34.7571L54.8251 33.0316ZM64.3297 27.7552L70.7692 26.0298L64.3297 27.7552ZM65.0121 30.302L58.5726 32.0274L65.0121 30.302ZM62.5263 34.6075L64.2518 41.047L62.5263 34.6075ZM44.2886 27.666L37.8491 29.3914L44.2886 27.666ZM25.596 19.0266L32.0355 17.3011L32.0355 17.3011L25.596 19.0266ZM28.0819 14.721L26.3564 8.28153L28.0819 14.721ZM22.5497 28.0317L16.1102 29.7571L16.1102 29.7571L22.5497 28.0317ZM68.4122 80.3437L66.6867 73.9042L68.4122 80.3437ZM80.2361 73.536L73.7966 75.2615L80.2361 73.536ZM77.7503 77.8416L79.4758 84.2811L77.7503 77.8416ZM65.9546 60.985L59.5151 62.7105L65.9546 60.985ZM70.2602 63.4709L68.5347 57.0314L70.2602 63.4709ZM43.0947 70.7498L44.8202 77.1893L43.0947 70.7498ZM45.5805 66.4443L39.141 68.1697L45.5805 66.4443ZM36.9694 61.4726L35.244 55.0331L35.244 55.0331L36.9694 61.4726ZM34.4836 65.7782L28.0441 67.5037L34.4836 65.7782ZM44.4269 48.556L42.7014 42.1165L44.4269 48.556ZM41.9411 52.8615L48.3806 51.1361L41.9411 52.8615ZM62.3152 47.4023L68.7547 45.6768L62.3152 47.4023ZM58.0096 44.9165L59.7351 51.356L58.0096 44.9165ZM75.2318 54.8597L81.6713 53.1343L81.6713 53.1343L75.2318 54.8597ZM70.9263 52.3739L72.6517 58.8134L70.9263 52.3739ZM88.1485 62.3172L94.588 60.5917L94.588 60.5917L88.1485 62.3172ZM83.8429 59.8314L85.5684 66.2709L83.8429 59.8314ZM71.1418 90.5308L69.4163 84.0913L71.1418 90.5308ZM64.6835 86.802L66.4089 93.2416L64.6835 86.802ZM59.5899 88.1668L57.8645 81.7273L59.5899 88.1668ZM55.8612 94.6252L57.5867 101.065L55.8612 94.6252ZM42.9238 22.5725L49.3633 20.847L42.9238 22.5725ZM37.124 96.0063L30.6845 97.7318L37.124 96.0063ZM41.4295 98.4921L39.7041 92.0526L41.4295 98.4921ZM36.4655 18.8437L30.026 20.5692L30.026 20.5692L36.4655 18.8437ZM35.9867 91.7617L42.4262 90.0363L35.9867 91.7617ZM31.4775 13.8112L33.203 20.2507L31.4775 13.8112ZM35.7831 16.297L42.2226 14.5715L42.2226 14.5715L35.7831 16.297ZM29.5283 88.033L35.9678 86.3075L29.5283 88.033ZM26.2784 21.5734L19.8389 23.2988L19.8389 23.2988L26.2784 21.5734ZM27.0262 78.6949L20.5867 80.4203L27.0262 78.6949ZM29.512 74.3893L27.7865 67.9498L27.7865 67.9498L29.512 74.3893ZM23.9145 33.1252L30.354 31.3998L30.354 31.3998L23.9145 33.1252ZM17.6108 63.9302L24.0503 62.2047L17.6108 63.9302ZM30.3729 36.8539L36.8124 35.1285L30.3729 36.8539ZM22.5987 68.9627L20.8733 62.5232L20.8733 62.5232L22.5987 68.9627ZM18.2932 66.4769L11.8537 68.2024L18.2932 66.4769ZM35.3608 41.8865L33.6354 35.447L35.3608 41.8865ZM31.0553 39.4007L24.6158 41.1262L31.0553 39.4007ZM28.4802 63.7473L22.0407 65.4728L28.4802 63.7473ZM25.9944 68.0529L27.7199 74.4924L27.7199 74.4924L25.9944 68.0529ZM40.5599 34.1243L46.9994 32.3989L46.9994 32.3989L40.5599 34.1243ZM27.7978 61.2006L34.2373 59.4751L27.7978 61.2006ZM41.2423 36.6711L34.8028 38.3965L34.8028 38.3965L41.2423 36.6711ZM38.7565 40.9766L40.482 47.4161L40.482 47.4161L38.7565 40.9766ZM31.5265 54.7422L25.087 56.4677L25.087 56.4677L31.5265 54.7422ZM30.1617 49.6487L36.6012 47.9232L36.6012 47.9232L30.1617 49.6487ZM23.7034 45.92L17.2639 47.6454L23.7034 45.92ZM43.7935 86.9403L42.068 80.5008L42.068 80.5008L43.7935 86.9403ZM39.4879 84.4545L33.0484 86.1799L39.4879 84.4545ZM18.7154 40.8874L20.4409 47.3269L18.7154 40.8874ZM23.021 43.3732L29.4605 41.6478L23.021 43.3732ZM90.6506 71.6553L84.2111 73.3808L90.6506 71.6553ZM12.8339 46.1028L19.2734 44.3774L12.8339 46.1028ZM15.3198 41.7973L13.5943 35.3578L15.3198 41.7973ZM86.9219 78.1137L93.3614 76.3882L86.9219 78.1137ZM53.1316 84.4381L54.8571 90.8776L53.1316 84.4381ZM13.5163 48.6496L7.07684 50.3751L13.5163 48.6496ZM85.5734 86.6638L87.2989 93.1033L85.5734 86.6638ZM88.0593 82.3583L81.6198 84.0837L88.0593 82.3583ZM56.8603 77.9798L55.1349 71.5403L56.8603 77.9798ZM11.1524 60.2015L17.5919 58.476L11.1524 60.2015ZM61.9538 76.615L63.6793 83.0545L61.9538 76.615ZM9.78762 55.1079L3.34812 56.8334L9.78762 55.1079ZM3.34812 56.8334L4.71292 61.9269L17.5919 58.476L16.2271 53.3825L3.34812 56.8334ZM6.39443 47.8283L7.07684 50.3751L19.9558 46.9241L19.2734 44.3774L6.39443 47.8283ZM16.99 34.4479L13.5943 35.3578L17.0452 48.2368L20.4409 47.3269L16.99 34.4479ZM30.1429 44.1945L29.4605 41.6478L16.5815 45.0987L17.2639 47.6454L30.1429 44.1945ZM37.966 53.0168L36.6012 47.9232L23.7222 51.3742L25.087 56.4677L37.966 53.0168ZM34.9197 62.0219L34.2373 59.4751L21.3583 62.926L22.0407 65.4728L34.9197 62.0219ZM24.3242 75.4023L27.7199 74.4924L24.2689 61.6134L20.8733 62.5232L24.3242 75.4023ZM11.1713 65.6556L11.8537 68.2024L24.7327 64.7515L24.0503 62.2047L11.1713 65.6556ZM43.5635 94.2809L42.4262 90.0363L29.5472 93.4872L30.6845 97.7318L43.5635 94.2809ZM62.958 80.3625L57.8645 81.7273L61.3154 94.6064L66.4089 93.2416L62.958 80.3625ZM80.4824 79.8391L81.6198 84.0837L94.4988 80.6328L93.3614 76.3882L80.4824 79.8391ZM78.777 68.0906L85.5684 66.2709L82.1175 53.3919L75.3261 55.2116L78.777 68.0906ZM68.7923 56.5852L70.6121 63.3766L83.4911 59.9257L81.6713 53.1343L68.7923 56.5852ZM65.8604 60.6332L72.6517 58.8134L69.2008 45.9344L62.4094 47.7542L65.8604 60.6332ZM55.8757 49.1278L57.6954 55.9191L70.5744 52.4682L68.7547 45.6768L55.8757 49.1278ZM50.2003 57.9274L48.3806 51.1361L35.5016 54.587L37.3213 61.3784L50.2003 57.9274ZM42.0353 53.2134L35.244 55.0331L38.6949 67.9121L45.4863 66.0924L42.0353 53.2134ZM28.0441 67.5037L29.8639 74.295L42.7429 70.8441L40.9231 64.0527L28.0441 67.5037ZM31.2375 80.8288L38.0288 79.0091L34.5779 66.1301L27.7865 67.9498L31.2375 80.8288ZM38.0288 79.0091L44.8202 77.1893L41.3693 64.3103L34.5779 66.1301L38.0288 79.0091ZM52.02 64.7188L50.2003 57.9274L37.3213 61.3784L39.141 68.1697L52.02 64.7188ZM72.3942 59.2596L70.5744 52.4682L57.6954 55.9191L59.5151 62.7105L72.3942 59.2596ZM75.3261 55.2116L68.5347 57.0314L71.9857 69.9104L78.777 68.0906L75.3261 55.2116ZM58.5858 84.4193L63.6793 83.0545L60.2284 70.1755L55.1349 71.5403L58.5858 84.4193ZM47.6818 34.9456L46.9994 32.3989L34.1204 35.8498L34.8028 38.3965L47.6818 34.9456ZM37.0863 48.326L40.482 47.4161L37.031 34.5371L33.6354 35.447L37.0863 48.326ZM23.9334 38.5794L24.6158 41.1262L37.4948 37.6752L36.8124 35.1285L23.9334 38.5794ZM16.1102 29.7571L17.475 34.8507L30.354 31.3998L28.9892 26.3062L16.1102 29.7571ZM19.1565 20.7521L19.8389 23.2988L32.718 19.8479L32.0355 17.3011L19.1565 20.7521ZM29.7521 7.37166L26.3564 8.28153L29.8073 21.1605L33.203 20.2507L29.7521 7.37166ZM42.905 17.1183L42.2226 14.5715L29.3436 18.0224L30.026 20.5692L42.905 17.1183ZM50.7281 25.9405L49.3633 20.847L36.4843 24.2979L37.8491 29.3914L50.7281 25.9405ZM71.4516 28.5765L70.7692 26.0298L57.8902 29.4807L58.5726 32.0274L71.4516 28.5765ZM60.8561 41.9569L64.2518 41.047L60.8008 28.168L57.4052 29.0779L60.8561 41.9569ZM47.7032 32.2103L48.3856 34.7571L61.2646 31.3061L60.5822 28.7594L47.7032 32.2103ZM39.88 23.388L41.2448 28.4816L54.1238 25.0307L52.759 19.9371L39.88 23.388ZM42.9263 14.383L43.6087 16.9297L56.4877 13.4788L55.8053 10.932L42.9263 14.383ZM53.5219 1.00256L50.1262 1.91243L53.5771 14.7914L56.9728 13.8816L53.5219 1.00256ZM66.6748 10.7492L65.9924 8.20242L53.1134 11.6533L53.7958 14.2001L66.6748 10.7492ZM74.4979 19.5714L73.1331 14.4779L60.2541 17.9288L61.6189 23.0223L74.4979 19.5714ZM72.2936 49.278L72.976 51.8247L85.855 48.3738L85.1726 45.827L72.2936 49.278ZM64.4704 40.4557L65.8352 45.5492L78.7142 42.0983L77.3494 37.0048L64.4704 40.4557ZM67.5168 31.4506L68.1992 33.9974L81.0782 30.5465L80.3958 27.9997L67.5168 31.4506ZM78.1123 18.0702L74.7166 18.9801L78.1675 31.8591L81.5632 30.9492L78.1123 18.0702ZM91.2652 27.8168L90.5828 25.2701L77.7038 28.721L78.3862 31.2678L91.2652 27.8168ZM84.8445 34.9965L86.2093 40.09L99.0884 36.6391L97.7236 31.5456L84.8445 34.9965ZM96.042 45.6442L95.3596 43.0974L82.4806 46.5483L83.163 49.0951L96.042 45.6442ZM85.4465 59.0246L88.8422 58.1147L85.3913 45.2357L81.9956 46.1456L85.4465 59.0246ZM83.163 49.0951C82.7126 47.414 83.7102 45.6861 85.3913 45.2357L88.8422 58.1147C94.274 56.6593 97.4975 51.076 96.042 45.6442L83.163 49.0951ZM89.059 35.1542C84.0961 36.484 81.1508 41.5854 82.4806 46.5483L95.3596 43.0974C95.9357 45.2473 94.6599 47.4572 92.51 48.0332L89.059 35.1542ZM86.2094 40.09C85.6333 37.9401 86.9091 35.7303 89.059 35.1542L92.51 48.0332C97.4729 46.7034 100.418 41.6021 99.0884 36.6391L86.2094 40.09ZM89.7803 37.8462C87.6304 38.4222 85.4206 37.1464 84.8445 34.9965L97.7236 31.5456C96.3937 26.5826 91.2924 23.6373 86.3294 24.9672L89.7803 37.8462ZM78.3862 31.2678C79.716 36.2307 84.8174 39.176 89.7803 37.8462L86.3294 24.9672C88.4793 24.3911 90.6892 25.6669 91.2652 27.8168L78.3862 31.2678ZM81.5632 30.9492C79.8822 31.3997 78.1542 30.4021 77.7038 28.721L90.5828 25.2701C89.1274 19.8383 83.5441 16.6148 78.1123 18.0702L81.5632 30.9492ZM80.3958 27.9997C80.8462 29.6807 79.8486 31.4087 78.1675 31.8591L74.7166 18.9801C69.2848 20.4355 66.0613 26.0188 67.5168 31.4506L80.3958 27.9997ZM74.4998 41.9406C79.4627 40.6108 82.408 35.5094 81.0782 30.5465L68.1992 33.9974C67.6231 31.8475 68.8989 29.6376 71.0488 29.0616L74.4998 41.9406ZM77.3494 37.0048C77.9255 39.1547 76.6497 41.3645 74.4998 41.9406L71.0488 29.0616C66.0859 30.3914 63.1406 35.4927 64.4704 40.4557L77.3494 37.0048ZM73.7785 39.2486C75.9284 38.6726 78.1382 39.9484 78.7142 42.0983L65.8352 45.5492C67.1651 50.5122 72.2664 53.4575 77.2294 52.1276L73.7785 39.2486ZM72.976 51.8247C74.4314 57.2565 80.0147 60.48 85.4465 59.0246L81.9956 46.1456C83.6766 45.6951 85.4046 46.6927 85.855 48.3738L72.976 51.8247ZM85.1726 45.827C83.8428 40.8641 78.7414 37.9188 73.7785 39.2486L77.2294 52.1276C75.0795 52.7037 72.8696 51.4279 72.2936 49.278L85.1726 45.827ZM61.6189 23.0223C61.0429 20.8724 62.3187 18.6626 64.4686 18.0866L67.9195 30.9656C72.8825 29.6357 75.8278 24.5344 74.4979 19.5714L61.6189 23.0223ZM65.1899 20.7785C63.04 21.3546 60.8302 20.0787 60.2541 17.9288L73.1331 14.4779C71.8033 9.51492 66.702 6.56967 61.739 7.8995L65.1899 20.7785ZM53.7958 14.2001C55.1256 19.1631 60.2269 22.1083 65.1899 20.7785L61.739 7.8995C63.8889 7.32343 66.0987 8.59928 66.6748 10.7492L53.7958 14.2001ZM56.9728 13.8816C55.2917 14.332 53.5638 13.3344 53.1134 11.6533L65.9924 8.20242C64.5369 2.77059 58.9537 -0.452893 53.5219 1.00256L56.9728 13.8816ZM55.8053 10.932C56.2558 12.6131 55.2582 14.341 53.5771 14.7914L50.1262 1.91243C44.6943 3.36789 41.4709 8.95114 42.9263 14.383L55.8053 10.932ZM49.9093 24.8729C54.8723 23.5431 57.8176 18.4418 56.4877 13.4788L43.6087 16.9297C43.0327 14.7798 44.3085 12.57 46.4584 11.9939L49.9093 24.8729ZM52.759 19.9371C53.3351 22.087 52.0592 24.2969 49.9093 24.8729L46.4584 11.9939C41.4954 13.3237 38.5502 18.4251 39.88 23.388L52.759 19.9371ZM49.188 22.181C51.3379 21.6049 53.5478 22.8808 54.1238 25.0307L41.2448 28.4816C42.5746 33.4446 47.676 36.3898 52.639 35.06L49.188 22.181ZM60.5822 28.7594C59.2523 23.7964 54.151 20.8511 49.188 22.181L52.639 35.06C50.489 35.636 48.2792 34.3602 47.7032 32.2103L60.5822 28.7594ZM57.4052 29.0779C59.0862 28.6275 60.8141 29.6251 61.2646 31.3061L48.3856 34.7571C49.841 40.1889 55.4242 43.4124 60.8561 41.9569L57.4052 29.0779ZM70.7692 26.0298C71.3453 28.1797 70.0694 30.3895 67.9195 30.9656L64.4686 18.0866C59.5056 19.4164 56.5604 24.5177 57.8902 29.4807L70.7692 26.0298ZM58.5726 32.0274C58.1222 30.3464 59.1198 28.6185 60.8008 28.168L64.2518 41.047C69.6836 39.5916 72.9071 34.0084 71.4516 28.5765L58.5726 32.0274ZM37.8491 29.3914C37.2731 27.2415 38.5489 25.0317 40.6988 24.4556L44.1497 37.3347C49.1127 36.0048 52.058 30.9035 50.7281 25.9405L37.8491 29.3914ZM32.0355 17.3011C32.486 18.9822 31.4884 20.7101 29.8073 21.1605L26.3564 8.28153C20.9246 9.73698 17.7011 15.3202 19.1565 20.7521L32.0355 17.3011ZM28.9892 26.3062C29.5653 28.4561 28.2894 30.666 26.1395 31.242L22.6886 18.363C17.7256 19.6928 14.7804 24.7942 16.1102 29.7571L28.9892 26.3062ZM66.6867 73.9042C68.8366 73.3281 71.0464 74.604 71.6225 76.7539L58.7435 80.2048C60.0733 85.1678 65.1747 88.113 70.1376 86.7832L66.6867 73.9042ZM73.7966 75.2615C73.3462 73.5804 74.3438 71.8525 76.0248 71.4021L79.4758 84.2811C84.9076 82.8256 88.1311 77.2424 86.6756 71.8106L73.7966 75.2615ZM59.5151 62.7105C60.9706 68.1423 66.5538 71.3658 71.9857 69.9104L68.5347 57.0314C70.2158 56.5809 71.9437 57.5785 72.3942 59.2596L59.5151 62.7105ZM44.8202 77.1893C50.252 75.7339 53.4755 70.1506 52.02 64.7188L39.141 68.1697C38.6906 66.4887 39.6882 64.7608 41.3693 64.3103L44.8202 77.1893ZM35.244 55.0331C29.8121 56.4886 26.5887 62.0718 28.0441 67.5037L40.9231 64.0527C41.3736 65.7338 40.3759 67.4617 38.6949 67.9121L35.244 55.0331ZM42.7014 42.1165C37.2696 43.5719 34.0461 49.1552 35.5016 54.587L48.3806 51.1361C48.831 52.8171 47.8334 54.545 46.1523 54.9955L42.7014 42.1165ZM68.7547 45.6768C67.2992 40.245 61.716 37.0215 56.2841 38.477L59.7351 51.356C58.054 51.8064 56.3261 50.8088 55.8757 49.1278L68.7547 45.6768ZM81.6713 53.1343C80.2159 47.7025 74.6326 44.479 69.2008 45.9344L72.6517 58.8134C70.9707 59.2639 69.2428 58.2663 68.7923 56.5852L81.6713 53.1343ZM94.588 60.5917C93.1325 55.1599 87.5493 51.9364 82.1175 53.3919L85.5684 66.2709C83.8873 66.7213 82.1594 65.7237 81.709 64.0427L94.588 60.5917ZM61.4731 90.3919C62.8029 95.3548 67.9043 98.3001 72.8673 96.9703L69.4163 84.0913C71.5662 83.5152 73.7761 84.791 74.3521 86.9409L61.4731 90.3919ZM66.4089 93.2416C64.259 93.8176 62.0492 92.5418 61.4731 90.3919L74.3521 86.9409C73.0223 81.978 67.921 79.0327 62.958 80.3625L66.4089 93.2416ZM64.1651 89.6706C64.7411 91.8205 63.4653 94.0303 61.3154 94.6064L57.8645 81.7273C52.9015 83.0572 49.9562 88.1585 51.2861 93.1215L64.1651 89.6706ZM57.5867 101.065C62.5497 99.7349 65.4949 94.6335 64.1651 89.6706L51.2861 93.1215C50.71 90.9716 51.9858 88.7617 54.1357 88.1857L57.5867 101.065ZM41.4201 27.1476C39.2702 27.7237 37.0604 26.4478 36.4843 24.2979L49.3633 20.847C48.0335 15.884 42.9322 12.9388 37.9692 14.2686L41.4201 27.1476ZM30.6845 97.7318C32.1399 103.164 37.7232 106.387 43.155 104.932L39.7041 92.0526C41.3851 91.6022 43.1131 92.5998 43.5635 94.2809L30.6845 97.7318ZM30.026 20.5692C31.3558 25.5322 36.4571 28.4774 41.4201 27.1476L37.9692 14.2686C40.1191 13.6925 42.3289 14.9684 42.905 17.1183L30.026 20.5692ZM34.4829 96.3369C32.333 96.9129 30.1232 95.6371 29.5472 93.4872L42.4262 90.0363C41.0963 85.0733 35.995 82.128 31.032 83.4578L34.4829 96.3369ZM33.203 20.2507C31.5219 20.7011 29.794 19.7035 29.3436 18.0224L42.2226 14.5715C40.7671 9.13969 35.1839 5.9162 29.7521 7.37166L33.203 20.2507ZM23.0888 89.7585C24.4186 94.7214 29.52 97.6667 34.4829 96.3369L31.032 83.4578C33.1819 82.8818 35.3918 84.1576 35.9678 86.3075L23.0888 89.7585ZM26.1395 31.242C31.1025 29.9122 34.0478 24.8109 32.718 19.8479L19.8389 23.2988C19.2629 21.1489 20.5387 18.9391 22.6886 18.363L26.1395 31.242ZM33.4657 76.9694C33.9161 78.6505 32.9185 80.3784 31.2375 80.8288L27.7865 67.9498C22.3547 69.4053 19.1312 74.9885 20.5867 80.4203L33.4657 76.9694ZM25.4182 28.5501C27.5681 27.974 29.778 29.2499 30.354 31.3998L17.475 34.8507C18.8049 39.8137 23.9062 42.7589 28.8692 41.4291L25.4182 28.5501ZM24.0503 62.2047C22.7204 57.2417 17.6191 54.2965 12.6561 55.6263L16.1071 68.5053C13.9572 69.0814 11.7473 67.8055 11.1713 65.6556L24.0503 62.2047ZM36.8124 35.1285C35.4825 30.1655 30.3812 27.2202 25.4182 28.5501L28.8692 41.4291C26.7193 42.0051 24.5094 40.7293 23.9334 38.5794L36.8124 35.1285ZM20.8733 62.5232C22.5543 62.0728 24.2822 63.0704 24.7327 64.7515L11.8537 68.2024C13.3091 73.6342 18.8924 76.8577 24.3242 75.4023L20.8733 62.5232ZM33.6354 35.447C35.3164 34.9966 37.0443 35.9942 37.4948 37.6752L24.6158 41.1262C26.0712 46.558 31.6545 49.7815 37.0863 48.326L33.6354 35.447ZM22.0407 65.4728C21.5903 63.7917 22.5879 62.0638 24.2689 61.6134L27.7199 74.4924C33.1517 73.0369 36.3752 67.4537 34.9197 62.0219L22.0407 65.4728ZM46.9994 32.3989C47.5755 34.5488 46.2996 36.7586 44.1497 37.3347L40.6988 24.4556C35.7358 25.7855 32.7906 30.8868 34.1204 35.8498L46.9994 32.3989ZM27.9367 51.5319C22.9737 52.8617 20.0285 57.9631 21.3583 62.926L34.2373 59.4751C34.8134 61.625 33.5375 63.8348 31.3876 64.4109L27.9367 51.5319ZM34.8028 38.3965C34.3524 36.7155 35.35 34.9876 37.031 34.5371L40.482 47.4161C45.9138 45.9607 49.1373 40.3775 47.6818 34.9456L34.8028 38.3965ZM25.087 56.4677C24.511 54.3178 25.7868 52.108 27.9367 51.5319L31.3876 64.4109C36.3506 63.0811 39.2959 57.9797 37.966 53.0168L25.087 56.4677ZM28.658 54.2238C26.5081 54.7999 24.2983 53.5241 23.7222 51.3742L36.6012 47.9232C35.2714 42.9603 30.1701 40.015 25.2071 41.3448L28.658 54.2238ZM17.2639 47.6454C18.5937 52.6084 23.695 55.5537 28.658 54.2238L25.2071 41.3448C27.357 40.7688 29.5668 42.0446 30.1429 44.1945L17.2639 47.6454ZM42.068 80.5008C43.7491 80.0503 45.477 81.0479 45.9274 82.729L33.0484 86.1799C34.5039 91.6117 40.0871 94.8352 45.5189 93.3798L42.068 80.5008ZM20.4409 47.3269C18.7598 47.7773 17.0319 46.7797 16.5815 45.0987L29.4605 41.6478C28.005 36.2159 22.4218 32.9924 16.99 34.4479L20.4409 47.3269ZM90.5117 81.324C95.4747 79.9942 98.42 74.8928 97.0901 69.9299L84.2111 73.3808C83.6351 71.2309 84.9109 69.021 87.0608 68.445L90.5117 81.324ZM19.2734 44.3774C19.7239 46.0584 18.7263 47.7863 17.0452 48.2368L13.5943 35.3578C8.16247 36.8132 4.93898 42.3965 6.39443 47.8283L19.2734 44.3774ZM93.3614 76.3882C93.9375 78.5381 92.6616 80.7479 90.5117 81.324L87.0608 68.445C82.0978 69.7748 79.1526 74.8761 80.4824 79.8391L93.3614 76.3882ZM48.5564 82.9344C47.9804 80.7845 49.2562 78.5747 51.4061 77.9986L54.8571 90.8776C59.82 89.5478 62.7653 84.4465 61.4355 79.4835L48.5564 82.9344ZM13.3774 58.3183C18.3404 56.9884 21.2857 51.8871 19.9558 46.9241L7.07684 50.3751C6.50077 48.2252 7.77662 46.0153 9.92652 45.4393L13.3774 58.3183ZM87.2989 93.1033C92.7307 91.6479 95.9542 86.0646 94.4988 80.6328L81.6198 84.0837C81.1693 82.4027 82.1669 80.6747 83.848 80.2243L87.2989 93.1033ZM55.1349 71.5403C50.1719 72.8701 47.2266 77.9714 48.5564 82.9344L61.4355 79.4835C62.0115 81.6334 60.7357 83.8432 58.5858 84.4193L55.1349 71.5403ZM4.71292 61.9269C6.04275 66.8899 11.1441 69.8351 16.1071 68.5053L12.6561 55.6263C14.806 55.0502 17.0159 56.3261 17.5919 58.476L4.71292 61.9269ZM71.6225 76.7539C70.2927 71.7909 65.1914 68.8457 60.2284 70.1755L63.6793 83.0545C61.5294 83.6306 59.3196 82.3547 58.7435 80.2048L71.6225 76.7539ZM16.2271 53.3825C16.8032 55.5324 15.5273 57.7422 13.3774 58.3183L9.92652 45.4393C4.96354 46.7691 2.01829 51.8704 3.34812 56.8334L16.2271 53.3825ZM35.9678 86.3075L33.4657 76.9694L20.5867 80.4203L23.0888 89.7585L35.9678 86.3075ZM54.1357 88.1857L39.7041 92.0526L43.155 104.932L57.5867 101.065L54.1357 88.1857ZM83.848 80.2243L69.4163 84.0913L72.8672 96.9703L87.2989 93.1033L83.848 80.2243ZM81.709 64.0427L84.2111 73.3808L97.0901 69.9299L94.588 60.5917L81.709 64.0427ZM46.1523 54.9955L59.7351 51.356L56.2841 38.477L42.7014 42.1165L46.1523 54.9955ZM62.4094 47.7542L42.0353 53.2134L45.4863 66.0924L65.8604 60.6332L62.4094 47.7542ZM86.6756 71.8106L83.4911 59.9257L70.6121 63.3766L73.7966 75.2615L86.6756 71.8106ZM70.1376 86.7832L79.4758 84.2811L76.0248 71.4021L66.6867 73.9042L70.1376 86.7832ZM45.5189 93.3798L54.8571 90.8776L51.4061 77.9986L42.068 80.5008L45.5189 93.3798ZM29.8639 74.295L33.0484 86.1799L45.9274 82.729L42.7429 70.8441L29.8639 74.295Z" fill="white" mask="url(#path-1-outside-1_7503_44377)"/>
</svg>
