<svg width="121" height="120" viewBox="0 0 121 120" fill="none" xmlns="http://www.w3.org/2000/svg">
<mask id="path-1-outside-1_7498_39514" maskUnits="userSpaceOnUse" x="-0.653789" y="-0.227032" width="121.25" height="121.25" fill="black">
<rect fill="white" x="-0.653789" y="-0.227032" width="121.25" height="121.25"/>
<path d="M52.9523 46.0929C53.4386 47.9078 55.3041 48.9848 57.1189 48.4985L60.4051 47.618C62.22 47.1317 63.297 45.2662 62.8107 43.4513L61.0497 36.879C60.5634 35.0641 58.6979 33.9871 56.883 34.4734L53.5969 35.3539C51.782 35.8402 50.7049 37.7057 51.1912 39.5206L52.9523 46.0929Z"/>
<path d="M63.015 31.0693C61.2002 31.5556 59.3347 30.4785 58.8484 28.6637L57.0873 22.0914C56.601 20.2765 57.6781 18.411 59.493 17.9247L62.7791 17.0442C64.594 16.5579 66.4595 17.6349 66.9458 19.4498L68.7068 26.0221C69.1931 27.837 68.1161 29.7025 66.3012 30.1888L63.015 31.0693Z"/>
<path d="M76.1596 27.5472C74.3447 28.0335 72.4793 26.9565 71.993 25.1416L70.2319 18.5693C69.7456 16.7544 70.8227 14.8889 72.6375 14.4026L75.9237 13.5221C77.7386 13.0358 79.6041 14.1128 80.0904 15.9277L81.8514 22.5C82.3377 24.3149 81.2607 26.1804 79.4458 26.6667L76.1596 27.5472Z"/>
<path d="M89.9804 39.6933C88.1655 40.1796 86.3 39.1026 85.8137 37.2877L84.0527 30.7154C83.5664 28.9005 84.6434 27.035 86.4583 26.5487L89.7445 25.6682C91.5594 25.1819 93.4248 26.2589 93.9111 28.0738L95.6722 34.6461C96.1585 36.461 95.0814 38.3265 93.2666 38.8128L89.9804 39.6933Z"/>
<path d="M66.5961 47.7201C67.9573 47.3554 68.7651 45.9563 68.4003 44.5951L67.2997 40.4875C66.8134 38.6726 67.8904 36.8071 69.7053 36.3208L76.2776 34.5597C78.0925 34.0735 79.958 35.1505 80.4443 36.9654L81.5449 41.0731C81.9096 42.4342 83.3087 43.242 84.6699 42.8773C86.0311 42.5126 87.4302 43.3203 87.7949 44.6815L88.015 45.503C88.2582 46.4105 89.1909 46.949 90.0984 46.7058C91.0058 46.4627 91.9386 47.0012 92.1817 47.9087L93.5025 52.8379C93.9888 54.6528 92.9117 56.5182 91.0969 57.0045L86.1676 58.3253C85.2602 58.5685 84.3275 58.03 84.0843 57.1225C83.8412 56.2151 82.9084 55.6766 82.001 55.9197L75.4287 57.6807C74.5212 57.9239 73.9827 58.8566 74.2259 59.7641C74.469 60.6715 73.9305 61.6043 73.0231 61.8474L68.0938 63.1682C66.2789 63.6545 64.4135 62.5774 63.9272 60.7626L62.6064 55.8333C62.3632 54.9259 62.9018 53.9932 63.8092 53.75C64.7166 53.5069 65.2552 52.5741 65.012 51.6667L64.7919 50.8451C64.4272 49.484 65.2349 48.0849 66.5961 47.7201Z"/>
<path d="M26.0501 90.2831C26.5364 92.098 28.4019 93.175 30.2168 92.6888L33.5029 91.8082C35.3178 91.3219 36.3949 89.4565 35.9086 87.6416L34.1475 81.0693C33.6612 79.2544 31.7958 78.1773 29.9809 78.6636L26.6947 79.5442C24.8798 80.0305 23.8028 81.8959 24.2891 83.7108L26.0501 90.2831Z"/>
<path d="M36.1129 75.2595C34.298 75.7458 32.4325 74.6688 31.9462 72.8539L30.1852 66.2816C29.6989 64.4667 30.7759 62.6012 32.5908 62.1149L35.877 61.2344C37.6919 60.7481 39.5573 61.8252 40.0436 63.6401L41.8047 70.2123C42.291 72.0272 41.2139 73.8927 39.399 74.379L36.1129 75.2595Z"/>
<path d="M49.2575 71.7375C47.4426 72.2238 45.5771 71.1467 45.0908 69.3318L43.3298 62.7595C42.8435 60.9446 43.9205 59.0792 45.7354 58.5929L49.0215 57.7123C50.8364 57.226 52.7019 58.3031 53.1882 60.118L54.9493 66.6903C55.4355 68.5052 54.3585 70.3706 52.5436 70.8569L49.2575 71.7375Z"/>
<path d="M63.0783 83.8836C61.2634 84.3698 59.3979 83.2928 58.9116 81.4779L57.1506 74.9056C56.6643 73.0907 57.7413 71.2253 59.5562 70.739L62.8423 69.8584C64.6572 69.3721 66.5227 70.4492 67.009 72.2641L68.77 78.8364C69.2563 80.6513 68.1793 82.5167 66.3644 83.003L63.0783 83.8836Z"/>
<path d="M39.694 91.9104C41.0551 91.5457 41.8629 90.1466 41.4982 88.7854L40.3975 84.6777C39.9112 82.8628 40.9883 80.9973 42.8032 80.511L49.3754 78.75C51.1903 78.2637 53.0558 79.3407 53.5421 81.1556L54.6428 85.2633C55.0075 86.6245 56.4066 87.4323 57.7678 87.0675C59.1289 86.7028 60.528 87.5106 60.8928 88.8718L61.1129 89.6933C61.356 90.6007 62.2888 91.1393 63.1962 90.8961C64.1037 90.653 65.0364 91.1915 65.2796 92.0989L66.6003 97.0281C67.0866 98.843 66.0096 100.709 64.1947 101.195L59.2655 102.516C58.3581 102.759 57.4253 102.22 57.1822 101.313C56.939 100.405 56.0063 99.8668 55.0988 100.11L48.5265 101.871C47.6191 102.114 47.0806 103.047 47.3237 103.954C47.5669 104.862 47.0284 105.795 46.1209 106.038L41.1917 107.358C39.3768 107.845 37.5113 106.768 37.025 104.953L35.7042 100.024C35.4611 99.1162 35.9996 98.1834 36.9071 97.9403C37.8145 97.6971 38.353 96.7644 38.1099 95.8569L37.8897 95.0354C37.525 93.6742 38.3328 92.2751 39.694 91.9104Z"/>
</mask>
<path d="M52.9523 46.0929C53.4386 47.9078 55.3041 48.9848 57.1189 48.4985L60.4051 47.618C62.22 47.1317 63.297 45.2662 62.8107 43.4513L61.0497 36.879C60.5634 35.0641 58.6979 33.9871 56.883 34.4734L53.5969 35.3539C51.782 35.8402 50.7049 37.7057 51.1912 39.5206L52.9523 46.0929Z" fill="#212224"/>
<path d="M63.015 31.0693C61.2002 31.5556 59.3347 30.4785 58.8484 28.6637L57.0873 22.0914C56.601 20.2765 57.6781 18.411 59.493 17.9247L62.7791 17.0442C64.594 16.5579 66.4595 17.6349 66.9458 19.4498L68.7068 26.0221C69.1931 27.837 68.1161 29.7025 66.3012 30.1888L63.015 31.0693Z" fill="#212224"/>
<path d="M76.1596 27.5472C74.3447 28.0335 72.4793 26.9565 71.993 25.1416L70.2319 18.5693C69.7456 16.7544 70.8227 14.8889 72.6375 14.4026L75.9237 13.5221C77.7386 13.0358 79.6041 14.1128 80.0904 15.9277L81.8514 22.5C82.3377 24.3149 81.2607 26.1804 79.4458 26.6667L76.1596 27.5472Z" fill="#212224"/>
<path d="M89.9804 39.6933C88.1655 40.1796 86.3 39.1026 85.8137 37.2877L84.0527 30.7154C83.5664 28.9005 84.6434 27.035 86.4583 26.5487L89.7445 25.6682C91.5594 25.1819 93.4248 26.2589 93.9111 28.0738L95.6722 34.6461C96.1585 36.461 95.0814 38.3265 93.2666 38.8128L89.9804 39.6933Z" fill="#212224"/>
<path d="M66.5961 47.7201C67.9573 47.3554 68.7651 45.9563 68.4003 44.5951L67.2997 40.4875C66.8134 38.6726 67.8904 36.8071 69.7053 36.3208L76.2776 34.5597C78.0925 34.0735 79.958 35.1505 80.4443 36.9654L81.5449 41.0731C81.9096 42.4342 83.3087 43.242 84.6699 42.8773C86.0311 42.5126 87.4302 43.3203 87.7949 44.6815L88.015 45.503C88.2582 46.4105 89.1909 46.949 90.0984 46.7058C91.0058 46.4627 91.9386 47.0012 92.1817 47.9087L93.5025 52.8379C93.9888 54.6528 92.9117 56.5182 91.0969 57.0045L86.1676 58.3253C85.2602 58.5685 84.3275 58.03 84.0843 57.1225C83.8412 56.2151 82.9084 55.6766 82.001 55.9197L75.4287 57.6807C74.5212 57.9239 73.9827 58.8566 74.2259 59.7641C74.469 60.6715 73.9305 61.6043 73.0231 61.8474L68.0938 63.1682C66.2789 63.6545 64.4135 62.5774 63.9272 60.7626L62.6064 55.8333C62.3632 54.9259 62.9018 53.9932 63.8092 53.75C64.7166 53.5069 65.2552 52.5741 65.012 51.6667L64.7919 50.8451C64.4272 49.484 65.2349 48.0849 66.5961 47.7201Z" fill="#212224"/>
<path d="M26.0501 90.2831C26.5364 92.098 28.4019 93.175 30.2168 92.6888L33.5029 91.8082C35.3178 91.3219 36.3949 89.4565 35.9086 87.6416L34.1475 81.0693C33.6612 79.2544 31.7958 78.1773 29.9809 78.6636L26.6947 79.5442C24.8798 80.0305 23.8028 81.8959 24.2891 83.7108L26.0501 90.2831Z" fill="#212224"/>
<path d="M36.1129 75.2595C34.298 75.7458 32.4325 74.6688 31.9462 72.8539L30.1852 66.2816C29.6989 64.4667 30.7759 62.6012 32.5908 62.1149L35.877 61.2344C37.6919 60.7481 39.5573 61.8252 40.0436 63.6401L41.8047 70.2123C42.291 72.0272 41.2139 73.8927 39.399 74.379L36.1129 75.2595Z" fill="#212224"/>
<path d="M49.2575 71.7375C47.4426 72.2238 45.5771 71.1467 45.0908 69.3318L43.3298 62.7595C42.8435 60.9446 43.9205 59.0792 45.7354 58.5929L49.0215 57.7123C50.8364 57.226 52.7019 58.3031 53.1882 60.118L54.9493 66.6903C55.4355 68.5052 54.3585 70.3706 52.5436 70.8569L49.2575 71.7375Z" fill="#212224"/>
<path d="M63.0783 83.8836C61.2634 84.3698 59.3979 83.2928 58.9116 81.4779L57.1506 74.9056C56.6643 73.0907 57.7413 71.2253 59.5562 70.739L62.8423 69.8584C64.6572 69.3721 66.5227 70.4492 67.009 72.2641L68.77 78.8364C69.2563 80.6513 68.1793 82.5167 66.3644 83.003L63.0783 83.8836Z" fill="#212224"/>
<path d="M39.694 91.9104C41.0551 91.5457 41.8629 90.1466 41.4982 88.7854L40.3975 84.6777C39.9112 82.8628 40.9883 80.9973 42.8032 80.511L49.3754 78.75C51.1903 78.2637 53.0558 79.3407 53.5421 81.1556L54.6428 85.2633C55.0075 86.6245 56.4066 87.4323 57.7678 87.0675C59.1289 86.7028 60.528 87.5106 60.8928 88.8718L61.1129 89.6933C61.356 90.6007 62.2888 91.1393 63.1962 90.8961C64.1037 90.653 65.0364 91.1915 65.2796 92.0989L66.6003 97.0281C67.0866 98.843 66.0096 100.709 64.1947 101.195L59.2655 102.516C58.3581 102.759 57.4253 102.22 57.1822 101.313C56.939 100.405 56.0063 99.8668 55.0988 100.11L48.5265 101.871C47.6191 102.114 47.0806 103.047 47.3237 103.954C47.5669 104.862 47.0284 105.795 46.1209 106.038L41.1917 107.358C39.3768 107.845 37.5113 106.768 37.025 104.953L35.7042 100.024C35.4611 99.1162 35.9996 98.1834 36.9071 97.9403C37.8145 97.6971 38.353 96.7644 38.1099 95.8569L37.8897 95.0354C37.525 93.6742 38.3328 92.2751 39.694 91.9104Z" fill="#212224"/>
<path d="M52.9523 46.0929C53.4386 47.9078 55.3041 48.9848 57.1189 48.4985L60.4051 47.618C62.22 47.1317 63.297 45.2662 62.8107 43.4513L61.0497 36.879C60.5634 35.0641 58.6979 33.9871 56.883 34.4734L53.5969 35.3539C51.782 35.8402 50.7049 37.7057 51.1912 39.5206L52.9523 46.0929Z" stroke="white" stroke-width="16.6667" mask="url(#path-1-outside-1_7498_39514)"/>
<path d="M63.015 31.0693C61.2002 31.5556 59.3347 30.4785 58.8484 28.6637L57.0873 22.0914C56.601 20.2765 57.6781 18.411 59.493 17.9247L62.7791 17.0442C64.594 16.5579 66.4595 17.6349 66.9458 19.4498L68.7068 26.0221C69.1931 27.837 68.1161 29.7025 66.3012 30.1888L63.015 31.0693Z" stroke="white" stroke-width="16.6667" mask="url(#path-1-outside-1_7498_39514)"/>
<path d="M76.1596 27.5472C74.3447 28.0335 72.4793 26.9565 71.993 25.1416L70.2319 18.5693C69.7456 16.7544 70.8227 14.8889 72.6375 14.4026L75.9237 13.5221C77.7386 13.0358 79.6041 14.1128 80.0904 15.9277L81.8514 22.5C82.3377 24.3149 81.2607 26.1804 79.4458 26.6667L76.1596 27.5472Z" stroke="white" stroke-width="16.6667" mask="url(#path-1-outside-1_7498_39514)"/>
<path d="M89.9804 39.6933C88.1655 40.1796 86.3 39.1026 85.8137 37.2877L84.0527 30.7154C83.5664 28.9005 84.6434 27.035 86.4583 26.5487L89.7445 25.6682C91.5594 25.1819 93.4248 26.2589 93.9111 28.0738L95.6722 34.6461C96.1585 36.461 95.0814 38.3265 93.2666 38.8128L89.9804 39.6933Z" stroke="white" stroke-width="16.6667" mask="url(#path-1-outside-1_7498_39514)"/>
<path d="M66.5961 47.7201C67.9573 47.3554 68.7651 45.9563 68.4003 44.5951L67.2997 40.4875C66.8134 38.6726 67.8904 36.8071 69.7053 36.3208L76.2776 34.5597C78.0925 34.0735 79.958 35.1505 80.4443 36.9654L81.5449 41.0731C81.9096 42.4342 83.3087 43.242 84.6699 42.8773C86.0311 42.5126 87.4302 43.3203 87.7949 44.6815L88.015 45.503C88.2582 46.4105 89.1909 46.949 90.0984 46.7058C91.0058 46.4627 91.9386 47.0012 92.1817 47.9087L93.5025 52.8379C93.9888 54.6528 92.9117 56.5182 91.0969 57.0045L86.1676 58.3253C85.2602 58.5685 84.3275 58.03 84.0843 57.1225C83.8412 56.2151 82.9084 55.6766 82.001 55.9197L75.4287 57.6807C74.5212 57.9239 73.9827 58.8566 74.2259 59.7641C74.469 60.6715 73.9305 61.6043 73.0231 61.8474L68.0938 63.1682C66.2789 63.6545 64.4135 62.5774 63.9272 60.7626L62.6064 55.8333C62.3632 54.9259 62.9018 53.9932 63.8092 53.75C64.7166 53.5069 65.2552 52.5741 65.012 51.6667L64.7919 50.8451C64.4272 49.484 65.2349 48.0849 66.5961 47.7201Z" stroke="white" stroke-width="16.6667" mask="url(#path-1-outside-1_7498_39514)"/>
<path d="M26.0501 90.2831C26.5364 92.098 28.4019 93.175 30.2168 92.6888L33.5029 91.8082C35.3178 91.3219 36.3949 89.4565 35.9086 87.6416L34.1475 81.0693C33.6612 79.2544 31.7958 78.1773 29.9809 78.6636L26.6947 79.5442C24.8798 80.0305 23.8028 81.8959 24.2891 83.7108L26.0501 90.2831Z" stroke="white" stroke-width="16.6667" mask="url(#path-1-outside-1_7498_39514)"/>
<path d="M36.1129 75.2595C34.298 75.7458 32.4325 74.6688 31.9462 72.8539L30.1852 66.2816C29.6989 64.4667 30.7759 62.6012 32.5908 62.1149L35.877 61.2344C37.6919 60.7481 39.5573 61.8252 40.0436 63.6401L41.8047 70.2123C42.291 72.0272 41.2139 73.8927 39.399 74.379L36.1129 75.2595Z" stroke="white" stroke-width="16.6667" mask="url(#path-1-outside-1_7498_39514)"/>
<path d="M49.2575 71.7375C47.4426 72.2238 45.5771 71.1467 45.0908 69.3318L43.3298 62.7595C42.8435 60.9446 43.9205 59.0792 45.7354 58.5929L49.0215 57.7123C50.8364 57.226 52.7019 58.3031 53.1882 60.118L54.9493 66.6903C55.4355 68.5052 54.3585 70.3706 52.5436 70.8569L49.2575 71.7375Z" stroke="white" stroke-width="16.6667" mask="url(#path-1-outside-1_7498_39514)"/>
<path d="M63.0783 83.8836C61.2634 84.3698 59.3979 83.2928 58.9116 81.4779L57.1506 74.9056C56.6643 73.0907 57.7413 71.2253 59.5562 70.739L62.8423 69.8584C64.6572 69.3721 66.5227 70.4492 67.009 72.2641L68.77 78.8364C69.2563 80.6513 68.1793 82.5167 66.3644 83.003L63.0783 83.8836Z" stroke="white" stroke-width="16.6667" mask="url(#path-1-outside-1_7498_39514)"/>
<path d="M39.694 91.9104C41.0551 91.5457 41.8629 90.1466 41.4982 88.7854L40.3975 84.6777C39.9112 82.8628 40.9883 80.9973 42.8032 80.511L49.3754 78.75C51.1903 78.2637 53.0558 79.3407 53.5421 81.1556L54.6428 85.2633C55.0075 86.6245 56.4066 87.4323 57.7678 87.0675C59.1289 86.7028 60.528 87.5106 60.8928 88.8718L61.1129 89.6933C61.356 90.6007 62.2888 91.1393 63.1962 90.8961C64.1037 90.653 65.0364 91.1915 65.2796 92.0989L66.6003 97.0281C67.0866 98.843 66.0096 100.709 64.1947 101.195L59.2655 102.516C58.3581 102.759 57.4253 102.22 57.1822 101.313C56.939 100.405 56.0063 99.8668 55.0988 100.11L48.5265 101.871C47.6191 102.114 47.0806 103.047 47.3237 103.954C47.5669 104.862 47.0284 105.795 46.1209 106.038L41.1917 107.358C39.3768 107.845 37.5113 106.768 37.025 104.953L35.7042 100.024C35.4611 99.1162 35.9996 98.1834 36.9071 97.9403C37.8145 97.6971 38.353 96.7644 38.1099 95.8569L37.8897 95.0354C37.525 93.6742 38.3328 92.2751 39.694 91.9104Z" stroke="white" stroke-width="16.6667" mask="url(#path-1-outside-1_7498_39514)"/>
</svg>
