<svg xmlns="http://www.w3.org/2000/svg" width="48" height="32" viewBox="0 0 48 32" fill="none">
  <path d="M34.4 5.60005C34.4 5.15822 34.0418 4.80005 33.6 4.80005H32C31.5582 4.80005 31.2 5.15822 31.2 5.60005V7.20005C31.2 7.64188 31.5582 8.00005 32 8.00005H34.4V5.60005Z" fill="white"/>
  <path d="M37.6 11.2V8.80005C37.6 8.35822 37.2418 8.00005 36.8 8.00005H34.4V10.4C34.4 10.8419 34.7582 11.2 35.2 11.2H37.6Z" fill="white"/>
  <path d="M36.8 14.4C37.2418 14.4 37.6 14.0419 37.6 13.6V11.2H40C40.4418 11.2 40.8 11.5582 40.8 12V13.6C40.8 14.0419 41.1582 14.4 41.6 14.4H43.2C43.6418 14.4 44 14.7582 44 15.2V16.8C44 17.2419 43.6418 17.6 43.2 17.6H41.6C41.1582 17.6 40.8 17.9582 40.8 18.4V20C40.8 20.4419 40.4418 20.8 40 20.8H37.6V23.2C37.6 23.6419 37.2418 24 36.8 24H34.4V26.4C34.4 26.8419 34.0418 27.2 33.6 27.2H32C31.5582 27.2 31.2 26.8419 31.2 26.4V24.8C31.2 24.3582 31.5582 24 32 24H34.4V21.6C34.4 21.1582 34.7582 20.8 35.2 20.8H37.6V18.4C37.6 17.9582 37.2418 17.6 36.8 17.6H4.79922C4.35739 17.6 3.99922 17.2419 3.99922 16.8V15.2C3.99922 14.7582 4.35739 14.4 4.79922 14.4H36.8Z" fill="white"/>
</svg>