<svg xmlns="http://www.w3.org/2000/svg" width="48" height="32" viewBox="0 0 48 32" fill="none">
  <path d="M34.4 5.5998C34.4 5.15798 34.0418 4.7998 33.6 4.7998H32C31.5582 4.7998 31.2 5.15798 31.2 5.5998V7.1998C31.2 7.64163 31.5582 7.9998 32 7.9998H34.4V5.5998Z" fill="white"/>
  <path d="M37.6 11.1998V8.7998C37.6 8.35798 37.2418 7.9998 36.8 7.9998H34.4V10.3998C34.4 10.8416 34.7582 11.1998 35.2 11.1998H37.6Z" fill="white"/>
  <path d="M36.8 14.3998C37.2418 14.3998 37.6 14.0416 37.6 13.5998V11.1998H40C40.4418 11.1998 40.8 11.558 40.8 11.9998V13.5998C40.8 14.0416 41.1582 14.3998 41.6 14.3998H43.2C43.6418 14.3998 44 14.758 44 15.1998V16.7998C44 17.2416 43.6418 17.5998 43.2 17.5998H41.6C41.1582 17.5998 40.8 17.958 40.8 18.3998V19.9998C40.8 20.4416 40.4418 20.7998 40 20.7998H37.6V23.1998C37.6 23.6416 37.2418 23.9998 36.8 23.9998H34.4V26.3998C34.4 26.8416 34.0418 27.1998 33.6 27.1998H32C31.5582 27.1998 31.2 26.8416 31.2 26.3998V24.7998C31.2 24.358 31.5582 23.9998 32 23.9998H34.4V21.5998C34.4 21.158 34.7582 20.7998 35.2 20.7998H37.6V18.3998C37.6 17.958 37.2418 17.5998 36.8 17.5998H4.79922C4.35739 17.5998 3.99922 17.2416 3.99922 16.7998V15.1998C3.99922 14.758 4.35739 14.3998 4.79922 14.3998H36.8Z" fill="white"/>
</svg>