<svg width="24" height="20" viewBox="0 0 24 20" fill="none" xmlns="http://www.w3.org/2000/svg">
<path fill-rule="evenodd" clip-rule="evenodd" d="M12 1C12 0.447715 12.4477 0 13 0L15 0C15.5523 0 16 0.447715 16 1V3C16 3.55228 16.4477 4 17 4L19 4C19.5523 4 20 4.44772 20 5V7C20 7.55228 20.4477 8 21 8H23C23.5523 8 24 8.44771 24 9V11C24 11.5523 23.5523 12 23 12H21C20.4477 12 20 12.4477 20 13V15C20 15.5523 19.5523 16 19 16H17C16.4477 16 16 16.4477 16 17V19C16 19.5523 15.5523 20 15 20H13C12.4477 20 12 19.5523 12 19L12 16V15C12 14.4477 11.5523 14 11 14H8L4 14H1C0.447715 14 0 13.5523 0 13L0 10L0 7C0 6.44772 0.447715 6 1 6L4 6H8L11 6C11.5523 6 12 5.55228 12 5V4V1Z" fill="#FF7710"/>
</svg>
