<svg xmlns="http://www.w3.org/2000/svg" width="20" height="21" viewBox="0 0 20 21" fill="none">
  <path d="M18.3305 7.885C18.3334 9.16729 17.8394 10.4008 16.9522 11.3267C14.918 13.4358 12.9447 15.635 10.8355 17.6667C10.3514 18.125 9.58385 18.1083 9.12135 17.6292L3.04219 11.3275C1.20469 9.4225 1.20469 6.3475 3.04219 4.44333C3.47647 3.9875 3.9988 3.6246 4.57751 3.37664C5.15622 3.12869 5.77926 3.00083 6.40885 3.00083C7.03845 3.00083 7.66149 3.12869 8.2402 3.37664C8.81891 3.6246 9.34124 3.9875 9.77552 4.44333L9.99719 4.67167L10.218 4.44333C10.6532 3.98858 11.1757 3.62635 11.7542 3.37834C12.3327 3.13033 12.9553 3.00164 13.5847 3C14.8514 3 16.0622 3.52 16.9514 4.44333C17.8389 5.36904 18.3332 6.60259 18.3305 7.885Z" stroke="#4D5359" stroke-width="1.6" stroke-linejoin="round"/>
</svg>