<svg xmlns="http://www.w3.org/2000/svg" width="16" height="16" viewBox="0 0 16 16" fill="none">
  <path d="M14.6691 5.908C14.6714 6.93383 14.2762 7.92067 13.5664 8.66133C11.9391 10.3487 10.3604 12.108 8.6731 13.7333C8.28577 14.1 7.67177 14.0867 7.30177 13.7033L2.43844 8.662C0.968438 7.138 0.968438 4.678 2.43844 3.15467C2.78587 2.79 3.20373 2.49968 3.6667 2.30132C4.12967 2.10295 4.6281 2.00067 5.13177 2.00067C5.63545 2.00067 6.13388 2.10295 6.59684 2.30132C7.05981 2.49968 7.47768 2.79 7.8251 3.15467L8.00244 3.33733L8.1791 3.15467C8.52724 2.79086 8.94522 2.50108 9.40802 2.30267C9.87082 2.10426 10.3689 2.00132 10.8724 2C11.8858 2 12.8544 2.416 13.5658 3.15467C14.2758 3.89523 14.6712 4.88207 14.6691 5.908Z" stroke="#4D5359" stroke-width="1.2" stroke-linejoin="round"/>
</svg>