<svg width="80" height="80" viewBox="0 0 80 80" fill="none" xmlns="http://www.w3.org/2000/svg">
<circle cx="40" cy="40" r="40" fill="#F6F8F9"/>
<path d="M51.1127 36.5134C51.1166 38.2232 50.4579 39.8679 49.2749 41.1024C46.5627 43.9147 43.9316 46.8469 41.1193 49.5559C40.4738 50.167 39.4504 50.1448 38.8338 49.5059L30.7281 41.1035C28.2781 38.5635 28.2781 34.4634 30.7281 31.9245C31.3072 31.3167 32.0036 30.8328 32.7753 30.5022C33.5469 30.1716 34.3776 30.0011 35.2171 30.0011C36.0565 30.0011 36.8873 30.1716 37.6589 30.5022C38.4305 30.8328 39.1269 31.3167 39.706 31.9245L40.0015 32.2289L40.296 31.9245C40.8762 31.3181 41.5729 30.8351 42.3442 30.5045C43.1155 30.1738 43.9457 30.0022 44.7849 30C46.4738 30 48.0883 30.6933 49.2738 31.9245C50.4572 33.1588 51.1163 34.8035 51.1127 36.5134Z" fill="#ADB3BA" stroke="#ADB3BA" stroke-width="2.6" stroke-linejoin="round"/>
</svg>
