<svg xmlns="http://www.w3.org/2000/svg" width="24" height="24" viewBox="0 0 24 24" fill="none">
  <path d="M9.60039 4.19961C9.60039 3.86824 9.86902 3.59961 10.2004 3.59961H11.4004C11.7318 3.59961 12.0004 3.86824 12.0004 4.19961V5.39961C12.0004 5.73098 11.7318 5.99961 11.4004 5.99961H9.60039V4.19961Z" fill="#212224"/>
  <path d="M7.20039 8.39961V6.59961C7.20039 6.26824 7.46902 5.99961 7.80039 5.99961H9.60039V7.79961C9.60039 8.13098 9.33176 8.39961 9.00039 8.39961H7.20039Z" fill="#212224"/>
  <path d="M7.80039 10.7996C7.46902 10.7996 7.20039 10.531 7.20039 10.1996V8.39961H5.40039C5.06902 8.39961 4.80039 8.66824 4.80039 8.99961V10.1996C4.80039 10.531 4.53176 10.7996 4.20039 10.7996H3.00039C2.66902 10.7996 2.40039 11.0682 2.40039 11.3996V12.5996C2.40039 12.931 2.66902 13.1996 3.00039 13.1996H4.20039C4.53176 13.1996 4.80039 13.4682 4.80039 13.7996V14.9996C4.80039 15.331 5.06902 15.5996 5.40039 15.5996H7.20039V17.3996C7.20039 17.731 7.46902 17.9996 7.80039 17.9996H9.60039V19.7996C9.60039 20.131 9.86902 20.3996 10.2004 20.3996H11.4004C11.7318 20.3996 12.0004 20.131 12.0004 19.7996V18.5996C12.0004 18.2682 11.7318 17.9996 11.4004 17.9996H9.60039V16.1996C9.60039 15.8682 9.33176 15.5996 9.00039 15.5996H7.20039V13.7996C7.20039 13.4682 7.46902 13.1996 7.80039 13.1996H21.0004C21.3318 13.1996 21.6004 12.931 21.6004 12.5996V11.3996C21.6004 11.0682 21.3318 10.7996 21.0004 10.7996H7.80039Z" fill="#212224"/>
</svg>