<svg width="30" height="29" viewBox="0 0 30 29" fill="none" xmlns="http://www.w3.org/2000/svg">
<g id="Frame" clip-path="url(#clip0_1353_1990)">
<path id="Vector" fill-rule="evenodd" clip-rule="evenodd" d="M29.0998 14.8308C29.0998 13.8022 29.005 12.8146 28.8308 11.8652H14.896V17.474H22.8593C22.5164 19.2867 21.4738 20.822 19.9071 21.8506V25.4883H24.6895C27.4871 22.9639 29.1012 19.2471 29.1012 14.8308H29.0998Z" fill="#3E82F1"/>
<path id="Vector_2" fill-rule="evenodd" clip-rule="evenodd" d="M14.8971 29.0007C18.892 29.0007 22.2415 27.7016 24.6892 25.4873L19.9067 21.8497C18.5811 22.7198 16.8875 23.2334 14.8957 23.2334C11.0415 23.2334 7.77982 20.6831 6.61592 17.2559H1.67456V21.0123C4.1097 25.751 9.11239 29.0007 14.8971 29.0007Z" fill="#32A753"/>
<path id="Vector_3" fill-rule="evenodd" clip-rule="evenodd" d="M6.61631 17.2566C6.32081 16.3865 6.15215 15.4576 6.15215 14.5014C6.15215 13.5452 6.32081 12.6164 6.61631 11.7462V7.98975H1.67356C0.671351 9.94721 0.0998535 12.1615 0.0998535 14.5014C0.0998535 16.8414 0.671351 19.0556 1.67356 21.0131L6.61631 17.2566Z" fill="#F9BB00"/>
<path id="Vector_4" fill-rule="evenodd" clip-rule="evenodd" d="M14.8971 5.7677C17.0687 5.7677 19.0202 6.49988 20.5535 7.93553L24.7979 3.77609C22.2345 1.43751 18.885 0.000488281 14.8971 0.000488281C9.11239 0.000488281 4.1097 3.25018 1.67456 7.98881L6.61731 11.7453C7.78122 8.31801 11.0429 5.7677 14.8971 5.7677Z" fill="#E74133"/>
</g>
<defs>
<clipPath id="clip0_1353_1990">
<rect width="29" height="29" fill="white" transform="translate(0.0996094)"/>
</clipPath>
</defs>
</svg>
