<svg xmlns="http://www.w3.org/2000/svg" width="144" height="17" viewBox="0 0 144 17" fill="none">
  <g clip-path="url(#clip0_1555_1977)">
    <path d="M92.8133 13.1107H101.41V16.1774H89.41V0.710903H92.8133V13.1107ZM74.1167 16.1774H86.1167V13.1507H77.4733V9.95745H85.1167V6.93082H77.4733V3.73753H86.1167V0.710903H74.1167V16.1774ZM104.627 16.1774H108.03V0.710903H104.627V16.1774ZM39.4033 0.710903H36V16.1774H48V13.1107H39.4033V0.710903ZM51.2167 16.1774H54.62V0.710903H51.2167V16.1774ZM140.597 0.710903V10.3774L133.373 0.877567L133.247 0.710903H129.97V16.1774H133.373V6.35416L140.597 15.8407L140.853 16.174H144V0.710903H140.597ZM126.667 5.29418C126.266 4.34878 125.68 3.49312 124.943 2.77754C124.189 2.0493 123.304 1.47124 122.333 1.07423C120.202 0.234371 117.831 0.234371 115.7 1.07423C114.733 1.46546 113.852 2.04371 113.108 2.77584C112.365 3.50798 111.773 4.37962 111.367 5.34084C110.945 6.32102 110.73 7.37726 110.733 8.44414V8.48747C110.722 9.55283 110.926 10.6095 111.333 11.5941C111.733 12.5402 112.319 13.3961 113.057 14.1107C113.811 14.8378 114.697 15.4147 115.667 15.8107C116.717 16.2403 117.842 16.4556 118.977 16.444C120.119 16.457 121.252 16.2428 122.31 15.814C123.277 15.4238 124.158 14.8463 124.902 14.1147C125.646 13.3831 126.237 12.5118 126.643 11.5508C127.063 10.5691 127.275 9.51154 127.267 8.44414V8.4008C127.278 7.33545 127.074 6.27882 126.667 5.29418ZM123.763 8.48747C123.772 9.13496 123.659 9.77829 123.43 10.3841C123.205 10.9584 122.877 11.4861 122.46 11.9408C122.04 12.3935 121.529 12.7524 120.96 12.9941C120.355 13.2515 119.704 13.3809 119.047 13.3741C118.384 13.3838 117.726 13.2496 117.12 12.9807C116.55 12.7279 116.036 12.3651 115.606 11.9133C115.177 11.4614 114.84 10.9293 114.617 10.3474C114.387 9.73957 114.274 9.09388 114.283 8.44414V8.4008C114.274 7.75321 114.387 7.10964 114.617 6.50416C114.841 5.92991 115.17 5.40215 115.587 4.94752C116.004 4.49727 116.51 4.13859 117.073 3.8942C117.682 3.6349 118.338 3.50547 119 3.5142C119.66 3.50728 120.313 3.64138 120.917 3.90753C121.489 4.15801 122.005 4.51942 122.437 4.97084C122.868 5.42227 123.206 5.95475 123.43 6.53749C123.658 7.14703 123.771 7.79347 123.763 8.44414V8.48747ZM71.6667 0.710903H67.5733L61.2967 7.34748V0.710903H57.8933V16.1774H61.2967V11.4441L63.0867 9.59079L67.8833 16.1774H71.97L65.3833 7.27415L71.6667 0.710903ZM21 6.33416L30 0.710903H21V6.33416Z" fill="#212224"/>
    <path d="M21 12.1775V16.1774H9V6.3342L0 0.710938H10.6V12.1775H21Z" fill="#FF7710"/>
  </g>
  <defs>
    <clipPath id="clip0_1555_1977">
      <rect width="144" height="15.9998" fill="white" transform="translate(0 0.444336)"/>
    </clipPath>
  </defs>
</svg>