<svg width="152" height="152" viewBox="0 0 152 152" fill="none" xmlns="http://www.w3.org/2000/svg">
<rect x="0.5" y="0.5" width="151" height="151" rx="11.5" fill="#009FE3" stroke="#DCDFE3"/>
<path d="M76.3 47.7695C66.97 47.7695 59.42 55.3295 59.42 64.6495C59.42 73.9695 66.97 81.5295 76.3 81.5295C85.63 81.5295 93.18 73.9695 93.18 64.6495C93.18 55.3295 85.62 47.7695 76.3 47.7695ZM76.3 79.0995C68.32 79.0995 61.85 72.6295 61.85 64.6495C61.85 56.6695 68.32 50.1995 76.3 50.1995C84.28 50.1995 90.75 56.6695 90.75 64.6495C90.75 72.6295 84.28 79.0995 76.3 79.0995Z" fill="white"/>
<path d="M53.97 39.22C53.97 38.55 53.43 38 52.76 38C52.09 38 51.54 38.54 51.54 39.22V50.82C48.8 48.9 45.48 47.77 41.88 47.77C32.56 47.77 25 55.33 25 64.65C25 73.97 32.55 81.53 41.88 81.53C51.21 81.53 58.76 73.97 58.76 64.65C58.76 60.07 56.93 55.93 53.97 52.89V39.23V39.22ZM56.33 64.65C56.33 72.63 49.86 79.1 41.88 79.1C33.9 79.1 27.43 72.63 27.43 64.65C27.43 56.67 33.9 50.2 41.88 50.2C45.6 50.2 48.99 51.62 51.54 53.93V64.4C51.54 65.07 52.09 65.61 52.76 65.61C53.43 65.61 53.97 65.07 53.97 64.4V56.75C55.46 59.02 56.33 61.73 56.33 64.65Z" fill="white"/>
<path d="M110.72 47.77C107.12 47.77 103.8 48.9 101.06 50.82V39.22C101.06 38.55 100.52 38 99.84 38C99.16 38 98.63 38.54 98.63 39.22V52.88C95.67 55.92 93.84 60.06 93.84 64.64C93.84 73.96 101.4 81.52 110.72 81.52C120.04 81.52 127.6 73.96 127.6 64.64C127.6 55.32 120.04 47.76 110.72 47.76V47.77ZM110.72 79.1C102.74 79.1 96.27 72.63 96.27 64.65C96.27 61.73 97.14 59.02 98.63 56.75V64.4C98.63 65.07 99.18 65.61 99.84 65.61C100.5 65.61 101.06 65.07 101.06 64.4V53.93C103.62 51.62 107 50.2 110.72 50.2C118.7 50.2 125.17 56.67 125.17 64.65C125.17 72.63 118.7 79.1 110.72 79.1Z" fill="white"/>
<path d="M32.14 84.1796C32.43 84.1396 32.76 84.0996 33.13 84.0996C33.81 84.0996 34.29 84.2596 34.6 84.5496C34.92 84.8396 35.11 85.2696 35.11 85.8496C35.11 86.4296 34.92 86.9296 34.59 87.2596C34.25 87.5996 33.69 87.7796 32.99 87.7796C32.66 87.7796 32.38 87.7596 32.14 87.7396V84.1796ZM32.6 87.3896C32.72 87.4096 32.89 87.4196 33.08 87.4196C34.08 87.4196 34.62 86.8596 34.62 85.8796C34.62 85.0296 34.14 84.4796 33.15 84.4796C32.91 84.4796 32.73 84.4996 32.6 84.5296V87.3896Z" fill="white"/>
<path d="M37.57 86.5398C37.58 87.1798 37.99 87.4398 38.46 87.4398C38.8 87.4398 39.01 87.3799 39.18 87.2999L39.26 87.6398C39.1 87.7198 38.81 87.8098 38.4 87.8098C37.6 87.8098 37.12 87.2798 37.12 86.4898C37.12 85.6998 37.58 85.0898 38.34 85.0898C39.19 85.0898 39.41 85.8298 39.41 86.3098C39.41 86.4098 39.41 86.4798 39.4 86.5298H37.57V86.5398ZM38.96 86.1998C38.96 85.8998 38.84 85.4298 38.31 85.4298C37.83 85.4298 37.62 85.8698 37.58 86.1998H38.96Z" fill="white"/>
<path d="M41.5301 87.2698C41.6701 87.3598 41.9101 87.4598 42.1501 87.4598C42.4901 87.4598 42.6601 87.2898 42.6601 87.0698C42.6601 86.8498 42.5301 86.7198 42.1801 86.5898C41.7101 86.4198 41.4901 86.1698 41.4901 85.8498C41.4901 85.4298 41.8301 85.0898 42.3901 85.0898C42.6501 85.0898 42.8901 85.1598 43.0301 85.2498L42.9201 85.5898C42.8201 85.5298 42.6301 85.4398 42.3901 85.4398C42.1101 85.4398 41.9501 85.5999 41.9501 85.7999C41.9501 86.0199 42.1101 86.1098 42.4501 86.2398C42.9001 86.4098 43.1301 86.6398 43.1301 87.0298C43.1301 87.4898 42.7801 87.8098 42.1601 87.8098C41.8801 87.8098 41.6101 87.7398 41.4301 87.6298L41.5501 87.2698H41.5301Z" fill="white"/>
<path d="M45.84 84.4191C45.84 84.5791 45.73 84.7091 45.54 84.7091C45.37 84.7091 45.25 84.5791 45.25 84.4191C45.25 84.2591 45.37 84.1191 45.55 84.1191C45.73 84.1191 45.84 84.2491 45.84 84.4191ZM45.31 87.7591V85.1591H45.78V87.7591H45.31Z" fill="white"/>
<path d="M50.38 87.3796C50.38 87.9796 50.26 88.3396 50.01 88.5696C49.76 88.8096 49.39 88.8796 49.06 88.8796C48.73 88.8796 48.4 88.7996 48.2 88.6696L48.32 88.3096C48.49 88.4196 48.76 88.5096 49.08 88.5096C49.57 88.5096 49.92 88.2596 49.92 87.5996V87.3096H49.91C49.76 87.5496 49.48 87.7496 49.08 87.7496C48.43 87.7496 47.98 87.1996 47.98 86.4796C47.98 85.5996 48.55 85.0996 49.15 85.0996C49.6 85.0996 49.85 85.3396 49.96 85.5496H49.97L49.99 85.1596H50.4C50.39 85.3496 50.38 85.5596 50.38 85.8796V87.3896V87.3796ZM49.91 86.1796C49.91 86.0996 49.91 86.0296 49.88 85.9596C49.79 85.6896 49.56 85.4596 49.22 85.4596C48.77 85.4596 48.45 85.8396 48.45 86.4396C48.45 86.9496 48.71 87.3796 49.22 87.3796C49.51 87.3796 49.77 87.1996 49.88 86.8996C49.91 86.8196 49.92 86.7296 49.92 86.6496V86.1796H49.91Z" fill="white"/>
<path d="M52.7201 85.8596C52.7201 85.5896 52.7201 85.3696 52.7001 85.1596H53.1201L53.1401 85.5896H53.1501C53.2801 85.3396 53.5801 85.0996 54.0101 85.0996C54.3701 85.0996 54.9301 85.3096 54.9301 86.2096V87.7596H54.4601V86.2596C54.4601 85.8396 54.3101 85.4896 53.8601 85.4896C53.5501 85.4896 53.3001 85.7096 53.2201 85.9696C53.2001 86.0296 53.1901 86.1096 53.1901 86.1896V87.7596H52.7201V85.8596Z" fill="white"/>
<path d="M59.5801 87.7601C59.4801 87.6601 59.3801 87.5601 59.2401 87.4101C58.9301 87.7001 58.5801 87.8201 58.1801 87.8201C57.4801 87.8201 57.0601 87.3501 57.0601 86.8001C57.0601 86.3001 57.3601 85.9701 57.7701 85.7401C57.5801 85.4901 57.4701 85.2201 57.4701 84.9701C57.4701 84.5301 57.7901 84.0801 58.3901 84.0801C58.8401 84.0801 59.1901 84.3801 59.1901 84.8501C59.1901 85.2301 58.9701 85.5301 58.3901 85.8201V85.8401C58.7001 86.2001 59.0401 86.5901 59.2701 86.8501C59.4401 86.6001 59.5501 86.2501 59.6201 85.7901H60.0501C59.9501 86.3601 59.8001 86.8101 59.5301 87.1301C59.7301 87.3301 59.9101 87.5401 60.1301 87.7701H59.5701L59.5801 87.7601ZM58.2701 87.4601C58.5801 87.4601 58.8401 87.3201 59.0101 87.1301C58.8001 86.8901 58.3901 86.4501 57.9901 85.9901C57.8001 86.1101 57.5201 86.3401 57.5201 86.7301C57.5201 87.1401 57.8301 87.4601 58.2601 87.4601H58.2701ZM58.3601 84.4001C58.0601 84.4001 57.9101 84.6501 57.9101 84.9301C57.9101 85.1901 58.0301 85.3901 58.1901 85.5801C58.5501 85.3701 58.7901 85.1801 58.7901 84.8701C58.7901 84.6501 58.6701 84.4001 58.3701 84.4001H58.3601Z" fill="white"/>
<path d="M64.6901 87.6401C64.5201 87.7301 64.1701 87.8201 63.7401 87.8201C62.7201 87.8201 61.9501 87.1701 61.9501 85.9801C61.9501 84.7901 62.7201 84.0801 63.8401 84.0801C64.2901 84.0801 64.5801 84.1701 64.7001 84.2401L64.5901 84.6201C64.4101 84.5301 64.1601 84.4701 63.8601 84.4701C63.0101 84.4701 62.4501 85.0101 62.4501 85.9601C62.4501 86.8501 62.9601 87.4201 63.8401 87.4201C64.1201 87.4201 64.4101 87.3601 64.6001 87.2701L64.7001 87.6401H64.6901Z" fill="white"/>
<path d="M69.15 86.4298C69.15 87.3898 68.48 87.8098 67.85 87.8098C67.15 87.8098 66.6 87.2898 66.6 86.4698C66.6 85.5998 67.17 85.0898 67.89 85.0898C68.61 85.0898 69.15 85.6298 69.15 86.4298ZM67.08 86.4598C67.08 87.0298 67.41 87.4598 67.87 87.4598C68.33 87.4598 68.66 87.0298 68.66 86.4498C68.66 86.0098 68.44 85.4498 67.88 85.4498C67.32 85.4498 67.08 85.9698 67.08 86.4598Z" fill="white"/>
<path d="M71.3301 85.8596C71.3301 85.5896 71.3301 85.3696 71.3101 85.1596H71.7201L71.7401 85.5796H71.7501C71.9001 85.3296 72.1401 85.0996 72.5701 85.0996C72.9201 85.0996 73.2001 85.3096 73.3001 85.6196H73.3101C73.3901 85.4696 73.4901 85.3596 73.6001 85.2796C73.7601 85.1596 73.9301 85.0996 74.1801 85.0996C74.5201 85.0996 75.0301 85.3296 75.0301 86.2296V87.7596H74.5701V86.2896C74.5701 85.7896 74.3901 85.4896 74.0101 85.4896C73.7401 85.4896 73.5301 85.6896 73.4501 85.9196C73.4201 85.9796 73.4101 86.0696 73.4101 86.1596V87.7696H72.9501V86.2096C72.9501 85.7996 72.7701 85.4996 72.4101 85.4996C72.1101 85.4996 71.9001 85.7396 71.8201 85.9696C71.8001 86.0396 71.7801 86.1196 71.7801 86.1996V87.7696H71.3201V85.8696L71.3301 85.8596Z" fill="white"/>
<path d="M77.4 85.8596C77.4 85.5896 77.4 85.3696 77.38 85.1596H77.79L77.81 85.5796H77.83C77.98 85.3296 78.22 85.0996 78.65 85.0996C79.01 85.0996 79.28 85.3096 79.39 85.6196C79.48 85.4696 79.57 85.3596 79.68 85.2796C79.84 85.1596 80.01 85.0996 80.25 85.0996C80.6 85.0996 81.11 85.3296 81.11 86.2296V87.7596H80.65V86.2896C80.65 85.7896 80.47 85.4896 80.08 85.4896C79.81 85.4896 79.6 85.6896 79.52 85.9196C79.5 85.9796 79.48 86.0696 79.48 86.1596V87.7696H79.02V86.2096C79.02 85.7996 78.84 85.4996 78.48 85.4996C78.18 85.4996 77.97 85.7396 77.9 85.9696C77.87 86.0396 77.86 86.1196 77.86 86.1996V87.7696H77.4V85.8696V85.8596Z" fill="white"/>
<path d="M85.66 87.0504C85.66 87.3204 85.66 87.5604 85.68 87.7604H85.26L85.24 87.3304H85.23C85.11 87.5404 84.83 87.8104 84.37 87.8104C83.96 87.8104 83.47 87.5804 83.47 86.6704V85.1504H83.95V86.5904C83.95 87.0904 84.1 87.4204 84.53 87.4204C84.85 87.4204 85.07 87.2004 85.15 86.9904C85.18 86.9204 85.19 86.8304 85.19 86.7504V85.1504H85.67V87.0404L85.66 87.0504Z" fill="white"/>
<path d="M88.03 85.8596C88.03 85.5896 88.03 85.3696 88.01 85.1596H88.43L88.46 85.5896H88.47C88.6 85.3396 88.9 85.0996 89.33 85.0996C89.69 85.0996 90.25 85.3096 90.25 86.2096V87.7596H89.78V86.2596C89.78 85.8396 89.62 85.4896 89.18 85.4896C88.87 85.4896 88.63 85.7096 88.55 85.9696C88.53 86.0296 88.51 86.1096 88.51 86.1896V87.7596H88.04V85.8596H88.03Z" fill="white"/>
<path d="M93.1301 84.4191C93.1301 84.5791 93.01 84.7091 92.83 84.7091C92.66 84.7091 92.55 84.5791 92.55 84.4191C92.55 84.2591 92.67 84.1191 92.84 84.1191C93.01 84.1191 93.1301 84.2491 93.1301 84.4191ZM92.61 87.7591V85.1591H93.08V87.7591H92.61Z" fill="white"/>
<path d="M97.31 87.6594C97.19 87.7294 96.91 87.8194 96.56 87.8194C95.78 87.8194 95.26 87.2794 95.26 86.4894C95.26 85.6994 95.81 85.1094 96.66 85.1094C96.94 85.1094 97.19 85.1794 97.32 85.2394L97.21 85.6094C97.1 85.5494 96.92 85.4894 96.66 85.4894C96.06 85.4894 95.74 85.9294 95.74 86.4694C95.74 87.0694 96.13 87.4394 96.65 87.4394C96.92 87.4394 97.1 87.3694 97.23 87.3094L97.31 87.6594Z" fill="white"/>
<path d="M101.28 87.1298C101.28 87.3598 101.29 87.5798 101.33 87.7498H100.89L100.86 87.4198H100.84C100.7 87.6198 100.41 87.8098 100.05 87.8098C99.52 87.8098 99.26 87.4398 99.26 87.0598C99.26 86.4298 99.82 86.0898 100.82 86.0898V86.0398C100.82 85.8198 100.76 85.4398 100.23 85.4398C99.99 85.4398 99.73 85.5098 99.55 85.6298L99.44 85.3198C99.65 85.1798 99.97 85.0898 100.3 85.0898C101.1 85.0898 101.29 85.6298 101.29 86.1498V87.1298H101.28ZM100.82 86.4298C100.3 86.4198 99.72 86.5098 99.72 87.0198C99.72 87.3198 99.92 87.4698 100.17 87.4698C100.51 87.4698 100.72 87.2498 100.8 87.0298C100.82 86.9798 100.83 86.9298 100.83 86.8798V86.4298H100.82Z" fill="white"/>
<path d="M104.18 84.5295V85.1595H104.86V85.5195H104.18V86.9195C104.18 87.2395 104.28 87.4295 104.54 87.4295C104.67 87.4295 104.75 87.4195 104.81 87.3995L104.83 87.7495C104.74 87.7895 104.59 87.8195 104.41 87.8195C104.19 87.8195 104.01 87.7495 103.9 87.6095C103.77 87.4695 103.72 87.2395 103.72 86.9295V85.5095H103.31V85.1495H103.72V84.6695L104.18 84.5195V84.5295Z" fill="white"/>
<path d="M107.51 84.4191C107.51 84.5791 107.39 84.7091 107.21 84.7091C107.04 84.7091 106.92 84.5791 106.92 84.4191C106.92 84.2591 107.04 84.1191 107.22 84.1191C107.4 84.1191 107.51 84.2491 107.51 84.4191ZM106.98 87.7591V85.1591H107.45V87.7591H106.98Z" fill="white"/>
<path d="M112.18 86.4298C112.18 87.3898 111.51 87.8098 110.88 87.8098C110.18 87.8098 109.63 87.2898 109.63 86.4698C109.63 85.5998 110.2 85.0898 110.92 85.0898C111.64 85.0898 112.17 85.6298 112.17 86.4298H112.18ZM110.11 86.4598C110.11 87.0298 110.44 87.4598 110.9 87.4598C111.36 87.4598 111.69 87.0298 111.69 86.4498C111.69 86.0098 111.47 85.4498 110.91 85.4498C110.35 85.4498 110.11 85.9698 110.11 86.4598Z" fill="white"/>
<path d="M114.37 85.8596C114.37 85.5896 114.37 85.3696 114.35 85.1596H114.77L114.79 85.5896H114.8C114.93 85.3396 115.23 85.0996 115.66 85.0996C116.02 85.0996 116.58 85.3096 116.58 86.2096V87.7596H116.11V86.2596C116.11 85.8396 115.95 85.4896 115.51 85.4896C115.2 85.4896 114.96 85.7096 114.88 85.9696C114.86 86.0296 114.85 86.1096 114.85 86.1896V87.7596H114.38V85.8596H114.37Z" fill="white"/>
<path d="M118.88 87.2698C119.02 87.3598 119.27 87.4598 119.5 87.4598C119.85 87.4598 120.01 87.2898 120.01 87.0698C120.01 86.8498 119.87 86.7198 119.52 86.5898C119.06 86.4198 118.83 86.1698 118.83 85.8498C118.83 85.4298 119.17 85.0898 119.73 85.0898C119.99 85.0898 120.23 85.1598 120.37 85.2498L120.25 85.5898C120.15 85.5298 119.96 85.4398 119.72 85.4398C119.44 85.4398 119.28 85.5999 119.28 85.7999C119.28 86.0199 119.43 86.1098 119.77 86.2398C120.22 86.4098 120.45 86.6398 120.45 87.0298C120.45 87.4898 120.1 87.8098 119.48 87.8098C119.2 87.8098 118.93 87.7398 118.75 87.6298L118.87 87.2698H118.88Z" fill="white"/>
<path d="M34.07 108.302C34.07 109.132 34.18 109.952 34.4 110.772C34.62 111.592 35.01 112.382 35.57 113.152H34.57C34.02 112.502 33.62 111.772 33.36 110.952C33.1 110.132 32.97 109.232 32.97 108.252V107.812C32.97 106.832 33.1 105.942 33.36 105.122C33.62 104.302 34.03 103.572 34.57 102.932H35.57C35.03 103.662 34.65 104.422 34.42 105.232C34.19 106.032 34.08 106.882 34.08 107.762V108.312L34.07 108.302Z" fill="white"/>
<path d="M40.5099 112.822V109.372H36.4399V108.452H45.6799V109.372H41.6099V112.822H40.5199H40.5099ZM42.2799 106.652C41.9199 106.472 41.6399 106.312 41.4499 106.172C41.2599 106.032 41.1299 105.902 41.0699 105.782H41.0599C40.9999 105.902 40.8799 106.042 40.6799 106.182C40.4899 106.322 40.2099 106.482 39.8499 106.672C39.5499 106.822 39.2199 106.982 38.8499 107.152C38.4799 107.322 38.0699 107.502 37.6099 107.672L37.1799 106.792C37.5899 106.642 37.9899 106.472 38.3799 106.292C38.7699 106.112 39.1399 105.932 39.4899 105.742C39.7099 105.622 39.8799 105.512 40.0199 105.392C40.1499 105.272 40.2599 105.152 40.3299 105.022C40.3999 104.902 40.4499 104.772 40.4799 104.642C40.5099 104.512 40.5199 104.382 40.5199 104.252H37.6299V103.332H44.5099V104.252H41.6099C41.6099 104.382 41.6199 104.512 41.6499 104.642C41.6799 104.772 41.7199 104.892 41.7899 105.022C41.8599 105.142 41.9599 105.272 42.0999 105.392C42.2399 105.512 42.4099 105.632 42.6299 105.742C42.9799 105.932 43.3499 106.112 43.7399 106.292C44.1299 106.472 44.5299 106.632 44.9399 106.792L44.5299 107.662C44.0699 107.492 43.6599 107.312 43.2899 107.142C42.9199 106.972 42.5899 106.802 42.2899 106.662L42.2799 106.652Z" fill="white"/>
<path d="M48.0399 107.752C48.0399 106.872 47.9299 106.032 47.6999 105.222C47.4699 104.422 47.0899 103.652 46.5499 102.922H47.5499C48.0999 103.572 48.4999 104.302 48.7599 105.112C49.0199 105.932 49.1499 106.822 49.1499 107.802V108.242C49.1499 109.222 49.0199 110.112 48.7599 110.942C48.4999 111.762 48.0899 112.502 47.5499 113.142H46.5499C47.1099 112.372 47.4999 111.582 47.7199 110.762C47.9399 109.952 48.0499 109.122 48.0499 108.292V107.742L48.0399 107.752Z" fill="white"/>
<path d="M59.0799 104.602H55.3999V109.232H56.0899C56.7999 109.232 57.4699 109.202 58.0999 109.152C58.7299 109.102 59.3299 109.022 59.9199 108.922L60.0499 109.852C59.4999 109.962 58.8699 110.042 58.1699 110.092C57.4699 110.142 56.6999 110.172 55.8599 110.172H54.3199V103.662H59.0799V104.602ZM60.8599 112.822V102.752H61.9399V112.822H60.8599Z" fill="white"/>
<path d="M66.82 107.842C66.77 107.962 66.69 108.092 66.59 108.222C66.49 108.352 66.35 108.512 66.18 108.702C65.95 108.952 65.7 109.212 65.43 109.492C65.15 109.772 64.83 110.082 64.46 110.422L63.75 109.692C64.08 109.392 64.38 109.112 64.65 108.842C64.92 108.572 65.18 108.302 65.43 108.022C65.61 107.822 65.76 107.642 65.87 107.482C65.98 107.322 66.06 107.162 66.12 107.012C66.18 106.862 66.22 106.702 66.24 106.542C66.26 106.382 66.27 106.202 66.27 105.992V104.592H64.11V103.652H69.47V104.592H67.36V105.992C67.36 106.212 67.37 106.402 67.39 106.562C67.41 106.722 67.45 106.872 67.52 107.022C67.58 107.172 67.67 107.322 67.79 107.472C67.91 107.632 68.06 107.812 68.26 108.022C68.49 108.272 68.73 108.522 68.97 108.752C69.21 108.982 69.5 109.242 69.83 109.522L69.12 110.252C68.75 109.912 68.44 109.622 68.19 109.372C67.94 109.132 67.71 108.892 67.5 108.672C67.35 108.502 67.21 108.352 67.09 108.202C66.97 108.052 66.88 107.932 66.84 107.822H66.83L66.82 107.842ZM73.22 107.412H71.67V112.812H70.59V102.742H71.67V106.462H73.22V107.402V107.412Z" fill="white"/>
<path d="M74.4399 105.462C74.4399 105.212 74.4899 104.952 74.5899 104.682C74.6899 104.412 74.8499 104.162 75.0599 103.932C75.2699 103.702 75.5299 103.522 75.8499 103.372C76.1599 103.222 76.5299 103.152 76.9599 103.152C77.3899 103.152 77.7499 103.222 78.0699 103.372C78.3899 103.522 78.6499 103.702 78.8599 103.932C79.0699 104.162 79.2299 104.402 79.3299 104.682C79.4299 104.952 79.4799 105.212 79.4799 105.462V106.032C79.4799 106.282 79.4299 106.542 79.3299 106.812C79.2299 107.082 79.0699 107.332 78.8599 107.562C78.6499 107.792 78.3899 107.972 78.0699 108.122C77.7499 108.272 77.3799 108.342 76.9599 108.342C76.5399 108.342 76.1599 108.272 75.8499 108.122C75.5399 107.972 75.2799 107.792 75.0599 107.562C74.8499 107.332 74.6899 107.092 74.5899 106.812C74.4899 106.542 74.4399 106.282 74.4399 106.032V105.462ZM78.4399 105.502C78.4399 105.332 78.4099 105.172 78.3499 105.002C78.2899 104.832 78.1999 104.682 78.0799 104.552C77.9599 104.422 77.8099 104.312 77.6199 104.222C77.4299 104.142 77.2099 104.092 76.9499 104.092C76.6899 104.092 76.4599 104.132 76.2699 104.222C76.0799 104.302 75.9299 104.412 75.8099 104.552C75.6899 104.682 75.5999 104.842 75.5499 105.002C75.4999 105.172 75.4699 105.332 75.4699 105.502V105.982C75.4699 106.152 75.4999 106.322 75.5599 106.482C75.6199 106.652 75.7099 106.802 75.8299 106.932C75.9499 107.062 76.0999 107.172 76.2899 107.262C76.4799 107.342 76.6999 107.382 76.9599 107.382C77.2199 107.382 77.4499 107.342 77.6299 107.262C77.8199 107.182 77.9699 107.072 78.0899 106.932C78.2099 106.802 78.2999 106.642 78.3599 106.482C78.4199 106.312 78.4499 106.152 78.4499 105.982V105.502H78.4399ZM77.1399 111.772H82.5499V112.712H76.0499V109.372H77.1299V111.772H77.1399ZM81.2799 109.932V102.752H82.3499V109.932H81.2799Z" fill="white"/>
<path d="M90.6799 113.142H87.7999V102.922H90.6799V103.862H88.8699V112.202H90.6799V113.142Z" fill="white"/>
<path d="M100.97 110.563V111.483H91.73V110.563H95.8V108.733C95.4 108.693 95.03 108.603 94.68 108.473C94.33 108.343 94.03 108.183 93.78 107.973C93.53 107.763 93.32 107.523 93.18 107.233C93.03 106.953 92.96 106.633 92.96 106.293V105.773C92.96 105.393 93.05 105.053 93.23 104.743C93.41 104.433 93.65 104.183 93.96 103.963C94.27 103.753 94.63 103.583 95.04 103.473C95.45 103.353 95.89 103.303 96.34 103.303C96.79 103.303 97.23 103.363 97.64 103.473C98.05 103.593 98.41 103.753 98.72 103.963C99.03 104.173 99.27 104.433 99.45 104.743C99.63 105.053 99.72 105.393 99.72 105.773V106.293C99.72 106.633 99.65 106.953 99.5 107.233C99.35 107.513 99.15 107.763 98.89 107.973C98.64 108.183 98.34 108.353 97.99 108.473C97.64 108.603 97.27 108.683 96.87 108.733V110.563H100.95H100.97ZM96.36 104.243C96.05 104.243 95.75 104.283 95.47 104.353C95.19 104.423 94.94 104.533 94.73 104.673C94.52 104.813 94.35 104.983 94.22 105.173C94.1 105.373 94.03 105.593 94.03 105.823V106.243C94.03 106.483 94.09 106.703 94.22 106.903C94.34 107.103 94.51 107.263 94.73 107.403C94.94 107.543 95.19 107.643 95.47 107.723C95.75 107.793 96.05 107.833 96.36 107.833C96.67 107.833 96.97 107.793 97.25 107.723C97.53 107.653 97.78 107.543 97.99 107.403C98.2 107.263 98.37 107.093 98.5 106.903C98.62 106.703 98.69 106.483 98.69 106.243V105.823C98.69 105.583 98.63 105.363 98.5 105.173C98.38 104.973 98.21 104.813 97.99 104.673C97.78 104.533 97.53 104.433 97.25 104.353C96.97 104.283 96.67 104.243 96.36 104.243Z" fill="white"/>
<path d="M102.91 105.021H104.16V106.281H102.91V105.021ZM102.91 109.891H104.16V111.151H102.91V109.891Z" fill="white"/>
<path d="M106.82 110.172V103.572H107.89V105.952H110.43V103.572H111.5V110.172H106.82ZM107.88 109.252H110.42V106.872H107.88V109.252ZM113.34 112.822V102.752H114.42V112.822H113.34Z" fill="white"/>
<path d="M116.38 112.202H118.19V103.862H116.38V102.922H119.26V113.142H116.38V112.202Z" fill="white"/>
</svg>
