<svg width="152" height="152" viewBox="0 0 152 152" fill="none" xmlns="http://www.w3.org/2000/svg">
<rect x="0.5" y="0.5" width="151" height="151" rx="11.5" fill="black" stroke="#DCDFE3"/>
<path d="M66.7517 73.2011L61.1394 71.3844L67.4556 81.163L64.5881 87L55.1525 85.708L54.6035 80.4941L61.3008 81.6156L55.0621 71.7124L58.9823 66.0131L67.4621 68.7217L66.7581 73.2011H66.7517ZM30.5721 67.3379L25.1406 67.2527L25.1019 74.8801L21.7435 74.9391L21.4852 67.1608L16.6156 67.4625L16.6479 75.0309L14 75.0768V79.3398L16.6608 79.366L16.6867 86.0031L22.1052 85.9244L21.8856 79.4119L25.076 79.4382L25.0437 85.7211V85.7867L29.9262 85.9966L30.1523 79.4775L32.755 79.4972L33.1812 74.7161L30.3137 74.7686L30.5721 67.3182V67.3379ZM87.696 79.5103L88.1223 74.7292L85.2548 74.7817L85.5131 67.3314L80.0817 67.2461L80.0429 74.8735L76.6846 74.9325L76.4263 67.1543L71.5567 67.456L71.589 75.0244L68.941 75.0703V79.3332L71.6019 79.3595L71.6277 85.9966L77.0462 85.9179L76.8267 79.4054L80.0171 79.4316L79.9848 85.7146V85.7801L84.8673 85.99L85.0933 79.471L87.696 79.4906V79.5103ZM49.8179 77.7658L52.8598 77.7264L52.6144 82.7633L50.9029 82.737L51.6392 86.1146L46.2787 86.0753L45.6135 82.6649L41.6158 82.6124L40.6987 86.0228L35.6096 85.9703L36.6106 82.5403L34.4729 82.5141L34.699 77.9691L37.9604 77.9232L41.1379 67.1018L47.5252 67.2592L49.8179 77.7723V77.7658ZM42.4296 77.8641L45.1421 77.8248L43.986 72.06L42.436 77.8641H42.4296ZM105.96 69.6465L106.606 83.4847L98.7592 86.9869L92.0037 83.2748L92.0812 69.5743L99.166 66L105.96 69.6399V69.6465ZM101.039 80.1137L100.671 72.4469L98.9594 71.778L97.6483 72.46L97.5644 80.5465L98.9271 81.2089L101.032 80.1202L101.039 80.1137ZM116.894 80.7498L115.131 81.445L113.781 80.4678L113.807 66.9247L108.647 67.7314L108.44 83.4322L115.318 86.8426L121.802 83.3666L122.177 67.6396L116.914 66.8919L116.888 80.7498H116.894ZM138 67.0493L124.011 67.2854V72.4141L128.345 72.4469L127.886 86.0031L133.305 86.0818L133.363 72.4863L137.664 72.5191L137.994 67.0428L138 67.0493Z" fill="white"/>
</svg>
