<svg width="152" height="152" viewBox="0 0 152 152" fill="none" xmlns="http://www.w3.org/2000/svg">
<rect x="0.5" y="0.5" width="151" height="151" rx="11.5" fill="#FF7710" stroke="#DCDFE3"/>
<g clip-path="url(#clip0_1298_31757)">
<path d="M66.7751 76.3053C64.6617 76.3053 62.9495 77.8044 62.9495 79.6536C62.9495 81.5028 64.6617 83.0019 66.7751 83.0019C68.8885 83.0019 70.6007 81.5028 70.6007 79.6536C70.6007 77.8044 68.8885 76.3053 66.7751 76.3053ZM66.7751 81.4444C65.5778 81.4444 64.6038 80.6414 64.6038 79.6517C64.6038 78.6619 65.5778 77.8589 66.7751 77.8589C67.9724 77.8589 68.9464 78.6619 68.9464 79.6517C68.9464 80.6414 67.9724 81.4444 66.7751 81.4444ZM52.9015 77.5186L56.9898 80.9797L55.8959 82.1231L51.6794 78.5531L47.463 82.1231L46.369 80.9797L50.4573 77.5186L51.6794 76.4842L52.9015 77.5186ZM52.9015 72.6089V71.3508V71.2711H54.9839V69H56.6196V71.2692V72.8072V76.3461H54.9839V72.8072H52.9015V72.6069V72.6089ZM70.0134 69H71.6491V75.7706H70.0134V72.9219H68.4956V75.7706H66.8599V69H68.4956V71.3839H70.0134V69ZM141.364 73.0289H139.602V71.4908H141.364V69H143V76.4239H141.364V73.0289ZM30.1298 69H38.7778L30.1298 74.0886V69ZM52.0971 69.2353H45.3951V75.5372H52.0971V69.2353ZM50.5255 73.9603H46.9646V70.8103H50.5255V73.9603ZM19.3933 79.7178H30.1319V83H17.648V82.5936V74.0886L9 69H19.3933V79.7178ZM64.5231 75.8386L62.325 72.5292L60.1268 75.8367L58.7392 75.0219L61.3593 71.0786L61.748 70.4933H58.977V69.2353H65.6708V70.4933H62.8998L63.2886 71.0786L65.9107 75.0239L64.5231 75.8386ZM127.784 69H129.42V82.1231H127.784V75.0161H125.404V74.7381V73.48L127.784 73.4781V69ZM122.546 72.5681L126.035 77.8161L124.647 78.6308L121.583 74.0186L118.518 78.6289L117.131 77.8142L120.617 72.5661L120.958 72.0528H117.488V70.5147H120.762V69H122.397V70.5147H125.671V72.0528H122.201L122.528 72.5428L122.551 72.5564L122.544 72.5661L122.546 72.5681ZM113.836 73.8883H115.919V75.4264H113.836V82.1872H112.201V69H113.836V73.8883ZM77.4393 70.2425C75.2411 70.2425 73.4606 71.9167 73.4606 73.9836C73.4606 76.0506 75.2411 77.7247 77.4393 77.7247C79.6374 77.7247 81.4179 76.0506 81.4179 73.9836C81.4179 71.9167 79.6374 70.2425 77.4393 70.2425ZM77.4393 76.1497C76.1696 76.1497 75.1356 75.1775 75.1356 73.9836C75.1356 72.7897 76.1696 71.8175 77.4393 71.8175C78.7089 71.8175 79.7429 72.7897 79.7429 73.9836C79.7429 75.1775 78.7089 76.1497 77.4393 76.1497ZM141.428 77.0092H133.33V80.585V82.1231H142.998V80.585V77.0092H141.426H141.428ZM141.428 80.5481H134.902V78.5842H141.428V80.5481ZM139.553 76.0194H131.777V71.8408V71.7222H136.91V70.7364H131.819V70.4292V69.2353H138.587V73.0328H138.583V73.1417L133.285 73.1708V74.4814H139.549V74.7886V76.0194H139.553ZM107.827 72.0217L111.529 77.5925L110.141 78.4072L106.863 73.4742L103.584 78.4072L102.196 77.5925L105.898 72.0217L106.388 71.2847H102.771V69.7467H110.956V71.2847H107.339L107.813 71.9983L107.835 72.0119L107.829 72.0217H107.827ZM83.5975 69H85.2332V82.1872H83.5975V69ZM98.8648 73.8883H100.947V75.4264H98.8648V82.1872H97.2291V69H98.8648V73.8883ZM92.5515 71.8642L96.3585 77.5906L94.9709 78.4053L91.6912 73.4722L88.4115 78.4053L87.024 77.5906L90.831 71.8642V69.6747H92.5515V71.8661V71.8642Z" fill="#292626"/>
</g>
<defs>
<clipPath id="clip0_1298_31757">
<rect width="134" height="14" fill="white" transform="translate(9 69)"/>
</clipPath>
</defs>
</svg>
