<svg width="152" height="152" viewBox="0 0 152 152" fill="none" xmlns="http://www.w3.org/2000/svg">
<rect x="0.5" y="0.5" width="151" height="151" rx="11.5" fill="#00553C" stroke="#DCDFE3"/>
<path d="M75.0544 84.7395H75.0116C74.1801 84.6964 73.5115 84.0078 73.5115 83.1641C73.5115 83.1641 73.5115 83.1469 73.5115 83.1383V65.1722C73.5115 65.0775 73.4343 65 73.34 65H64.5967C64.5024 65 64.4253 65.0775 64.4253 65.1722V68.6328C64.4253 68.7533 64.5196 68.848 64.6396 68.848H64.7167C65.5739 68.8566 66.2597 69.5539 66.2597 70.4148V83.1813C66.2511 83.9905 65.6168 84.662 64.8196 84.7395C64.691 84.7481 64.5882 84.8514 64.5882 84.9891V87.6492C64.5882 87.7353 64.6567 87.8127 64.751 87.8127H75.1144C75.2001 87.8127 75.2773 87.7439 75.2773 87.6492V84.9891C75.2773 84.8514 75.1658 84.7395 75.0287 84.7395H75.0544Z" fill="#FFFBF5"/>
<path d="M129.683 87.8031C131.752 87.8031 133.429 86.4311 133.429 84.7385C133.429 83.0459 131.752 81.6738 129.683 81.6738C127.614 81.6738 125.937 83.0459 125.937 84.7385C125.937 86.4311 127.614 87.8031 129.683 87.8031Z" fill="#FFFBF5"/>
<path d="M53.4793 70.6953C47.779 70.6953 42.5845 74.0527 42.5845 79.5708C42.5845 84.2969 46.1161 87.8092 53.4793 87.8092C58.4081 87.8092 62.3769 86.1994 63.4913 81.6368C63.5341 81.456 63.397 81.2839 63.2084 81.2839H57.2252C57.0795 81.2839 56.9681 81.3872 56.9424 81.5335C56.6595 83.4102 55.8023 84.7531 53.9508 84.7531C51.7992 84.7531 51.0106 83.0142 50.8735 80.7329V80.1906H53.5136H63.4398C63.6113 80.1906 63.757 80.0615 63.7741 79.8893C63.7913 79.6827 63.7999 79.4761 63.8084 79.2609C63.9799 73.8374 59.1882 70.7039 53.4879 70.7039L53.4793 70.6953ZM51.2849 76.9624C51.1049 76.9624 50.9763 76.7988 51.0106 76.618C51.3021 75.1976 52.0307 74.199 53.505 74.199C54.9794 74.199 55.7252 75.189 56.008 76.618C56.0423 76.7902 55.9137 76.9624 55.7337 76.9624H51.2849Z" fill="#FFFBF5"/>
<path d="M124.351 83.1459H123.7C123.614 83.1459 123.554 83.2062 123.537 83.2923C123.434 83.8002 122.988 84.1876 122.457 84.1876C122.054 84.1876 121.728 83.8604 121.728 83.4558V77.3782H121.711C121.523 71.9031 117.682 70.629 112.153 70.6979C108.725 70.741 107.345 71.0423 106.222 71.3608C105.922 71.4469 104.927 71.7051 104.079 72.2389C103.23 72.7726 102.707 73.7367 102.75 74.6837C102.81 76.1902 103.924 77.2835 106.042 77.2749C108.399 77.2749 109.573 75.9147 109.513 74.3996C109.513 74.3307 109.513 74.236 109.513 74.1241C109.513 73.9778 109.616 73.8487 109.753 73.8228C110.199 73.7367 110.671 73.7109 111.125 73.6937C112.942 73.6507 114.485 74.4599 114.494 77.4126C114.494 77.559 114.374 77.6795 114.228 77.6795H110.371C105.647 77.6795 101.91 78.9449 101.824 82.7327C101.739 86.3397 105.647 87.786 110.371 87.786C111.896 87.786 113.431 87.2694 114.811 86.4688C114.965 86.3828 115.154 86.4 115.291 86.5119C116.268 87.3039 117.648 87.7946 119.182 87.7946C122.14 87.7946 124.54 85.9523 124.54 83.6797C124.54 83.5419 124.531 83.4042 124.506 83.2665C124.497 83.189 124.42 83.1287 124.343 83.1287L124.351 83.1459ZM114.502 83.783C114.502 83.9035 114.434 84.0154 114.331 84.0584C113.679 84.3425 112.882 84.42 112.239 84.42C110.705 84.42 109.273 83.585 109.273 82.4056C109.273 80.813 110.285 80.2104 112.076 80.1329C112.856 80.0985 113.602 80.1071 114.245 80.1674C114.399 80.1846 114.511 80.3137 114.511 80.4687V83.7744L114.502 83.783Z" fill="#FFFBF5"/>
<path d="M41.3926 84.737C40.5697 84.7111 39.9097 84.0569 39.8754 83.2391V76.6363H39.8668C39.7726 73.0034 36.8153 70.0938 33.1808 70.0938C30.8578 70.0938 28.8091 71.2903 27.6176 73.0981C27.5062 73.2617 27.2576 73.1928 27.2576 72.9948V70.9116C27.2576 70.791 27.1633 70.6963 27.0433 70.6963H18.2143C18.0943 70.6963 18 70.791 18 70.9116V74.312C18 74.4411 18.1029 74.5358 18.2229 74.5358H18.5057C19.3458 74.5616 20.023 75.2503 20.023 76.1025C20.023 76.1025 20.023 76.1025 20.023 76.1111V83.2218C19.9887 84.0569 19.3029 84.7283 18.4629 84.7283H18.2143C18.0943 84.7283 18 84.823 18 84.9436V87.6811C18 87.7413 18.0514 87.793 18.1114 87.793H29.1692C29.2292 87.793 29.2806 87.7413 29.2806 87.6811V84.9436C29.2806 84.823 29.1863 84.7283 29.0663 84.7283H28.8177C27.9777 84.7283 27.2919 84.0569 27.2576 83.2132V76.2317C27.2576 75.0609 28.2005 74.114 29.3577 74.114H29.3834C31.0892 74.114 32.495 75.4311 32.6408 77.1011V83.5317C32.6236 84.1688 32.1264 84.7283 31.4921 84.7283H31.4493C31.3293 84.7283 31.235 84.823 31.235 84.9436V87.6811C31.235 87.7413 31.2864 87.793 31.3464 87.793H41.5041C41.5641 87.793 41.6155 87.7413 41.6155 87.6811V84.9436C41.6155 84.823 41.5212 84.7283 41.4012 84.7283L41.3926 84.737Z" fill="#FFFBF5"/>
<path d="M100.221 84.737C99.3986 84.7111 98.7386 84.0569 98.7043 83.2391V76.6363H98.6957C98.6014 73.0034 95.6441 70.0938 92.0096 70.0938C89.6867 70.0938 87.638 71.2903 86.4465 73.0981C86.3351 73.2617 86.0865 73.1928 86.0865 72.9948V70.9116C86.0865 70.791 85.9922 70.6963 85.8722 70.6963H77.0432C76.9231 70.6963 76.8289 70.791 76.8289 70.9116V74.312C76.8289 74.4411 76.9317 74.5358 77.0517 74.5358H77.3346C78.1746 74.5616 78.8518 75.2503 78.8518 76.1025C78.8518 76.1025 78.8518 76.1025 78.8518 76.1111V83.2218C78.8175 84.0569 78.1318 84.7283 77.2917 84.7283H77.0432C76.9231 84.7283 76.8289 84.823 76.8289 84.9436V87.6811C76.8289 87.7413 76.8803 87.793 76.9403 87.793H87.998C88.058 87.793 88.1094 87.7413 88.1094 87.6811V84.9436C88.1094 84.823 88.0151 84.7283 87.8951 84.7283H87.6466C86.8065 84.7283 86.1208 84.0569 86.0865 83.2132V76.2317C86.0865 75.0609 87.0294 74.114 88.1866 74.114H88.2123C89.9181 74.114 91.3239 75.4311 91.4696 77.1011V83.5317C91.4525 84.1688 90.9553 84.7283 90.321 84.7283H90.2781C90.1581 84.7283 90.0638 84.823 90.0638 84.9436V87.6811C90.0638 87.7413 90.1153 87.793 90.1753 87.793H100.333C100.393 87.793 100.444 87.7413 100.444 87.6811V84.9436C100.444 84.823 100.35 84.7283 100.23 84.7283L100.221 84.737Z" fill="#FFFBF5"/>
</svg>
