<svg width="152" height="152" viewBox="0 0 152 152" fill="none" xmlns="http://www.w3.org/2000/svg">
<rect x="0.5" y="0.5" width="151" height="151" rx="11.5" fill="white" stroke="#DCDFE3"/>
<path d="M29.1265 42.4066C29.1265 41.7428 29.6622 41.207 30.3261 41.207H120.935C121.599 41.207 122.135 41.7428 122.135 42.4066V80.6301H114.687V48.6549H36.5802V80.6243H29.1323V42.4066H29.1265Z" fill="#00833E"/>
<path d="M109.102 57.0936C109.102 55.0031 107.402 53.3027 105.311 53.3027C103.221 53.3027 101.521 55.0031 101.521 57.0936C101.521 59.1842 103.221 60.8845 105.311 60.8845C107.402 60.8845 109.102 59.1842 109.102 57.0936Z" fill="#00833E"/>
<path d="M48.7573 95.3086L44.5996 109.616H47.9071L48.4778 107.549H52.589L53.1655 109.616H56.4789L52.2687 95.3086H48.7573ZM49.2115 104.998L50.5218 100.34L51.832 104.998H49.2057H49.2115Z" fill="#00833E"/>
<path d="M76.4583 102.396C75.7129 101.692 74.5773 101.243 73.0575 101.045C72.5974 100.987 72.3704 100.958 72.3704 100.958C72.3704 100.958 72.3412 100.952 72.2829 100.935C71.4793 100.824 70.897 100.632 70.5418 100.364C70.2274 100.125 70.0702 99.7874 70.0702 99.3507C70.0702 98.8732 70.2215 98.4947 70.5243 98.2152C70.8679 97.9065 71.3513 97.7493 71.9686 97.7493C72.4985 97.7493 73.0341 97.8483 73.5815 98.0463C74.0241 98.2152 74.5366 98.483 75.1072 98.8441L75.4567 99.0595L77.0813 96.9282L76.3825 96.4391C75.8176 96.0606 75.2121 95.7578 74.5541 95.5423C73.7214 95.2628 72.8537 95.123 71.9511 95.123C70.3847 95.123 69.1443 95.5248 68.23 96.3226C67.3099 97.1088 66.85 98.1628 66.85 99.4846C66.85 100.737 67.2401 101.721 68.0146 102.437C68.7775 103.124 69.9071 103.573 71.4153 103.788C71.7763 103.829 72.0326 103.864 72.1898 103.893C73.0225 104.003 73.6049 104.196 73.931 104.463C74.2338 104.702 74.3852 105.046 74.3852 105.494C74.3852 106.012 74.1813 106.426 73.7854 106.735C73.7155 106.793 73.6399 106.839 73.57 106.88C73.4244 106.962 73.2671 107.037 73.0983 107.09C72.9236 107.148 72.7373 107.189 72.5393 107.218C72.1957 107.259 71.858 107.259 71.526 107.218C71.3397 107.189 71.1359 107.154 70.9262 107.113C70.0528 106.903 69.1676 106.496 68.2766 105.89C68.265 105.884 68.2475 105.878 68.2358 105.873L67.9155 105.669L67.7118 105.931L67.0421 106.799L66.2852 107.783L66.5588 108.016C66.5588 108.016 66.5705 108.027 66.5705 108.033C66.6171 108.08 66.6695 108.115 66.7219 108.161L66.879 108.295C67.3041 108.627 67.7933 108.912 68.3581 109.151C69.4179 109.617 70.6176 109.856 71.9511 109.867C73.7738 109.867 75.1888 109.448 76.1904 108.604C77.1396 107.806 77.6113 106.729 77.6113 105.378C77.6113 104.102 77.2328 103.101 76.4699 102.385L76.4583 102.396Z" fill="#00833E"/>
<path d="M31.0663 101.511H25.7673V104.126H27.7879V105.203C27.7879 106.408 26.9959 107.014 25.4237 107.014C23.8514 107.014 23.0363 106.414 23.0363 105.221V99.805C23.0363 98.5996 23.8223 97.994 25.4004 97.994C26.7339 97.994 27.5084 98.4307 27.7238 99.2984C27.7238 99.2984 27.7821 99.5313 27.7821 99.5953H31.0606V99.3682C31.0606 99.2401 31.0606 99.112 31.0373 98.9839C30.9034 97.9183 30.4375 97.0506 29.6397 96.3751C28.6381 95.5482 27.223 95.1348 25.4004 95.1348C23.4787 95.1348 22.0229 95.6006 21.033 96.5265C20.1711 97.3126 19.7402 98.3201 19.7402 99.5371V105.5C19.7402 106.723 20.1711 107.725 21.033 108.511C22.0346 109.425 23.502 109.879 25.4237 109.879C27.3453 109.879 28.7895 109.413 29.7911 108.487C30.6529 107.701 31.0838 106.694 31.0838 105.477L31.0663 101.517V101.511Z" fill="#00833E"/>
<path d="M42.7477 96.5032C41.7578 95.589 40.302 95.1348 38.3803 95.1348C36.4587 95.1348 35.0029 95.6006 34.0129 96.5265C33.1511 97.3126 32.7202 98.3201 32.7202 99.5371V105.5C32.7202 106.723 33.1511 107.725 34.0129 108.511C35.0145 109.425 36.482 109.879 38.4037 109.879C40.3253 109.879 41.7695 109.413 42.7711 108.487C43.6329 107.701 44.0638 106.694 44.0638 105.477L44.0405 99.5138C44.0405 98.2909 43.6096 97.2894 42.7477 96.5032ZM38.3978 107.014C36.8081 107.014 36.0104 106.414 36.0104 105.221V99.805C36.0104 98.5996 36.7964 97.994 38.3745 97.994C39.9526 97.994 40.7388 98.5938 40.7388 99.7875L40.7621 105.203C40.7621 106.408 39.9701 107.014 38.3978 107.014Z" fill="#00833E"/>
<path d="M60.9451 95.3086H57.6958V109.616H65.4872V106.751H60.9451V95.3086Z" fill="#00833E"/>
<path d="M77.856 97.9407H81.6469V109.616H84.9137V97.9407H88.7047V95.3086H77.856V97.9407Z" fill="#00833E"/>
<path d="M97.9636 95.3086V105.633C97.9636 106.07 97.719 106.443 97.2298 106.751C96.7582 107.06 96.1817 107.217 95.5062 107.217C94.8307 107.217 94.2717 107.06 93.7826 106.751C93.3109 106.443 93.0721 106.07 93.0721 105.633V95.3086H89.8228V105.633C89.8228 106.798 90.3817 107.794 91.4998 108.626C92.6062 109.453 93.9398 109.867 95.5004 109.867C97.061 109.867 98.4177 109.453 99.5242 108.626C100.642 107.799 101.201 106.798 101.201 105.633V95.3086H97.9519H97.9636Z" fill="#00833E"/>
<path d="M112.452 96.5315C111.334 95.7162 109.983 95.3086 108.405 95.3086H102.721V109.616H108.405C109.983 109.616 111.334 109.209 112.452 108.393C113.558 107.549 114.111 106.547 114.111 105.383V99.5654C114.111 98.3832 113.558 97.3758 112.452 96.5315ZM110.862 105.377C110.862 105.814 110.623 106.186 110.152 106.495C109.662 106.804 109.08 106.961 108.41 106.961H105.976V97.964H108.41C109.086 97.964 109.668 98.1212 110.152 98.4298C110.623 98.7385 110.862 99.117 110.862 99.5654V105.383V105.377Z" fill="#00833E"/>
<path d="M119.009 95.3086H115.759V109.616H119.009V95.3086Z" fill="#00833E"/>
<path d="M131.994 99.5138C131.994 98.2909 131.539 97.2894 130.683 96.5032C129.693 95.589 128.238 95.1348 126.316 95.1348C124.394 95.1348 122.938 95.6006 121.948 96.5265C121.087 97.3126 120.656 98.3201 120.656 99.5371V105.5C120.656 106.723 121.087 107.725 121.948 108.511C122.95 109.425 124.418 109.879 126.339 109.879C128.261 109.879 129.705 109.413 130.707 108.487C131.568 107.701 131.999 106.694 131.999 105.477V99.5138H131.994ZM126.333 107.014C124.744 107.014 123.946 106.414 123.946 105.221V99.805C123.946 98.5996 124.732 97.994 126.31 97.994C127.888 97.994 128.674 98.5938 128.674 99.7875L128.698 105.203C128.698 106.408 127.906 107.014 126.333 107.014Z" fill="#00833E"/>
</svg>
