<svg width="152" height="152" viewBox="0 0 152 152" fill="none" xmlns="http://www.w3.org/2000/svg">
<rect x="0.5" y="0.5" width="151" height="151" rx="11.5" fill="#009944" stroke="#DCDFE3"/>
<path d="M88.723 57.4066C88.6536 50.5448 83.0742 45 76.2009 45C70.0438 45 64.9264 49.4474 63.8752 55.2926C63.8636 55.2926 63.8406 55.2926 63.829 55.2926C58.5499 55.2926 54.2642 59.5783 54.2642 64.8574C54.2642 70.1365 58.2264 74.0872 63.2167 74.3991C65.0419 73.0014 66.3473 71.696 67.7219 68.8543C68.9349 66.3245 69.0966 64.5455 69.1543 63.8524H64.2333C63.9445 64.3145 63.4016 64.5917 62.8125 64.534C62.1309 64.4531 61.5764 63.9102 61.5071 63.2286C61.4031 62.3276 62.1078 61.5652 62.9857 61.5652C63.5056 61.5652 63.9676 61.8424 64.2333 62.2467H73.6711C73.0588 67.3526 70.7947 71.4996 66.9364 74.4222H73.0473C73.0935 74.041 73.1397 73.6714 73.1859 73.2902C73.2436 72.7819 73.3014 72.2736 73.3592 71.7654C73.4054 71.2571 73.4747 70.7488 73.5093 70.2405C73.6942 68.1959 73.8328 66.1628 73.9021 64.1181C73.9598 62.3738 73.983 60.6295 73.8906 58.8852H68.9811C68.7038 59.2664 68.2533 59.509 67.745 59.4859C66.9711 59.4628 66.3126 58.8159 66.2895 58.0419C66.2664 57.1986 66.9364 56.5055 67.7797 56.5055C68.3342 56.5055 68.8193 56.8059 69.0735 57.2564H77.125V61.4497L79.2044 64.3145L81.3645 62.4085C81.8035 62.0272 82.2193 61.6114 82.6121 61.184C83.1319 60.6179 83.6402 60.0288 84.1023 59.4743L84.934 58.4C85.038 58.2614 85.1304 58.1228 85.2112 57.9957L85.2344 58.0188L85.4538 57.73L89.1157 61.0222L86.609 62.3623C85.1073 63.3326 83.5593 64.2221 81.9883 65.0538L80.4866 65.9548C82.7507 70.2521 85.7773 72.9205 87.7411 74.4107H88.7114C93.2628 74.2374 96.9016 70.4947 96.9016 65.8971C96.9016 61.2995 93.2628 57.5567 88.6999 57.395L88.723 57.4066ZM79.239 56.5055C76.4435 54.8074 73.4631 53.3981 70.3095 52.5779L71.0488 51.2726C73.44 51.4228 79.1119 52.809 81.1335 53.6291L79.239 56.5055Z" fill="white"/>
<path d="M77.5063 68.16C77.5526 68.8415 77.6103 69.5346 77.6796 70.2162C77.7258 70.7245 77.7836 71.2327 77.8298 71.741C77.876 72.2493 77.9338 72.7576 78.0031 73.2658C78.0493 73.647 78.0955 74.0167 78.1417 74.3979H83.8713C81.1336 72.4688 78.5575 69.4307 77.5179 68.1484L77.5063 68.16Z" fill="white"/>
<path d="M73.0014 74.8166C72.9321 75.3249 72.8513 75.8331 72.7473 76.3414C72.5509 77.358 72.3083 78.3861 71.9965 79.4026C71.673 80.4192 71.3149 81.4473 70.772 82.4638H80.4061C79.8632 81.4473 79.5051 80.4192 79.1816 79.4026C78.8697 78.3861 78.6156 77.358 78.4308 76.3414C78.3384 75.8331 78.2459 75.3249 78.1766 74.8166C78.1535 74.6895 78.142 74.5509 78.1304 74.4238H73.0477C73.0361 74.5509 73.013 74.6895 73.0014 74.8166Z" fill="white"/>
<path d="M26.459 99.941C27.2792 99.941 28.0069 99.7908 28.5961 99.4904C29.1274 99.2247 29.5779 98.8782 29.936 98.4739H32.9626V100.669H35.5502V91.9241H32.9626V93.5759H30.3173C29.9938 93.033 29.5086 92.571 28.8849 92.2244C28.238 91.8548 27.4178 91.6699 26.459 91.6699C25.7312 91.6699 25.0727 91.7854 24.5183 92.0049C23.9522 92.2244 23.4902 92.5248 23.1321 92.906C22.7509 93.2872 22.4621 93.7146 22.2773 94.2113C22.0924 94.6965 22 95.2047 22 95.7361C22 96.2675 22.0924 96.7758 22.2657 97.2725C22.4505 97.7692 22.7278 98.2197 23.0974 98.601C23.4786 99.0053 23.9522 99.3403 24.4952 99.5829C25.0497 99.8254 25.7081 99.941 26.459 99.941ZM25.5117 93.6453C25.7543 93.4951 26.0662 93.4142 26.4474 93.4142C26.8286 93.4142 27.1636 93.4951 27.4178 93.6453C27.6603 93.807 27.8683 94.0149 28.0185 94.2575C28.1571 94.5001 28.2495 94.7658 28.2957 95.043C28.3419 95.3202 28.365 95.5744 28.365 95.7939C28.365 96.0711 28.3303 96.3484 28.2726 96.6371C28.2148 96.9144 28.1109 97.1916 27.9838 97.4342C27.8336 97.6768 27.6257 97.8732 27.3831 98.0349C27.1405 98.1851 26.8286 98.2659 26.4705 98.2659C26.0893 98.2659 25.7659 98.1851 25.5348 98.0118C25.2922 97.8385 25.0959 97.6306 24.9572 97.3765C24.8071 97.1223 24.6915 96.8451 24.6338 96.5678C24.576 96.279 24.5414 96.0249 24.5414 95.8054C24.5414 95.5859 24.576 95.3318 24.6338 95.043C24.6915 94.7542 24.7955 94.4886 24.9572 94.246C25.0959 94.0149 25.2922 93.8185 25.5348 93.6568L25.5117 93.6453ZM30.9064 95.4358C30.9064 95.4358 30.9064 95.3318 30.8948 95.2856H32.9741V96.8105H30.8024C30.8833 96.4755 30.9295 96.1173 30.9295 95.7361C30.9295 95.6437 30.9295 95.5513 30.9295 95.4473L30.9064 95.4358Z" fill="white"/>
<path d="M34.5221 102.171C34.0947 101.848 33.5171 101.57 32.7894 101.351C32.0616 101.143 31.1375 101.027 30.0285 101.027C28.9196 101.027 28.0185 101.131 27.3023 101.339C26.5861 101.547 26.0201 101.813 25.6158 102.125C25.1884 102.46 24.8765 102.818 24.7147 103.199C24.553 103.58 24.4722 103.927 24.4722 104.239C24.4722 104.528 24.553 104.874 24.7147 105.244C24.8765 105.625 25.1884 105.995 25.6158 106.33C26.0201 106.665 26.5861 106.965 27.3023 107.196C28.0185 107.427 28.9311 107.554 30.0401 107.554C31.1491 107.554 32.0617 107.439 32.7779 107.196C33.4941 106.965 34.0832 106.665 34.4991 106.33C34.9265 105.983 35.2268 105.625 35.4001 105.232C35.5618 104.851 35.6427 104.516 35.6427 104.227C35.6427 103.938 35.5618 103.58 35.4001 103.199C35.2384 102.818 34.9496 102.46 34.5221 102.136V102.171ZM31.4609 105.74C31.0913 105.856 30.6292 105.925 30.0863 105.925C29.5434 105.925 29.0698 105.868 28.7001 105.752C28.3304 105.636 28.0301 105.498 27.8222 105.325C27.6027 105.151 27.441 104.978 27.3601 104.782C27.2677 104.585 27.2215 104.412 27.2215 104.25C27.2215 104.1 27.2677 103.938 27.3485 103.765C27.4409 103.592 27.5911 103.419 27.8106 103.257C28.0416 103.095 28.342 102.956 28.7001 102.852C29.0698 102.749 29.5318 102.691 30.0863 102.691C30.6408 102.691 31.1144 102.749 31.4841 102.876C31.8537 102.991 32.1541 103.13 32.3735 103.28C32.5699 103.442 32.7201 103.626 32.7894 103.8C32.8702 103.985 32.9049 104.135 32.9049 104.262C32.9049 104.424 32.8587 104.597 32.7779 104.782C32.697 104.966 32.5468 105.14 32.3389 105.313C32.1194 105.486 31.8306 105.636 31.4609 105.752V105.74Z" fill="white"/>
<path d="M50.9252 100.67V91.9258H48.3376V98.7759C48.1759 98.8106 47.9911 98.8337 47.7831 98.8453C47.5175 98.8568 47.1825 98.8684 46.7782 98.8684H41.2218C41.0023 98.8684 40.829 98.8106 40.7019 98.6835C40.5749 98.5565 40.5056 98.3832 40.5056 98.1406V97.1356H45.7269V92.1568H37.918V93.9242H43.1394V95.3451H37.918V98.4063C37.918 99.134 38.149 99.7116 38.6226 100.093C39.0847 100.474 39.7085 100.67 40.494 100.67H50.9483H50.9252Z" fill="white"/>
<path d="M39.5706 104.852C39.5706 105.58 39.8017 106.146 40.2637 106.539C40.7142 106.92 41.3496 107.105 42.1351 107.105H50.9144V101.664H39.5591V104.852H39.5706ZM42.3777 105.164C42.2391 105.049 42.1698 104.887 42.1698 104.656V103.397H48.3846V105.338H42.8744C42.6896 105.338 42.5163 105.28 42.3661 105.164H42.3777Z" fill="white"/>
<path d="M64.7179 105.222C63.967 105.222 63.2046 105.222 62.4422 105.222H58.6301C58.4453 105.222 58.272 105.164 58.1218 105.037C57.9832 104.922 57.9139 104.76 57.9139 104.541V102.889H55.2686V104.864C55.2686 105.592 55.4996 106.158 55.9616 106.551C56.4121 106.932 57.0475 107.117 57.833 107.117H66.7163V105.245H66.5777C66.0809 105.245 65.4456 105.245 64.6948 105.245L64.7179 105.222Z" fill="white"/>
<path d="M66.6242 102.854V91.9258H64.0251V101.202H61.4028V102.854" fill="white"/>
<path d="M56.5399 100.484C56.6439 100.646 56.7017 100.888 56.7017 101.189V102.205H59.1737V100.23H63.0782V98.5781H52.751V100.265H55.9277C56.228 100.265 56.4244 100.334 56.5284 100.484H56.5399Z" fill="white"/>
<path d="M54.2409 96.6034C54.5528 96.9615 55.0149 97.2619 55.5925 97.5275C56.1701 97.7817 56.944 97.9087 57.8913 97.9087C58.8385 97.9087 59.5547 97.7817 60.1554 97.5275C60.7445 97.2734 61.2182 96.9615 61.5416 96.6149C61.865 96.2684 62.0961 95.9103 62.2231 95.5406C62.3502 95.171 62.408 94.8822 62.408 94.6396C62.408 94.397 62.3502 94.1198 62.2347 93.7617C62.1192 93.4036 61.8882 93.0455 61.5532 92.7105C61.2297 92.3639 60.7561 92.0751 60.1785 91.8325C59.5894 91.5899 58.8154 91.4629 57.8566 91.4629C56.8978 91.4629 56.147 91.5899 55.5578 91.8325C54.9687 92.0751 54.5182 92.3755 54.2178 92.7105C53.8828 93.057 53.6633 93.4151 53.5594 93.7732C53.4554 94.1198 53.4092 94.4201 53.4092 94.6511C53.4092 94.8822 53.4669 95.1825 53.5824 95.5406C53.698 95.9103 53.9175 96.2684 54.2525 96.6149L54.2409 96.6034ZM58.9656 96.1413C58.7114 96.2684 58.3533 96.3262 57.9143 96.3262C57.4754 96.3262 57.1288 96.2684 56.8747 96.1413C56.6206 96.0258 56.4357 95.8641 56.2971 95.6677C56.1469 95.5175 56.0545 95.3442 56.0083 95.1594C55.9621 94.963 55.939 94.7898 55.939 94.6511C55.939 94.5356 55.9621 94.3855 56.0083 94.2006C56.0545 94.0158 56.1354 93.8425 56.274 93.6808C56.4011 93.5191 56.5975 93.3689 56.8516 93.2534C57.1057 93.1263 57.4639 93.0686 57.9028 93.0686C58.3418 93.0686 58.6883 93.1263 58.954 93.2534C59.2082 93.3805 59.4161 93.5191 59.5547 93.6808C59.6818 93.8425 59.7742 94.0274 59.8204 94.2006C59.8666 94.3855 59.8897 94.5356 59.8897 94.6511C59.8897 94.7898 59.8666 94.963 59.8204 95.1594C59.7742 95.3442 59.6933 95.5175 59.5547 95.6793C59.4276 95.8641 59.2313 96.0143 58.9771 96.1413H58.9656Z" fill="white"/>
<path d="M69.4662 99.4204C69.651 99.663 69.8359 99.9171 70.0438 100.206L70.1131 100.298L70.2171 100.252C70.4597 100.137 70.8062 99.9518 71.2683 99.6976C71.7303 99.4435 72.2386 99.1085 72.77 98.7273C73.3014 98.3576 73.8328 97.9533 74.3526 97.5028C74.8378 97.0869 75.2652 96.648 75.6233 96.1974C76.0276 96.6711 76.455 97.1216 76.9055 97.5144C77.4022 97.9533 77.899 98.3345 78.3841 98.6695C78.8578 99.0161 79.3314 99.3164 79.7819 99.5706C80.244 99.8247 80.6367 100.056 80.9948 100.264L81.0988 100.321L81.1681 100.217C81.3414 99.9633 81.5262 99.7207 81.711 99.4666C81.9074 99.2009 82.0923 98.9468 82.2655 98.6811L82.3464 98.554L82.2193 98.4847C81.919 98.3114 81.4685 98.0573 80.8793 97.7223C80.3017 97.3873 79.7126 96.9945 79.1235 96.5325C78.5343 96.0819 78.0145 95.5968 77.5871 95.0654C77.1712 94.5571 76.9517 94.0257 76.9517 93.5059V91.8887H74.214V93.5059C74.214 94.0142 74.0176 94.5225 73.6364 95.0192C73.2436 95.5275 72.7585 96.0011 72.204 96.4401C71.6495 96.8906 71.0604 97.2833 70.4597 97.6183C69.8359 97.9649 69.3276 98.2421 68.9233 98.45L68.7847 98.5193L68.8771 98.6464C69.085 98.9352 69.2814 99.1894 69.4547 99.4319L69.4662 99.4204Z" fill="white"/>
<path d="M76.8242 99.8379H74.2828V103.246H68.3105V105.071H82.808V103.246H76.8242V99.8379Z" fill="white"/>
<path d="M97.0978 98.5222H95.6538V94.3289H97.0978V92.4922H85.084V94.3289H86.4933V96.235C86.4933 96.5815 86.5395 96.9743 86.6319 97.4017C86.7128 97.7598 86.8745 98.141 87.1171 98.5222H85.084V100.347H97.0978V98.5222ZM93.1355 94.3289V98.5222H89.9242C89.7162 98.4991 89.566 98.4067 89.4621 98.268C89.3465 98.1179 89.2541 97.9215 89.1848 97.6789C89.104 97.4941 89.0578 97.2977 89.0462 97.1244C89.0462 96.9281 89.0347 96.7894 89.0347 96.7086V94.3174H93.1471L93.1355 94.3289Z" fill="white"/>
<path d="M98.3568 103.096H83.8594V104.99H98.3568V103.096Z" fill="white"/>
<path d="M103.394 101.121H112.392V99.2962H104.133C103.913 99.2962 103.729 99.2384 103.578 99.1113C103.44 98.9843 103.359 98.811 103.359 98.5684V97.6442H112.057V95.8191H103.359V94.3289H112.381V92.4922H100.829V98.9149C100.829 99.6311 101.072 100.174 101.534 100.555C101.996 100.925 102.62 101.11 103.382 101.11L103.394 101.121Z" fill="white"/>
<path d="M113.905 103.281H99.4077V105.153H113.905V103.281Z" fill="white"/>
<path d="M125.665 100.336V96.4311H126.982V100.336H129.2V91.9375H126.982V94.5828H125.665V91.9375H123.447V98.4411C123.297 98.4873 123.101 98.522 122.87 98.5335C122.581 98.5451 122.2 98.5682 121.749 98.5913H118.884C118.665 98.5913 118.492 98.5335 118.365 98.4064C118.237 98.2794 118.168 98.1061 118.168 97.852V97.1011H122.015V92.157H115.615V93.8897H119.404V95.3799H115.615V98.0715C115.615 98.7992 115.846 99.3768 116.32 99.758C116.782 100.139 117.417 100.336 118.203 100.336H125.665Z" fill="white"/>
<path d="M126.647 102.484H120.444V101.26H117.856V104.875C117.856 105.603 118.099 106.169 118.561 106.55C119.023 106.92 119.646 107.105 120.432 107.105H129.2V101.26H126.658V102.484H126.647ZM126.647 105.499H121.16C120.952 105.499 120.779 105.441 120.64 105.314C120.501 105.199 120.444 105.037 120.444 104.806V104.205H126.647V105.488V105.499Z" fill="white"/>
</svg>
