<svg width="152" height="152" viewBox="0 0 152 152" fill="none" xmlns="http://www.w3.org/2000/svg">
<rect x="0.5" y="0.5" width="151" height="151" rx="11.5" fill="black" stroke="#DCDFE3"/>
<path d="M24.2046 81.6749L23.6236 69.3512L17.4758 66.1055L11.0718 69.2887L11 81.4874L17.1103 84.7925L18.4442 84.2052L20.7621 86.1639L25.0012 84.6019L22.652 82.3559L24.2077 81.6717L24.2046 81.6749ZM17.2696 79.6412L16.0357 79.0508L16.1107 71.8503L17.2946 71.2442L18.8409 71.8409L19.1721 78.6697L17.2696 79.6381V79.6412Z" fill="white"/>
<path d="M34.607 79.5849L32.9639 80.2221L31.7018 79.3193L31.7268 66.8707L26.9129 67.6142L26.7192 82.0465L33.1419 85.1797L39.196 81.9871L39.5427 67.5298L34.632 66.8457L34.607 79.5849Z" fill="white"/>
<path d="M135.895 67.3145L135.874 73.6934L132.693 73.9808L132.475 67.3738L127.876 67.5675L127.948 84.4489L133.053 84.3771L132.843 78.4292L135.849 78.4761L135.824 84.1959L140.425 84.3864L141 67.3863L135.895 67.3145Z" fill="white"/>
<path d="M57.7925 67.3269L57.7456 84.4489L64.0496 84.5801L70.1005 81.9873L70.6753 69.7886L63.6872 67.3145L57.7925 67.3269ZM65.5116 79.585L62.6064 80.4004L62.269 71.6848L65.5459 72.6344L65.5084 79.585H65.5116Z" fill="white"/>
<path d="M51.8725 67.2414L45.9184 67.0977L40.7671 84.4227L45.5091 84.4695L46.1933 81.961L50.2106 81.9985L50.7104 84.5164L55.7055 84.5539L51.8756 67.2414H51.8725ZM46.8586 77.9312L46.9242 77.6907L48.5643 71.6554L49.8294 77.8688L46.8586 77.9312Z" fill="white"/>
<path d="M108.187 67.2433L102.233 67.0996L97.0815 84.4246L101.824 84.4715L102.508 81.963L106.525 82.0005L107.025 84.5183L112.02 84.5558L108.19 67.2433H108.187ZM103.176 77.9332L103.242 77.6927L104.882 71.6573L106.147 77.8707L103.176 77.9332Z" fill="white"/>
<path d="M125.612 68.9686L117.771 66.5039L114.147 71.6958L119.92 80.7144L113.722 79.696L114.228 84.4474L122.959 85.622L125.612 80.3052L119.773 71.3959L124.965 73.0515L125.612 68.9686Z" fill="white"/>
<path d="M95.3317 78.0234L95.1286 82.5187H90.9208L90.8146 86.6672L86.3193 86.4641V82.5218H77.6318V65.2031L82.1271 65L82.452 77.6954L86.3193 77.7954V65L91.3675 65.0781L91.2613 69.2516L91.1363 74.1967L91.0426 77.9172L95.338 78.0266L95.3317 78.0234Z" fill="#E56B2A"/>
<path d="M77.6289 82.5167H82.5709L82.674 86.5871L77.6258 86.6652V82.5167H77.6289ZM73.7397 77.4716L73.6616 82.5198H77.6289V77.5716L73.7397 77.4716ZM95.2538 69.1465L83.6893 69.4433L83.8111 74.1947H95.3319L95.2538 69.1465ZM73.6647 69.6963L73.8678 74.1915H77.6289V69.5963L73.6616 69.6963H73.6647Z" fill="white"/>
</svg>
