<svg width="152" height="152" viewBox="0 0 152 152" fill="none" xmlns="http://www.w3.org/2000/svg">
<rect x="0.5" y="0.5" width="151" height="151" rx="11.5" fill="black" stroke="#DCDFE3"/>
<path d="M71.9941 75.4789L69.0377 65.6348H64.9154L61.9694 75.4789L59.013 65.6348H54.6946L59.9211 83.022H64.028L66.9843 73.183L69.9406 83.022H74.0475L79.2689 65.6348H74.9504L71.9941 75.4789Z" fill="white"/>
<path d="M112.815 65.6348H108.492V83.022H112.815V65.6348Z" fill="white"/>
<path d="M110.654 87.6152C109.178 87.6152 107.976 88.8174 107.976 90.293C107.976 91.7686 109.178 92.9707 110.654 92.9707C112.129 92.9707 113.332 91.7686 113.332 90.293C113.332 88.8174 112.129 87.6152 110.654 87.6152Z" fill="white"/>
<path d="M45.0208 65C41.0275 65 38.004 67.1979 36.8535 70.9024H41.693C42.4618 69.8808 43.6123 69.3236 45.0208 69.3236C47.1878 69.3236 48.7305 70.6341 49.2103 72.8475H36.4407L36.4098 73.1725C36.3737 73.5646 36.353 73.9516 36.353 74.3282C36.353 79.9055 39.8356 83.6564 45.0157 83.6564C50.1957 83.6564 53.6783 79.9107 53.6783 74.3282C53.6783 68.7457 50.1957 65 45.0157 65H45.0208ZM45.0208 79.3328C42.7507 79.3328 41.3422 77.9243 41.0068 76.4229H49.0297C48.6943 77.9243 47.2858 79.3328 45.0157 79.3328H45.0208Z" fill="white"/>
<path d="M134 65.6348H129.305L124.93 71.2946L120.56 65.6348H115.865L122.582 74.3284L115.865 83.0271H120.56L124.93 77.3673L129.305 83.0271H134L127.283 74.3284L134 65.6348Z" fill="white"/>
<path d="M33.3553 73.4902C33.3553 68.9757 29.6922 65.3125 25.1777 65.3125C23.7434 65.3125 22.4432 65.7717 21.3236 66.5353V65.6427H17V83.0299H21.3236V73.4953C21.3236 71.3645 23.0468 69.6412 25.1777 69.6412C27.3085 69.6412 29.0318 71.3645 29.0318 73.4953V83.0299H33.3553V73.4953V73.4902Z" fill="white"/>
<path d="M104.994 72.2644C104.994 68.4207 101.877 65.3096 98.0389 65.3096C96.3311 65.3096 94.7627 65.9287 93.5554 66.9503C92.4667 65.8255 90.8725 65.1703 88.7158 65.3096C87.6839 65.3766 86.7037 65.8049 85.8214 66.4653V65.6346H81.4978V83.0218H85.8214V72.1251C85.8214 70.6702 86.9977 69.4938 88.4527 69.4938C89.9076 69.4938 91.084 70.6702 91.084 72.1251V83.0218H95.4076V72.1251C95.4076 70.6702 96.5839 69.4938 98.0389 69.4938C99.4938 69.4938 100.67 70.6702 100.67 72.1251V83.0218H104.994V72.2644Z" fill="white"/>
</svg>
