<svg width="152" height="152" viewBox="0 0 152 152" fill="none" xmlns="http://www.w3.org/2000/svg">
<rect x="0.5" y="0.5" width="151" height="151" rx="11.5" fill="#FF7710" stroke="#DCDFE3"/>
<path d="M58.655 76.6698L64.7735 82.4773L63.5127 83.9552L58.655 79.3445L53.7973 83.9552L52.5365 82.4773L58.655 76.6698ZM59.1387 75.4445H51.4167V67.3045H59.1387V75.4445ZM57.3292 69.3419H53.2262V73.4119H57.3292V69.3419ZM62.4645 76.4927H64.3503V67.0047H62.4645V69.9368H60.0659V71.9246H62.4645V76.4951V76.4927ZM80.968 67.0024H79.0822V83.5326H80.968V75.0503H83.6667V73.0625H80.968V67V67.0024ZM73.1361 67.5571H71.1541V70.7041L66.769 78.1004L68.3681 79.1533L72.1462 72.7816L75.9244 79.1533L77.5235 78.1004L73.1384 70.7041V67.5571H73.1361ZM23.2561 67.0024H12L21.3659 73.1805V84H34.8863V80.015H23.2561V67.0024ZM34.8841 73.1829L44.25 67.0047H34.8841V73.1829ZM124.875 80.3125V82.2247H141V80.3125H124.875ZM138.928 75.8459H128.575V73.5535H138.174V71.7334H128.575V69.4198H138.859V67.5996H126.723V77.6684H138.928V75.8482V75.8459ZM96.9048 73.7589H90.9319V67.5996H89.0417V75.7514H96.9048V73.7589ZM98.0649 76.1575H99.879V67.458H98.0649V69.9769H95.1244V71.9694H98.0649V76.1575ZM90.5019 79.4272H101.25V84H103.14V77.5126H90.5019V79.4248V79.4272ZM101.247 76.5187H103.138V67.3069H101.247V76.5187ZM105.827 82.2247H122.176V80.3125H105.827V82.2247ZM114.002 70.4751L120.078 77.869L121.352 76.377L114.002 67.432L106.652 76.377L107.926 77.869L114.002 70.4751Z" fill="#242422"/>
</svg>
