<svg width="152" height="152" viewBox="0 0 152 152" fill="none" xmlns="http://www.w3.org/2000/svg">
<rect x="0.5" y="0.5" width="151" height="151" rx="11.5" fill="white" stroke="#DCDFE3"/>
<path d="M65.8207 85.1791C66.1891 84.0787 66.4858 83.1744 66.7107 82.4615C66.9307 81.7487 67.1939 80.8396 67.5001 79.7296C67.8063 78.6196 68.1269 77.3948 68.4713 76.0503C68.8158 74.7059 69.1986 73.1461 69.6196 71.3711C70.787 71.3902 71.7248 71.3998 72.4281 71.3998C73.0692 71.3998 73.9927 71.3902 75.1936 71.3711C74.6625 73.0744 74.2175 74.5719 73.8587 75.8589C73.5046 77.146 73.1554 78.5143 72.8205 79.9545C72.2128 82.5142 71.8109 84.2557 71.6052 85.1744C70.5383 85.1552 69.6148 85.1456 68.8398 85.1456C68.0647 85.1456 67.0695 85.1552 65.8207 85.1744V85.1791Z" fill="#425BA8"/>
<path d="M46.4675 85.1795C47.099 83.1939 47.5727 81.6342 47.8884 80.5002C48.3238 78.9501 48.8836 76.821 49.5726 74.1177C50.2616 71.4145 50.7257 69.5102 50.9744 68.4002C51.0606 68.0031 51.1802 67.4433 51.3333 66.7209C52.5246 66.7448 53.472 66.7592 54.1753 66.7592C55.1561 66.7592 56.3092 66.74 57.6249 66.697C58.9406 66.6587 60.0698 66.6348 61.0027 66.6348C62.1319 66.6348 62.9261 66.6635 63.3902 66.7305C64.0026 66.8118 64.5241 66.9553 64.95 67.1611C65.3758 67.3668 65.7155 67.6252 65.9643 67.9314C66.237 68.2902 66.414 68.7256 66.5001 69.228C66.5958 69.8069 66.5719 70.4241 66.4236 71.0796C66.3087 71.5915 66.1365 72.0843 65.8973 72.5532C65.6628 73.0221 65.3853 73.4383 65.0648 73.8019C64.7442 74.1656 64.4093 74.4718 64.0553 74.7158C63.706 74.9598 63.3711 75.1464 63.0553 75.2851C62.7395 75.4191 62.3328 75.5531 61.8209 75.6918C62.2802 75.7731 62.6438 75.8688 62.907 75.9693C63.1701 76.0746 63.4428 76.2372 63.7203 76.4717C63.9978 76.7013 64.2275 76.998 64.4093 77.3568C64.5911 77.7204 64.6964 78.1223 64.7299 78.5673C64.7634 79.0122 64.7203 79.4859 64.6103 79.9835C64.4571 80.6677 64.2036 81.3136 63.8447 81.9164C63.4859 82.5193 63.0553 83.0408 62.5529 83.4714C62.1271 83.8446 61.6104 84.1604 61.0027 84.4187C60.3951 84.6819 59.7923 84.8589 59.1894 84.9594C58.7062 85.0311 57.8402 85.0886 56.5914 85.122C55.3427 85.1555 54.027 85.1747 52.6395 85.1747L49.0846 85.1603L46.4579 85.1747L46.4675 85.1795ZM53.0079 81.4715H55.6058C56.29 81.4715 56.8067 81.4284 57.1512 81.3471C57.5723 81.2466 57.9024 81.1174 58.1464 80.9548C58.3904 80.7921 58.6057 80.572 58.7875 80.2897C58.9693 80.0122 59.0985 79.7012 59.1751 79.3567C59.2421 79.0601 59.2516 78.7969 59.199 78.5721C59.1511 78.3472 59.0411 78.1606 58.8784 78.0027C58.7158 77.8496 58.4957 77.7396 58.223 77.6726C57.9502 77.6056 57.5053 77.5721 56.8929 77.5721H54.0413L53.0079 81.4667V81.4715ZM54.9982 73.912H56.9216C57.5531 73.912 58.0077 73.8976 58.2804 73.8641C58.5531 73.8306 58.8258 73.778 59.0985 73.6967C59.3712 73.6153 59.62 73.4814 59.8449 73.29C60.0698 73.0986 60.2516 72.8881 60.3808 72.6537C60.5099 72.4192 60.6008 72.1848 60.6535 71.9503C60.73 71.6154 60.7157 71.3188 60.6152 71.0556C60.5147 70.7925 60.3042 70.6011 59.9789 70.4767C59.6583 70.3523 59.132 70.2853 58.4143 70.2853H55.979L55.003 73.9072L54.9982 73.912Z" fill="#425BA8"/>
<path d="M75.2509 86.8542C76.3274 87.2514 77.2843 87.5289 78.136 87.6868C78.9828 87.8446 79.7388 87.926 80.3943 87.926C80.8727 87.926 81.3177 87.8733 81.7291 87.7681C82.1406 87.6676 82.4803 87.5384 82.7482 87.3853C83.0162 87.2322 83.2602 87.0361 83.4803 86.8064C83.6956 86.572 83.8869 86.3088 84.04 86.0217C84.1931 85.7347 84.3319 85.3998 84.4515 85.0218C84.5711 84.6438 84.7194 84.1223 84.8965 83.4525C84.4754 83.7683 84.1166 84.0218 83.8152 84.2084C83.5185 84.395 83.1597 84.5816 82.7387 84.7539C82.3224 84.9309 81.8775 85.0648 81.4134 85.1605C80.9445 85.2562 80.466 85.3041 79.9684 85.3041C78.8249 85.3041 77.8537 85.0361 77.0499 84.5051C76.2461 83.974 75.7294 83.2324 75.4902 82.2755C75.2509 81.3186 75.2557 80.2851 75.4997 79.1799C75.7916 77.8738 76.294 76.692 77.0164 75.6346C77.7389 74.582 78.6288 73.6873 79.7005 72.9553C80.7675 72.2233 81.8727 71.7209 83.0162 71.4386C84.1597 71.1611 85.4132 71.0176 86.7863 71.0176C87.571 71.0176 88.4466 71.0654 89.4226 71.1611C90.3986 71.2568 91.7192 71.4578 93.3889 71.7783L92.078 76.2422L90.7096 81.1368C90.6139 81.486 90.5422 81.7731 90.4943 82.0028L89.413 86.3997C89.2695 86.9595 89.0829 87.4906 88.858 87.9977C88.6571 88.4571 88.3939 88.8877 88.0734 89.2848C87.7528 89.6819 87.3844 90.0264 86.9777 90.323C86.528 90.6484 86.0448 90.9067 85.5328 91.0933C85.0113 91.2895 84.4132 91.4521 83.7338 91.5813C83.0018 91.7057 82.2554 91.7679 81.4851 91.7679C81.0545 91.7679 80.5282 91.7488 79.9015 91.7105C79.2795 91.6722 78.6479 91.61 78.002 91.5287C77.3561 91.4474 76.8059 91.3612 76.3418 91.2703C75.8777 91.1794 75.2988 91.0503 74.5955 90.878L74.8969 89.0934C74.9639 88.7489 75.0835 88.0073 75.2557 86.8638L75.2509 86.8542ZM87.126 75.1562C86.5902 75.0461 86.1069 74.9935 85.6668 74.9935C84.8582 74.9935 84.1214 75.1466 83.4659 75.4576C82.8104 75.7686 82.2459 76.2327 81.7866 76.8547C81.3225 77.4719 81.0162 78.1178 80.8727 78.7828C80.7627 79.2708 80.7483 79.7206 80.8297 80.1368C80.9062 80.5531 81.1215 80.8832 81.4612 81.1176C81.8057 81.3569 82.1932 81.4765 82.6382 81.4765C83.2841 81.4765 83.9157 81.242 84.5233 80.7732C85.1309 80.3043 85.6189 79.6632 85.9873 78.8498C86.3557 78.0364 86.7385 76.802 87.1356 75.1514L87.126 75.1562Z" fill="#425BA8"/>
<path d="M92.7479 84.9224C92.8005 84.5253 92.8579 84.109 92.9153 83.6689C92.9775 83.2335 93.0541 82.6306 93.1402 81.8651L93.2502 80.8891C94.0445 81.2335 94.7382 81.4871 95.3315 81.6546C95.9248 81.822 96.4846 81.9034 97.0156 81.9034C97.4558 81.9034 97.8194 81.8651 98.1113 81.7838C98.4031 81.7024 98.6328 81.5876 98.7907 81.4345C98.9486 81.2814 99.049 81.1235 99.0873 80.9608C99.116 80.8173 99.1017 80.6738 99.0395 80.535C98.9773 80.3963 98.805 80.2049 98.5275 79.9609C97.9103 79.4202 97.3697 78.9274 96.9104 78.4872C96.4463 78.0471 96.1114 77.6547 95.9056 77.3103C95.6951 76.9706 95.5659 76.5974 95.5037 76.2003C95.4463 75.8031 95.4607 75.3917 95.5564 74.9706C95.7238 74.2243 96.0922 73.5257 96.6616 72.875C97.2357 72.2243 97.9725 71.7555 98.8672 71.4636C99.7667 71.1718 100.815 71.0234 102.015 71.0234C103.216 71.0234 104.833 71.1861 106.709 71.5115L106.087 75.296C105.092 74.8654 104.087 74.6453 103.078 74.6453C102.365 74.6453 101.834 74.7171 101.48 74.8654C101.13 75.0137 100.92 75.2386 100.853 75.54C100.829 75.6405 100.829 75.7362 100.843 75.8223C100.858 75.9132 100.905 76.0089 100.977 76.1046C101.049 76.205 101.145 76.3055 101.259 76.4108C101.374 76.516 101.666 76.7553 102.121 77.1332C102.575 77.5112 102.934 77.8222 103.183 78.0662C103.599 78.4633 103.905 78.8317 104.092 79.1666C104.283 79.5063 104.408 79.8652 104.46 80.2479C104.513 80.6307 104.494 81.0326 104.403 81.4584C104.259 82.0995 103.977 82.688 103.542 83.2239C103.111 83.7598 102.542 84.2095 101.838 84.5683C101.13 84.9272 100.398 85.1808 99.6375 85.3195C98.8768 85.463 98.1065 85.53 97.3362 85.53C96.8147 85.53 96.1688 85.487 95.3985 85.3961C94.6282 85.3051 93.7478 85.1473 92.7527 84.9224H92.7479Z" fill="#425BA8"/>
<path d="M121.307 85.1813C120.283 85.1622 119.426 85.1526 118.742 85.1526C117.895 85.1526 117.044 85.1622 116.178 85.1813L116.575 83.3297C116.158 83.7364 115.819 84.0378 115.546 84.2435C115.278 84.4445 114.991 84.6263 114.69 84.7794C114.388 84.9325 114.063 85.0665 113.709 85.1813C113.355 85.2961 112.958 85.3822 112.513 85.4444C112.072 85.5066 111.627 85.5401 111.187 85.5401C110.474 85.5401 109.819 85.4588 109.221 85.2913C108.623 85.1239 108.125 84.8416 107.733 84.4445C107.341 84.0474 107.111 83.5976 107.049 83.0953C106.987 82.5929 107.025 82.0044 107.178 81.3346C107.211 81.1719 107.283 80.9183 107.384 80.5786L108.283 77.507C108.594 76.3778 108.934 75.1339 109.288 73.7607C109.508 72.9234 109.704 72.1292 109.872 71.3828C110.986 71.402 111.934 71.4115 112.718 71.4115C113.503 71.4115 114.388 71.402 115.345 71.3828L113.781 76.5357C113.541 77.3204 113.393 77.8562 113.321 78.1385C113.254 78.4208 113.206 78.6122 113.187 78.7127C112.977 79.66 113.029 80.3011 113.336 80.636C113.647 80.9709 114.068 81.1384 114.603 81.1384C114.819 81.1384 115.044 81.1097 115.273 81.0427C115.503 80.9805 115.733 80.8896 115.957 80.7748C116.154 80.6647 116.34 80.5308 116.522 80.3681C116.713 80.1958 116.895 79.9901 117.067 79.7461C117.278 79.4495 117.455 79.1289 117.603 78.7844C117.809 78.306 118.02 77.7031 118.235 76.9711C118.388 76.4352 118.642 75.5166 118.991 74.2104L119.723 71.3828C120.881 71.402 121.833 71.4115 122.579 71.4115C123.416 71.4115 124.259 71.402 125.11 71.3828C124.397 73.6746 123.751 75.8515 123.177 77.9136C122.603 79.9758 121.972 82.4015 121.292 85.1909L121.307 85.1813Z" fill="#425BA8"/>
<path d="M124.225 85.1797C124.938 83.1319 125.636 80.8736 126.325 78.3953C127.014 75.9217 127.612 73.5773 128.129 71.3716C129.211 71.3908 130.139 71.4003 130.928 71.4003C131.842 71.4003 132.718 71.3908 133.56 71.3716L133.014 73.2089C133.387 72.874 133.703 72.6108 133.961 72.4194C134.22 72.2233 134.531 72.0367 134.894 71.8501C135.253 71.6683 135.631 71.5152 136.014 71.3956C136.402 71.2807 136.818 71.185 137.258 71.1181C137.703 71.0511 138.157 71.0176 138.626 71.0176C139.277 71.0176 139.894 71.0846 140.478 71.2281C141.066 71.3668 141.535 71.5678 141.894 71.8262C142.253 72.0845 142.531 72.4003 142.722 72.7831C142.918 73.1658 143.009 73.5773 142.999 74.0222C142.99 74.4624 142.937 74.9217 142.832 75.3858C142.755 75.7303 142.554 76.4671 142.234 77.601L140.913 82.4956C140.655 83.462 140.43 84.352 140.253 85.1749C139.349 85.1558 138.497 85.1462 137.703 85.1462C136.631 85.1462 135.65 85.1558 134.765 85.1749C135.028 84.3567 135.387 83.1367 135.837 81.5148C136.287 79.8976 136.583 78.7589 136.732 78.1034C136.957 77.0843 136.918 76.3714 136.617 75.9743C136.315 75.5724 135.866 75.3715 135.268 75.3715C134.746 75.3715 134.21 75.5437 133.67 75.8882C133.129 76.2327 132.66 76.7303 132.263 77.381C131.866 78.0316 131.45 79.1082 131.014 80.6057C130.579 82.1032 130.172 83.6247 129.789 85.1749C128.895 85.1558 128.014 85.1462 127.158 85.1462C126.258 85.1462 125.278 85.1558 124.22 85.1749L124.225 85.1797Z" fill="#425BA8"/>
<path d="M75.6671 67.4744C75.6671 69.0007 74.4279 70.2399 72.8969 70.2399C71.3659 70.2399 70.1315 69.0007 70.1315 67.4744C70.1315 65.9482 71.3707 64.709 72.8969 64.709C74.4232 64.709 75.6671 65.9482 75.6671 67.4744Z" fill="#F39800"/>
<path d="M26.229 59.002C19.9661 63.3032 13.7558 69.3987 9 75.8099C13.6792 82.1828 19.8991 88.3931 26.2433 92.9862C32.6545 88.2878 38.6973 82.0776 42.9747 75.829C38.616 69.5231 32.5636 63.4276 26.229 59.002Z" fill="url(#paint0_linear_1266_33088)"/>
<mask id="mask0_1266_33088" style="mask-type:luminance" maskUnits="userSpaceOnUse" x="9" y="59" width="34" height="34">
<path d="M26.229 59C19.9661 63.3013 13.7558 69.3967 9 75.8079C13.6792 82.1809 19.8991 88.3911 26.2433 92.9843C32.6545 88.2859 38.6973 82.0756 42.9747 75.8271C38.616 69.5211 32.5636 63.4257 26.229 59Z" fill="white"/>
</mask>
<g mask="url(#mask0_1266_33088)">
<path d="M31.7837 68.1257C31.755 67.7381 31.7454 67.3506 31.7215 66.9678C28.181 66.7669 24.54 66.7382 20.9325 66.8769C17.4733 67.0109 14.2725 67.2932 11.4257 67.7142C11.3826 68.0682 11.3396 68.4271 11.2965 68.7859C14.1672 68.4127 17.3967 68.1639 20.8894 68.0443C24.5352 67.9199 28.2145 67.9486 31.7885 68.1257H31.7837Z" fill="white"/>
<path d="M31.9894 76.9257C31.9894 76.4951 31.9894 76.0645 31.9894 75.6291C28.3006 75.61 24.5065 75.61 20.7411 75.6196C17.1432 75.6339 13.8275 75.6531 10.8802 75.6913C10.8802 76.0884 10.8802 76.4856 10.8802 76.8779C13.8275 76.9018 17.1432 76.9162 20.7411 76.9209C24.5065 76.9305 28.3006 76.9305 31.9894 76.9209V76.9257Z" fill="white"/>
<path d="M41.1709 72.9719C41.1422 72.5939 41.1278 72.2159 41.0991 71.8427C38.3959 71.5892 35.2955 71.4073 31.8698 71.3069C28.2193 71.1968 24.4682 71.1777 20.7507 71.259C20.7363 71.6801 20.7411 72.1059 20.7267 72.5317C24.4634 72.4743 28.2384 72.4839 31.9033 72.57C35.3434 72.6513 38.4581 72.7853 41.1709 72.9767V72.9719Z" fill="white"/>
<path d="M41.1422 80.3164C41.1709 79.9385 41.1853 79.5605 41.1996 79.1777C38.4772 79.3308 35.3625 79.4409 31.9129 79.5031C28.2384 79.5701 24.4539 79.5796 20.7076 79.5318C20.7076 79.9624 20.7124 80.3882 20.7268 80.814C24.4587 80.881 28.2241 80.8667 31.8842 80.771C35.3195 80.6801 38.4294 80.5317 41.1374 80.3117L41.1422 80.3164Z" fill="white"/>
<path d="M31.7885 84.6318C31.8028 84.2347 31.8315 83.8376 31.8459 83.4357C28.2384 83.5888 24.5256 83.6079 20.8463 83.5026C17.325 83.4022 14.0667 83.1869 11.1769 82.8711C11.2056 83.2443 11.2486 83.6079 11.2869 83.9763C14.1576 84.3447 17.3919 84.5935 20.8846 84.7131C24.5304 84.8375 28.2145 84.8088 31.7933 84.6318H31.7885Z" fill="white"/>
</g>
<path d="M91.9727 91.8031C92.0492 91.2672 92.1018 90.8366 92.1258 90.5161C92.3793 90.6405 92.6138 90.7314 92.8243 90.7792C93.0348 90.8271 93.2214 90.851 93.3889 90.851C93.609 90.851 93.786 90.8175 93.9295 90.7553C94.073 90.6931 94.1544 90.5974 94.1831 90.4682C94.1927 90.4252 94.1927 90.3821 94.1879 90.3438C94.1831 90.3055 94.1687 90.2625 94.1448 90.2099C94.1209 90.162 94.0778 90.1094 94.0252 90.052L93.4463 89.4348C93.3075 89.296 93.2166 89.1908 93.164 89.1286C93.0587 88.9994 92.9774 88.8798 92.9296 88.7697C92.8769 88.6597 92.8482 88.5496 92.8386 88.4348C92.8291 88.32 92.8386 88.2004 92.8626 88.0712C92.8961 87.9181 92.9535 87.7698 93.0348 87.6214C93.1162 87.4731 93.2262 87.3392 93.3602 87.21C93.4941 87.0808 93.6568 86.9708 93.8577 86.8798C94.0539 86.7889 94.2549 86.7267 94.4654 86.6933C94.6759 86.6598 94.8864 86.6406 95.1017 86.6406C95.5228 86.6406 95.9725 86.6885 96.4509 86.7842C96.4222 86.9564 96.3983 87.1143 96.3792 87.2578C96.36 87.4014 96.3313 87.6549 96.2978 88.0138C96.0873 87.9181 95.8912 87.8559 95.7046 87.8224C95.5228 87.7841 95.3601 87.765 95.2261 87.765C95.0299 87.765 94.8625 87.8033 94.719 87.875C94.5754 87.9468 94.4941 88.0377 94.4702 88.143C94.4606 88.1956 94.4606 88.2434 94.4702 88.2913C94.4797 88.3391 94.5084 88.3965 94.5467 88.4587C94.5898 88.5209 94.6472 88.5927 94.7237 88.6692C94.7955 88.7458 94.9151 88.8606 95.0778 89.0089L95.3027 89.2243C95.3696 89.2912 95.4414 89.3678 95.5132 89.4635C95.585 89.5544 95.6471 89.6453 95.695 89.7362C95.7428 89.8271 95.7811 89.9084 95.8003 89.985C95.8194 90.0615 95.8337 90.1381 95.8337 90.2099C95.8337 90.2864 95.829 90.3677 95.8098 90.4587C95.762 90.6835 95.6663 90.8988 95.5132 91.1046C95.3649 91.3103 95.1735 91.4777 94.9534 91.6117C94.7285 91.7457 94.4893 91.8366 94.2453 91.8892C93.9965 91.9418 93.7429 91.9706 93.4798 91.9706C93.0731 91.9706 92.5707 91.9131 91.9774 91.7935L91.9727 91.8031Z" fill="#425BA8"/>
<path d="M99.3837 91.8846C99.4507 91.6789 99.5512 91.3344 99.6852 90.8464C99.8191 90.3584 99.9052 90.0139 99.9483 89.813L98.8527 86.7461C99.2306 86.7461 99.5368 86.7557 99.7856 86.7557C100.034 86.7557 100.302 86.7557 100.628 86.7461C100.68 86.9949 100.752 87.2915 100.853 87.6408C100.953 87.9853 101.03 88.2963 101.082 88.569C101.475 88.0618 101.781 87.6647 102.015 87.3824C102.245 87.1001 102.412 86.8848 102.518 86.7461C102.833 86.7461 103.14 86.7557 103.431 86.7557C103.585 86.7557 103.867 86.7557 104.278 86.7461L102.144 89.1766C101.719 89.6646 101.503 89.9182 101.498 89.9421L101.489 89.9804L101.479 90.0187L101.47 90.057L101.331 90.6311C101.235 91.0091 101.14 91.4301 101.034 91.8894C100.68 91.8846 100.408 91.8799 100.216 91.8799C100.025 91.8799 99.7426 91.8799 99.3885 91.8894L99.3837 91.8846Z" fill="#425BA8"/>
<path d="M105.283 91.8031C105.355 91.2672 105.403 90.8366 105.427 90.5161C105.685 90.6405 105.92 90.7314 106.125 90.7792C106.336 90.8271 106.522 90.851 106.69 90.851C106.91 90.851 107.087 90.8175 107.231 90.7553C107.374 90.6931 107.455 90.5974 107.479 90.4682C107.489 90.4252 107.489 90.3821 107.484 90.3438C107.479 90.3055 107.465 90.2625 107.441 90.2099C107.417 90.162 107.374 90.1094 107.321 90.052L106.738 89.4348C106.599 89.296 106.503 89.1908 106.451 89.1286C106.345 88.9994 106.264 88.8798 106.211 88.7697C106.159 88.6597 106.13 88.5496 106.116 88.4348C106.106 88.32 106.116 88.2004 106.135 88.0712C106.164 87.9181 106.221 87.7698 106.302 87.6214C106.384 87.4731 106.494 87.3392 106.628 87.21C106.762 87.0808 106.924 86.9708 107.121 86.8798C107.317 86.7889 107.518 86.7267 107.728 86.6933C107.939 86.6598 108.149 86.6406 108.364 86.6406C108.786 86.6406 109.235 86.6885 109.714 86.7842C109.69 86.9564 109.666 87.1143 109.647 87.2578C109.628 87.4014 109.604 87.6549 109.57 88.0138C109.36 87.9181 109.159 87.8559 108.977 87.8224C108.795 87.7841 108.632 87.765 108.498 87.765C108.302 87.765 108.135 87.8033 107.991 87.875C107.848 87.9468 107.766 88.0377 107.747 88.143C107.738 88.1956 107.738 88.2434 107.747 88.2913C107.757 88.3391 107.786 88.3965 107.829 88.4587C107.872 88.5209 107.929 88.5927 108.006 88.6692C108.082 88.7458 108.202 88.8606 108.364 89.0089L108.594 89.2243C108.661 89.2912 108.733 89.3678 108.805 89.4635C108.881 89.5544 108.943 89.6453 108.991 89.7362C109.039 89.8271 109.077 89.9084 109.097 89.985C109.116 90.0615 109.13 90.1381 109.13 90.2099C109.13 90.2864 109.13 90.3677 109.111 90.4587C109.068 90.6835 108.972 90.8988 108.824 91.1046C108.675 91.3103 108.489 91.4777 108.264 91.6117C108.039 91.7457 107.805 91.8366 107.556 91.8892C107.307 91.9418 107.054 91.9706 106.79 91.9706C106.384 91.9706 105.881 91.9131 105.288 91.7935L105.283 91.8031Z" fill="#425BA8"/>
<path d="M112.737 91.8846C113.101 90.6598 113.436 89.3154 113.742 87.8513L112.139 87.8944L112.24 87.4781C112.292 87.258 112.345 87.014 112.407 86.7461C113.115 86.7461 113.938 86.7557 114.886 86.7557H115.809H116.708H117.196L117.106 87.1193C117.058 87.3154 117.019 87.4781 116.991 87.6073C116.962 87.7365 116.943 87.8322 116.928 87.8992C116.397 87.8704 115.962 87.8561 115.613 87.8561H115.35C115.225 88.2963 115.12 88.7077 115.024 89.0809C114.895 89.6168 114.771 90.1431 114.661 90.6502C114.551 91.1574 114.46 91.5689 114.402 91.8846C113.991 91.8799 113.728 91.8751 113.603 91.8751C113.498 91.8751 113.206 91.8751 112.737 91.8846Z" fill="#425BA8"/>
<path d="M118.661 91.8846C118.847 91.2339 118.995 90.6885 119.11 90.2531C119.22 89.8177 119.364 89.234 119.527 88.5116C119.694 87.7891 119.799 87.3107 119.842 87.0762L119.9 86.7461C120.488 86.7461 121.201 86.7557 122.038 86.7557C122.809 86.7557 123.493 86.7557 124.081 86.7461L124.053 86.8705C124.043 86.8992 124.019 87.0092 123.971 87.1958L123.871 87.6025C123.847 87.6886 123.833 87.7795 123.813 87.8657C123.335 87.8465 122.933 87.837 122.603 87.837C122.244 87.837 122 87.837 121.876 87.837C121.751 87.837 121.55 87.8417 121.282 87.8561L121.072 88.7173C121.369 88.7269 121.708 88.7317 122.105 88.7317C122.244 88.7317 122.622 88.7221 123.23 88.703C123.144 89.0235 123.048 89.4063 122.943 89.8512C122.512 89.8512 122.177 89.8417 121.947 89.8417C121.603 89.8417 121.215 89.8512 120.78 89.8656L120.565 90.7842H120.995C121.125 90.7842 121.388 90.7842 121.79 90.7746L122.569 90.7555C122.684 90.7555 122.88 90.7411 123.153 90.7268C123.053 91.1 122.957 91.4827 122.861 91.8846C122.249 91.8799 121.579 91.8751 120.847 91.8751H119.192L118.656 91.8846H118.661Z" fill="#425BA8"/>
<path d="M126.024 91.8846L126.258 91.1191L126.981 88.4781L127.416 86.7461C127.875 86.7461 128.239 86.7557 128.502 86.7557C128.722 86.7557 129.052 86.7557 129.507 86.7461C129.502 86.9614 129.497 87.1241 129.502 87.2341C129.502 87.3442 129.517 87.5642 129.55 87.8896C129.579 88.2149 129.598 88.4924 129.607 88.7317C129.617 88.9661 129.622 89.3728 129.627 89.9469C129.808 89.5546 129.971 89.2149 130.115 88.9326C130.253 88.6503 130.426 88.325 130.627 87.9661C130.828 87.6073 130.957 87.3729 131.014 87.258C131.072 87.148 131.153 86.9757 131.253 86.7461C131.627 86.7461 131.995 86.7557 132.354 86.7557C132.598 86.7557 132.937 86.7557 133.373 86.7461C133.177 87.5882 133.014 88.3154 132.89 88.9183C132.641 90.1096 132.478 90.9277 132.397 91.3775C132.382 91.4684 132.354 91.6406 132.315 91.8846C131.985 91.8799 131.756 91.8751 131.622 91.8751C131.43 91.8751 131.191 91.8751 130.909 91.8846C130.971 91.6598 131.095 91.1191 131.277 90.2675C131.464 89.4158 131.574 88.8752 131.617 88.6408C131.636 88.5403 131.66 88.3967 131.684 88.2149L130.914 89.746L129.813 91.8894C129.488 91.8846 129.263 91.8799 129.143 91.8799C128.99 91.8799 128.751 91.8799 128.426 91.8894L128.344 89.813L128.277 88.7077C128.277 88.6647 128.277 88.612 128.277 88.5498C128.277 88.4876 128.277 88.3776 128.277 88.2197L127.99 89.2627L127.469 91.4062L127.368 91.8894C127.024 91.8846 126.804 91.8799 126.708 91.8799C126.579 91.8799 126.354 91.8799 126.029 91.8894L126.024 91.8846Z" fill="#425BA8"/>
<defs>
<linearGradient id="paint0_linear_1266_33088" x1="44.9507" y1="75.9917" x2="11.5836" y2="75.9917" gradientUnits="userSpaceOnUse">
<stop stop-color="#E83929"/>
<stop offset="0.31" stop-color="#F39800"/>
<stop offset="1" stop-color="#C30F23"/>
</linearGradient>
</defs>
</svg>
