<svg xmlns="http://www.w3.org/2000/svg" width="20" height="21" viewBox="0 0 20 21" fill="none">
<path d="M18.3325 7.885C18.3353 9.16729 17.8413 10.4008 16.9541 11.3267C14.92 13.4358 12.9466 15.635 10.8375 17.6667C10.3533 18.125 9.58581 18.1083 9.12331 17.6292L3.04414 11.3275C1.20664 9.4225 1.20664 6.3475 3.04414 4.44333C3.47843 3.9875 4.00075 3.6246 4.57947 3.37664C5.15818 3.12869 5.78121 3.00083 6.41081 3.00083C7.0404 3.00083 7.66344 3.12869 8.24215 3.37664C8.82086 3.6246 9.34319 3.9875 9.77747 4.44333L9.99914 4.67167L10.22 4.44333C10.6551 3.98858 11.1776 3.62635 11.7561 3.37834C12.3346 3.13033 12.9572 3.00164 13.5866 3C14.8533 3 16.0641 3.52 16.9533 4.44333C17.8408 5.36904 18.3351 6.60259 18.3325 7.885Z" stroke="#868C94" stroke-width="1.6" stroke-linejoin="round"/>
</svg>