<svg width="30" height="29" viewBox="0 0 30 29" fill="none" xmlns="http://www.w3.org/2000/svg">
<g clip-path="url(#clip0_2839_1793)">
<path fill-rule="evenodd" clip-rule="evenodd" d="M29.1003 14.8308C29.1003 13.8022 29.0055 12.8146 28.8313 11.8652H14.8965V17.474H22.8598C22.5169 19.2867 21.4743 20.822 19.9075 21.8506V25.4883H24.69C27.4875 22.9639 29.1017 19.2471 29.1017 14.8308H29.1003Z" fill="#3E82F1"/>
<path fill-rule="evenodd" clip-rule="evenodd" d="M14.8973 29.0007C18.8922 29.0007 22.2417 27.7016 24.6894 25.4873L19.907 21.8497C18.5814 22.7198 16.8878 23.2334 14.8959 23.2334C11.0418 23.2334 7.78007 20.6831 6.61616 17.2559H1.6748V21.0123C4.10994 25.751 9.11263 29.0007 14.8973 29.0007Z" fill="#32A753"/>
<path fill-rule="evenodd" clip-rule="evenodd" d="M6.61607 17.2561C6.32056 16.386 6.1519 15.4571 6.1519 14.5009C6.1519 13.5447 6.32056 12.6159 6.61607 11.7457V7.98926H1.67332C0.671107 9.94672 0.0996094 12.161 0.0996094 14.5009C0.0996094 16.8409 0.671107 19.0552 1.67332 21.0126L6.61607 17.2561Z" fill="#F9BB00"/>
<path fill-rule="evenodd" clip-rule="evenodd" d="M14.8973 5.76819C17.069 5.76819 19.0204 6.50036 20.5537 7.93602L24.7981 3.77658C22.2348 1.438 18.8852 0.000976562 14.8973 0.000976562C9.11263 0.000976562 4.10994 3.25067 1.6748 7.9893L6.61756 11.7458C7.78146 8.3185 11.0432 5.76819 14.8973 5.76819Z" fill="#E74133"/>
</g>
<defs>
<clipPath id="clip0_2839_1793">
<rect width="29" height="29" fill="white" transform="translate(0.0996094)"/>
</clipPath>
</defs>
</svg>
