<svg xmlns="http://www.w3.org/2000/svg" width="20" height="20" viewBox="0 0 20 20" fill="none">
  <path d="M2.43431 15.9343C2.12189 16.2467 2.12189 16.7533 2.43431 17.0657C2.74673 17.3781 3.25327 17.3781 3.56569 17.0657L2.43431 15.9343ZM7 12.5L7.56568 11.9343C7.25326 11.6219 6.74673 11.6219 6.43431 11.9343L7 12.5ZM9 14.5L8.43431 15.0657C8.58434 15.2157 8.78783 15.3 9 15.3C9.21217 15.3 9.41566 15.2157 9.56568 15.0657L9 14.5ZM13.5 10L14.0657 9.43431C13.9157 9.28428 13.7122 9.2 13.5 9.2C13.2878 9.2 13.0843 9.28428 12.9343 9.43431L13.5 10ZM16.9343 14.5657C17.2467 14.8781 17.7533 14.8781 18.0657 14.5657C18.3781 14.2533 18.3781 13.7467 18.0657 13.4343L16.9343 14.5657ZM3.56569 17.0657L7.56568 13.0657L6.43431 11.9343L2.43431 15.9343L3.56569 17.0657ZM6.43431 13.0657L8.43431 15.0657L9.56568 13.9343L7.56568 11.9343L6.43431 13.0657ZM9.56568 15.0657L14.0657 10.5657L12.9343 9.43431L8.43431 13.9343L9.56568 15.0657ZM12.9343 10.5657L16.9343 14.5657L18.0657 13.4343L14.0657 9.43431L12.9343 10.5657ZM5 2.8H15V1.2H5V2.8ZM17.2 5V15H18.8V5H17.2ZM15 17.2H5V18.8H15V17.2ZM2.8 15V5H1.2V15H2.8ZM5 17.2C3.78497 17.2 2.8 16.215 2.8 15H1.2C1.2 17.0987 2.90132 18.8 5 18.8V17.2ZM17.2 15C17.2 16.215 16.215 17.2 15 17.2V18.8C17.0987 18.8 18.8 17.0987 18.8 15H17.2ZM15 2.8C16.215 2.8 17.2 3.78497 17.2 5H18.8C18.8 2.90132 17.0987 1.2 15 1.2V2.8ZM5 1.2C2.90132 1.2 1.2 2.90132 1.2 5H2.8C2.8 3.78497 3.78497 2.8 5 2.8V1.2ZM7.2 6.5C7.2 6.8866 6.8866 7.2 6.5 7.2V8.8C7.77025 8.8 8.8 7.77025 8.8 6.5H7.2ZM6.5 7.2C6.1134 7.2 5.8 6.8866 5.8 6.5H4.2C4.2 7.77025 5.22974 8.8 6.5 8.8V7.2ZM5.8 6.5C5.8 6.1134 6.1134 5.8 6.5 5.8V4.2C5.22974 4.2 4.2 5.22974 4.2 6.5H5.8ZM6.5 5.8C6.8866 5.8 7.2 6.1134 7.2 6.5H8.8C8.8 5.22974 7.77025 4.2 6.5 4.2V5.8Z" fill="#4D5359"/>
</svg>