<svg xmlns="http://www.w3.org/2000/svg" width="80" height="81" viewBox="0 0 80 81" fill="none">
  <mask id="path-1-outside-1_7816_46430" maskUnits="userSpaceOnUse" x="-3.88214" y="-3.743" width="88.1816" height="88.1816" fill="black">
    <rect fill="white" x="-3.88214" y="-3.743" width="88.1816" height="88.1816"/>
    <path fill-rule="evenodd" clip-rule="evenodd" d="M57.1107 65.4504C57.381 66.4592 58.4179 67.0579 59.4267 66.7876L66.7331 64.8298C67.7419 64.5595 68.3405 63.5226 68.0702 62.5138C67.7999 61.505 68.3986 60.4681 69.4074 60.1978L70.0162 60.0346C71.3613 59.6742 72.1595 58.2917 71.7991 56.9466L71.636 56.3377C71.3657 55.3289 71.9643 54.292 72.9731 54.0217C73.9819 53.7514 74.5806 52.7145 74.3103 51.7057L64.1953 13.9561C63.925 12.9473 62.8881 12.3487 61.8793 12.619C60.8705 12.8893 59.8336 12.2906 59.5633 11.2818L59.4001 10.673C59.0397 9.3279 57.6572 8.52968 56.3121 8.89009L55.7032 9.05324C54.6944 9.32354 53.6575 8.72488 53.3872 7.71608C53.1169 6.70728 52.08 6.10862 51.0712 6.37893L43.7648 8.33666C42.756 8.60697 42.1574 9.64389 42.4277 10.6527C42.698 11.6615 42.0993 12.6984 41.0905 12.9687L40.4817 13.1319C39.1366 13.4923 38.3384 14.8748 38.6988 16.2199L38.8619 16.8287C39.1322 17.8375 38.5336 18.8745 37.5248 19.1448C36.516 19.4151 35.9173 20.452 36.1876 21.4608L46.3026 59.2103C46.5729 60.2191 47.6098 60.8178 48.6186 60.5475C49.6274 60.2772 50.6643 60.8758 50.9346 61.8846L51.0978 62.4935C51.4582 63.8386 52.8407 64.6368 54.1858 64.2764L54.7947 64.1132C55.8035 63.8429 56.8404 64.4416 57.1107 65.4504ZM44.1466 21.9385C43.8762 20.9297 44.4749 19.8928 45.4837 19.6225C46.4925 19.3522 47.0912 18.3153 46.8209 17.3065L46.6577 16.6976C46.4775 16.0251 46.8766 15.3338 47.5492 15.1536L51.2023 14.1747C51.8749 13.9945 52.5662 14.3936 52.7464 15.0662L52.9095 15.675C53.1798 16.6838 54.2167 17.2825 55.2255 17.0122C56.2343 16.7419 57.2712 17.3405 57.5415 18.3493L66.3514 51.228C66.6217 52.2368 66.023 53.2737 65.0142 53.544C64.0054 53.8143 63.4067 54.8512 63.677 55.86L63.8402 56.4689C64.0204 57.1414 63.6213 57.8327 62.9487 58.0129L59.2956 58.9918C58.623 59.172 57.9318 58.7728 57.7515 58.1003C57.5713 57.4278 57.9705 56.7365 58.643 56.5563L59.2518 56.3932C60.2606 56.1228 60.8593 55.0859 60.589 54.0771C60.3187 53.0683 60.9174 52.0314 61.9262 51.7611C62.935 51.4908 63.5336 50.4539 63.2633 49.4451L59.8373 36.659C59.4769 35.3139 58.0943 34.5157 56.7493 34.8761L56.1404 35.0392C55.1316 35.3095 54.0947 34.7109 53.8244 33.7021C53.5541 32.6933 52.5171 32.0946 51.5083 32.3649L49.6818 32.8543C48.3367 33.2148 46.9541 32.4165 46.5937 31.0715L44.1466 21.9385ZM50.3578 54.8609C50.538 55.5334 51.2292 55.9325 51.9018 55.7523L56.7727 54.4471C57.4452 54.2669 57.8443 53.5757 57.6641 52.9031L56.359 48.0322C56.1788 47.3597 55.4875 46.9606 54.8149 47.1408L49.944 48.4459C49.2715 48.6261 48.8724 49.3174 49.0526 49.9899L50.3578 54.8609Z"/>
    <path fill-rule="evenodd" clip-rule="evenodd" d="M26.6675 73.6076C26.9378 74.6164 27.9747 75.2151 28.9835 74.9448L36.2899 72.987C37.2987 72.7167 37.8974 71.6798 37.6271 70.671C37.3567 69.6622 37.9554 68.6253 38.9642 68.355L39.5731 68.1919C40.9181 67.8314 41.7164 66.4489 41.356 65.1038L41.1928 64.495C40.9225 63.4862 41.5212 62.4492 42.53 62.1789C43.5388 61.9086 44.1374 60.8717 43.8671 59.8629L33.7522 22.1134C33.4819 21.1046 32.4449 20.5059 31.4361 20.7762C30.4273 21.0465 29.3904 20.4479 29.1201 19.4391L28.957 18.8302C28.5966 17.4851 27.214 16.6869 25.8689 17.0473L25.2601 17.2105C24.2513 17.4808 23.2144 16.8821 22.944 15.8733C22.6737 14.8645 21.6368 14.2658 20.628 14.5362L13.3217 16.4939C12.3129 16.7642 11.7142 17.8011 11.9845 18.8099C12.2548 19.8187 11.6561 20.8556 10.6473 21.1259L10.0385 21.2891C8.69343 21.6495 7.8952 23.032 8.25561 24.3771L8.41875 24.986C8.68906 25.9948 8.09039 27.0317 7.0816 27.302C6.0728 27.5723 5.47413 28.6092 5.74444 29.618L15.8594 67.3676C16.1297 68.3764 17.1666 68.975 18.1754 68.7047C19.1842 68.4344 20.2211 69.0331 20.4914 70.0419L20.6546 70.6507C21.015 71.9958 22.3976 72.794 23.7426 72.4336L24.3515 72.2705C25.3603 72.0002 26.3972 72.5988 26.6675 73.6076ZM13.7034 30.0957C13.4331 29.0869 14.0317 28.05 15.0405 27.7797C16.0493 27.5094 16.648 26.4725 16.3777 25.4637L16.2145 24.8548C16.0343 24.1823 16.4335 23.491 17.106 23.3108L20.7592 22.3319C21.4317 22.1517 22.123 22.5509 22.3032 23.2234L22.4663 23.8322C22.7366 24.841 23.7736 25.4397 24.7824 25.1694C25.7912 24.8991 26.8281 25.4978 27.0984 26.5066L35.9082 59.3852C36.1785 60.394 35.5798 61.4309 34.571 61.7012C33.5622 61.9715 32.9636 63.0084 33.2339 64.0172L33.397 64.6261C33.5772 65.2986 33.1781 65.9899 32.5056 66.1701L28.8524 67.149C28.1799 67.3292 27.4886 66.9301 27.3084 66.2575C27.1282 65.585 27.5273 64.8937 28.1998 64.7135L28.8087 64.5504C29.8175 64.2801 30.4161 63.2432 30.1458 62.2344C29.8755 61.2256 30.4742 60.1886 31.483 59.9183C32.4918 59.648 33.0905 58.6111 32.8201 57.6023L29.3941 44.8162C29.0337 43.4711 27.6512 42.6729 26.3061 43.0333L25.6972 43.1964C24.6884 43.4668 23.6515 42.8681 23.3812 41.8593C23.1109 40.8505 22.074 40.2518 21.0652 40.5221L19.2386 41.0116C17.8935 41.372 16.511 40.5738 16.1505 39.2287L13.7034 30.0957ZM19.9146 63.0181C20.0948 63.6906 20.7861 64.0897 21.4586 63.9095L26.3295 62.6044C27.002 62.4242 27.4012 61.7329 27.2209 61.0603L25.9158 56.1894C25.7356 55.5169 25.0443 55.1178 24.3718 55.298L19.5009 56.6032C18.8283 56.7834 18.4292 57.4746 18.6094 58.1472L19.9146 63.0181Z"/>
  </mask>
  <path fill-rule="evenodd" clip-rule="evenodd" d="M57.1107 65.4504C57.381 66.4592 58.4179 67.0579 59.4267 66.7876L66.7331 64.8298C67.7419 64.5595 68.3405 63.5226 68.0702 62.5138C67.7999 61.505 68.3986 60.4681 69.4074 60.1978L70.0162 60.0346C71.3613 59.6742 72.1595 58.2917 71.7991 56.9466L71.636 56.3377C71.3657 55.3289 71.9643 54.292 72.9731 54.0217C73.9819 53.7514 74.5806 52.7145 74.3103 51.7057L64.1953 13.9561C63.925 12.9473 62.8881 12.3487 61.8793 12.619C60.8705 12.8893 59.8336 12.2906 59.5633 11.2818L59.4001 10.673C59.0397 9.3279 57.6572 8.52968 56.3121 8.89009L55.7032 9.05324C54.6944 9.32354 53.6575 8.72488 53.3872 7.71608C53.1169 6.70728 52.08 6.10862 51.0712 6.37893L43.7648 8.33666C42.756 8.60697 42.1574 9.64389 42.4277 10.6527C42.698 11.6615 42.0993 12.6984 41.0905 12.9687L40.4817 13.1319C39.1366 13.4923 38.3384 14.8748 38.6988 16.2199L38.8619 16.8287C39.1322 17.8375 38.5336 18.8745 37.5248 19.1448C36.516 19.4151 35.9173 20.452 36.1876 21.4608L46.3026 59.2103C46.5729 60.2191 47.6098 60.8178 48.6186 60.5475C49.6274 60.2772 50.6643 60.8758 50.9346 61.8846L51.0978 62.4935C51.4582 63.8386 52.8407 64.6368 54.1858 64.2764L54.7947 64.1132C55.8035 63.8429 56.8404 64.4416 57.1107 65.4504ZM44.1466 21.9385C43.8762 20.9297 44.4749 19.8928 45.4837 19.6225C46.4925 19.3522 47.0912 18.3153 46.8209 17.3065L46.6577 16.6976C46.4775 16.0251 46.8766 15.3338 47.5492 15.1536L51.2023 14.1747C51.8749 13.9945 52.5662 14.3936 52.7464 15.0662L52.9095 15.675C53.1798 16.6838 54.2167 17.2825 55.2255 17.0122C56.2343 16.7419 57.2712 17.3405 57.5415 18.3493L66.3514 51.228C66.6217 52.2368 66.023 53.2737 65.0142 53.544C64.0054 53.8143 63.4067 54.8512 63.677 55.86L63.8402 56.4689C64.0204 57.1414 63.6213 57.8327 62.9487 58.0129L59.2956 58.9918C58.623 59.172 57.9318 58.7728 57.7515 58.1003C57.5713 57.4278 57.9705 56.7365 58.643 56.5563L59.2518 56.3932C60.2606 56.1228 60.8593 55.0859 60.589 54.0771C60.3187 53.0683 60.9174 52.0314 61.9262 51.7611C62.935 51.4908 63.5336 50.4539 63.2633 49.4451L59.8373 36.659C59.4769 35.3139 58.0943 34.5157 56.7493 34.8761L56.1404 35.0392C55.1316 35.3095 54.0947 34.7109 53.8244 33.7021C53.5541 32.6933 52.5171 32.0946 51.5083 32.3649L49.6818 32.8543C48.3367 33.2148 46.9541 32.4165 46.5937 31.0715L44.1466 21.9385ZM50.3578 54.8609C50.538 55.5334 51.2292 55.9325 51.9018 55.7523L56.7727 54.4471C57.4452 54.2669 57.8443 53.5757 57.6641 52.9031L56.359 48.0322C56.1788 47.3597 55.4875 46.9606 54.8149 47.1408L49.944 48.4459C49.2715 48.6261 48.8724 49.3174 49.0526 49.9899L50.3578 54.8609Z" fill="#ADB3BA"/>
  <path fill-rule="evenodd" clip-rule="evenodd" d="M26.6675 73.6076C26.9378 74.6164 27.9747 75.2151 28.9835 74.9448L36.2899 72.987C37.2987 72.7167 37.8974 71.6798 37.6271 70.671C37.3567 69.6622 37.9554 68.6253 38.9642 68.355L39.5731 68.1919C40.9181 67.8314 41.7164 66.4489 41.356 65.1038L41.1928 64.495C40.9225 63.4862 41.5212 62.4492 42.53 62.1789C43.5388 61.9086 44.1374 60.8717 43.8671 59.8629L33.7522 22.1134C33.4819 21.1046 32.4449 20.5059 31.4361 20.7762C30.4273 21.0465 29.3904 20.4479 29.1201 19.4391L28.957 18.8302C28.5966 17.4851 27.214 16.6869 25.8689 17.0473L25.2601 17.2105C24.2513 17.4808 23.2144 16.8821 22.944 15.8733C22.6737 14.8645 21.6368 14.2658 20.628 14.5362L13.3217 16.4939C12.3129 16.7642 11.7142 17.8011 11.9845 18.8099C12.2548 19.8187 11.6561 20.8556 10.6473 21.1259L10.0385 21.2891C8.69343 21.6495 7.8952 23.032 8.25561 24.3771L8.41875 24.986C8.68906 25.9948 8.09039 27.0317 7.0816 27.302C6.0728 27.5723 5.47413 28.6092 5.74444 29.618L15.8594 67.3676C16.1297 68.3764 17.1666 68.975 18.1754 68.7047C19.1842 68.4344 20.2211 69.0331 20.4914 70.0419L20.6546 70.6507C21.015 71.9958 22.3976 72.794 23.7426 72.4336L24.3515 72.2705C25.3603 72.0002 26.3972 72.5988 26.6675 73.6076ZM13.7034 30.0957C13.4331 29.0869 14.0317 28.05 15.0405 27.7797C16.0493 27.5094 16.648 26.4725 16.3777 25.4637L16.2145 24.8548C16.0343 24.1823 16.4335 23.491 17.106 23.3108L20.7592 22.3319C21.4317 22.1517 22.123 22.5509 22.3032 23.2234L22.4663 23.8322C22.7366 24.841 23.7736 25.4397 24.7824 25.1694C25.7912 24.8991 26.8281 25.4978 27.0984 26.5066L35.9082 59.3852C36.1785 60.394 35.5798 61.4309 34.571 61.7012C33.5622 61.9715 32.9636 63.0084 33.2339 64.0172L33.397 64.6261C33.5772 65.2986 33.1781 65.9899 32.5056 66.1701L28.8524 67.149C28.1799 67.3292 27.4886 66.9301 27.3084 66.2575C27.1282 65.585 27.5273 64.8937 28.1998 64.7135L28.8087 64.5504C29.8175 64.2801 30.4161 63.2432 30.1458 62.2344C29.8755 61.2256 30.4742 60.1886 31.483 59.9183C32.4918 59.648 33.0905 58.6111 32.8201 57.6023L29.3941 44.8162C29.0337 43.4711 27.6512 42.6729 26.3061 43.0333L25.6972 43.1964C24.6884 43.4668 23.6515 42.8681 23.3812 41.8593C23.1109 40.8505 22.074 40.2518 21.0652 40.5221L19.2386 41.0116C17.8935 41.372 16.511 40.5738 16.1505 39.2287L13.7034 30.0957ZM19.9146 63.0181C20.0948 63.6906 20.7861 64.0897 21.4586 63.9095L26.3295 62.6044C27.002 62.4242 27.4012 61.7329 27.2209 61.0603L25.9158 56.1894C25.7356 55.5169 25.0443 55.1178 24.3718 55.298L19.5009 56.6032C18.8283 56.7834 18.4292 57.4746 18.6094 58.1472L19.9146 63.0181Z" fill="#ADB3BA"/>
  <path fill-rule="evenodd" clip-rule="evenodd" d="M57.1107 65.4504C57.381 66.4592 58.4179 67.0579 59.4267 66.7876L66.7331 64.8298C67.7419 64.5595 68.3405 63.5226 68.0702 62.5138C67.7999 61.505 68.3986 60.4681 69.4074 60.1978L70.0162 60.0346C71.3613 59.6742 72.1595 58.2917 71.7991 56.9466L71.636 56.3377C71.3657 55.3289 71.9643 54.292 72.9731 54.0217C73.9819 53.7514 74.5806 52.7145 74.3103 51.7057L64.1953 13.9561C63.925 12.9473 62.8881 12.3487 61.8793 12.619C60.8705 12.8893 59.8336 12.2906 59.5633 11.2818L59.4001 10.673C59.0397 9.3279 57.6572 8.52968 56.3121 8.89009L55.7032 9.05324C54.6944 9.32354 53.6575 8.72488 53.3872 7.71608C53.1169 6.70728 52.08 6.10862 51.0712 6.37893L43.7648 8.33666C42.756 8.60697 42.1574 9.64389 42.4277 10.6527C42.698 11.6615 42.0993 12.6984 41.0905 12.9687L40.4817 13.1319C39.1366 13.4923 38.3384 14.8748 38.6988 16.2199L38.8619 16.8287C39.1322 17.8375 38.5336 18.8745 37.5248 19.1448C36.516 19.4151 35.9173 20.452 36.1876 21.4608L46.3026 59.2103C46.5729 60.2191 47.6098 60.8178 48.6186 60.5475C49.6274 60.2772 50.6643 60.8758 50.9346 61.8846L51.0978 62.4935C51.4582 63.8386 52.8407 64.6368 54.1858 64.2764L54.7947 64.1132C55.8035 63.8429 56.8404 64.4416 57.1107 65.4504ZM44.1466 21.9385C43.8762 20.9297 44.4749 19.8928 45.4837 19.6225C46.4925 19.3522 47.0912 18.3153 46.8209 17.3065L46.6577 16.6976C46.4775 16.0251 46.8766 15.3338 47.5492 15.1536L51.2023 14.1747C51.8749 13.9945 52.5662 14.3936 52.7464 15.0662L52.9095 15.675C53.1798 16.6838 54.2167 17.2825 55.2255 17.0122C56.2343 16.7419 57.2712 17.3405 57.5415 18.3493L66.3514 51.228C66.6217 52.2368 66.023 53.2737 65.0142 53.544C64.0054 53.8143 63.4067 54.8512 63.677 55.86L63.8402 56.4689C64.0204 57.1414 63.6213 57.8327 62.9487 58.0129L59.2956 58.9918C58.623 59.172 57.9318 58.7728 57.7515 58.1003C57.5713 57.4278 57.9705 56.7365 58.643 56.5563L59.2518 56.3932C60.2606 56.1228 60.8593 55.0859 60.589 54.0771C60.3187 53.0683 60.9174 52.0314 61.9262 51.7611C62.935 51.4908 63.5336 50.4539 63.2633 49.4451L59.8373 36.659C59.4769 35.3139 58.0943 34.5157 56.7493 34.8761L56.1404 35.0392C55.1316 35.3095 54.0947 34.7109 53.8244 33.7021C53.5541 32.6933 52.5171 32.0946 51.5083 32.3649L49.6818 32.8543C48.3367 33.2148 46.9541 32.4165 46.5937 31.0715L44.1466 21.9385ZM50.3578 54.8609C50.538 55.5334 51.2292 55.9325 51.9018 55.7523L56.7727 54.4471C57.4452 54.2669 57.8443 53.5757 57.6641 52.9031L56.359 48.0322C56.1788 47.3597 55.4875 46.9606 54.8149 47.1408L49.944 48.4459C49.2715 48.6261 48.8724 49.3174 49.0526 49.9899L50.3578 54.8609Z" stroke="white" stroke-width="10.2564" mask="url(#path-1-outside-1_7816_46430)"/>
  <path fill-rule="evenodd" clip-rule="evenodd" d="M26.6675 73.6076C26.9378 74.6164 27.9747 75.2151 28.9835 74.9448L36.2899 72.987C37.2987 72.7167 37.8974 71.6798 37.6271 70.671C37.3567 69.6622 37.9554 68.6253 38.9642 68.355L39.5731 68.1919C40.9181 67.8314 41.7164 66.4489 41.356 65.1038L41.1928 64.495C40.9225 63.4862 41.5212 62.4492 42.53 62.1789C43.5388 61.9086 44.1374 60.8717 43.8671 59.8629L33.7522 22.1134C33.4819 21.1046 32.4449 20.5059 31.4361 20.7762C30.4273 21.0465 29.3904 20.4479 29.1201 19.4391L28.957 18.8302C28.5966 17.4851 27.214 16.6869 25.8689 17.0473L25.2601 17.2105C24.2513 17.4808 23.2144 16.8821 22.944 15.8733C22.6737 14.8645 21.6368 14.2658 20.628 14.5362L13.3217 16.4939C12.3129 16.7642 11.7142 17.8011 11.9845 18.8099C12.2548 19.8187 11.6561 20.8556 10.6473 21.1259L10.0385 21.2891C8.69343 21.6495 7.8952 23.032 8.25561 24.3771L8.41875 24.986C8.68906 25.9948 8.09039 27.0317 7.0816 27.302C6.0728 27.5723 5.47413 28.6092 5.74444 29.618L15.8594 67.3676C16.1297 68.3764 17.1666 68.975 18.1754 68.7047C19.1842 68.4344 20.2211 69.0331 20.4914 70.0419L20.6546 70.6507C21.015 71.9958 22.3976 72.794 23.7426 72.4336L24.3515 72.2705C25.3603 72.0002 26.3972 72.5988 26.6675 73.6076ZM13.7034 30.0957C13.4331 29.0869 14.0317 28.05 15.0405 27.7797C16.0493 27.5094 16.648 26.4725 16.3777 25.4637L16.2145 24.8548C16.0343 24.1823 16.4335 23.491 17.106 23.3108L20.7592 22.3319C21.4317 22.1517 22.123 22.5509 22.3032 23.2234L22.4663 23.8322C22.7366 24.841 23.7736 25.4397 24.7824 25.1694C25.7912 24.8991 26.8281 25.4978 27.0984 26.5066L35.9082 59.3852C36.1785 60.394 35.5798 61.4309 34.571 61.7012C33.5622 61.9715 32.9636 63.0084 33.2339 64.0172L33.397 64.6261C33.5772 65.2986 33.1781 65.9899 32.5056 66.1701L28.8524 67.149C28.1799 67.3292 27.4886 66.9301 27.3084 66.2575C27.1282 65.585 27.5273 64.8937 28.1998 64.7135L28.8087 64.5504C29.8175 64.2801 30.4161 63.2432 30.1458 62.2344C29.8755 61.2256 30.4742 60.1886 31.483 59.9183C32.4918 59.648 33.0905 58.6111 32.8201 57.6023L29.3941 44.8162C29.0337 43.4711 27.6512 42.6729 26.3061 43.0333L25.6972 43.1964C24.6884 43.4668 23.6515 42.8681 23.3812 41.8593C23.1109 40.8505 22.074 40.2518 21.0652 40.5221L19.2386 41.0116C17.8935 41.372 16.511 40.5738 16.1505 39.2287L13.7034 30.0957ZM19.9146 63.0181C20.0948 63.6906 20.7861 64.0897 21.4586 63.9095L26.3295 62.6044C27.002 62.4242 27.4012 61.7329 27.2209 61.0603L25.9158 56.1894C25.7356 55.5169 25.0443 55.1178 24.3718 55.298L19.5009 56.6032C18.8283 56.7834 18.4292 57.4746 18.6094 58.1472L19.9146 63.0181Z" stroke="white" stroke-width="10.2564" mask="url(#path-1-outside-1_7816_46430)"/>
</svg>
